STARTFONT 2.1
COMMENT
COMMENT Converted from OpenType font "Q:\font stuff\winfont\TeutonNormal.otf" by "otf2bdf 3.0".
COMMENT
FONT -FreeType-Teuton Normal-Medium-R-Normal--189-1900-72-72-P-678-ISO10646-1
SIZE 190 72 72
FONTBOUNDINGBOX 176 203 -10 -43
STARTPROPERTIES 19
FOUNDRY "FreeType"
FAMILY_NAME "Teuton Normal"
WEIGHT_NAME "Medium"
SLANT "R"
SETWIDTH_NAME "Normal"
ADD_STYLE_NAME ""
PIXEL_SIZE 189
POINT_SIZE 1900
RESOLUTION_X 72
RESOLUTION_Y 72
SPACING "P"
AVERAGE_WIDTH 678
CHARSET_REGISTRY "ISO10646"
CHARSET_ENCODING "1"
FONT_ASCENT 160
FONT_DESCENT 43
COPYRIGHT "Copyright Copr. 2001, Frantisek Storm, www.stormtype.com. All rights reserved."
_OTF_FONTFILE "Q:\font stuff\winfont\TeutonNormal.otf"
_OTF_PSNAME "TeutonNormal"
ENDPROPERTIES
CHARS 356
STARTCHAR 0020
ENCODING 32
SWIDTH 263 0
DWIDTH 50 0
BBX 0 0 0 0
BITMAP
ENDCHAR
STARTCHAR 0021
ENCODING 33
SWIDTH 210 0
DWIDTH 40 0
BBX 18 133 11 0
BITMAP
FFFFC0
FFFFC0
FFFFC0
FFFFC0
FFFFC0
FFFFC0
FFFFC0
FFFFC0
FFFFC0
FFFFC0
FFFFC0
FFFFC0
FFFFC0
FFFFC0
FFFFC0
FFFFC0
FFFFC0
FFFFC0
FFFFC0
FFFFC0
FFFFC0
FFFFC0
FFFFC0
FFFFC0
FFFFC0
FFFFC0
FFFFC0
FFFFC0
FFFFC0
FFFFC0
FFFFC0
FFFFC0
FFFFC0
FFFFC0
FFFFC0
FFFFC0
FFFFC0
FFFFC0
FFFFC0
FFFFC0
FFFFC0
FFFFC0
FFFFC0
FFFFC0
FFFFC0
FFFFC0
FFFFC0
FFFFC0
FFFFC0
FFFFC0
FFFFC0
FFFFC0
FFFFC0
FFFFC0
FFFFC0
FFFFC0
FFFFC0
FFFFC0
FFFFC0
FFFFC0
FFFFC0
FFFFC0
FFFFC0
FFFFC0
FFFFC0
FFFFC0
FFFFC0
FFFFC0
FFFFC0
FFFFC0
FFFFC0
FFFFC0
FFFFC0
FFFFC0
FFFFC0
FFFFC0
FFFFC0
FFFFC0
FFFFC0
FFFFC0
FFFFC0
FFFFC0
FFFFC0
FFFFC0
FFFFC0
FFFFC0
FFFFC0
FFFFC0
FFFFC0
FFFFC0
FFFFC0
FFFFC0
FFFFC0
FFFFC0
FFFFC0
FFFFC0
FFFFC0
FFFFC0
FFFFC0
FFFFC0
FFFFC0
FFFFC0
000000
000000
000000
000000
000000
000000
000000
000000
000000
000000
000000
000000
FFFFC0
FFFFC0
FFFFC0
FFFFC0
FFFFC0
FFFFC0
FFFFC0
FFFFC0
FFFFC0
FFFFC0
FFFFC0
FFFFC0
FFFFC0
FFFFC0
FFFFC0
FFFFC0
FFFFC0
FFFFC0
FFFFC0
ENDCHAR
STARTCHAR 0022
ENCODING 34
SWIDTH 315 0
DWIDTH 60 0
BBX 38 33 11 99
BITMAP
FFFC01FFFC
FFFC01FFFC
FFFC00FFFC
FFFC00FFFC
FFFC00FFFC
FFFC00FFFC
FFFC00FFFC
FFFC00FFFC
FFFC00FFFC
FFFC00FFFC
FFFC00FFFC
FFFC00FFFC
FFFC00FFFC
FFFC00FFFC
FFFC00FFFC
FFFC00FFFC
FFFC00FFFC
FFFC00FFFC
FFF800FFFC
FFF800FFFC
FFF800FFFC
FFF800FFFC
FFF8007FFC
FFF8007FFC
FFF8007FFC
FFF8007FFC
FFF8007FFC
FFF8007FFC
FFF8007FFC
FFF8007FFC
FFF8007FFC
FFF8007FFC
FFF8007FFC
ENDCHAR
STARTCHAR 0023
ENCODING 35
SWIDTH 531 0
DWIDTH 101 0
BBX 92 133 5 0
BITMAP
0000000FFFFC000000FFFF80
0000000FFFF8000001FFFF80
0000000FFFF8000001FFFF00
0000000FFFF8000001FFFF00
0000000FFFF8000001FFFF00
0000001FFFF8000001FFFF00
0000001FFFF0000001FFFF00
0000001FFFF0000003FFFF00
0000001FFFF0000003FFFE00
0000001FFFF0000003FFFE00
0000001FFFF0000003FFFE00
0000003FFFF0000003FFFE00
0000003FFFE0000003FFFE00
0000003FFFE0000007FFFC00
0000003FFFE0000007FFFC00
0000003FFFE0000007FFFC00
0000007FFFE0000007FFFC00
0000007FFFC0000007FFFC00
0000007FFFC000000FFFFC00
0000007FFFC000000FFFF800
0000007FFFC000000FFFF800
0000007FFFC000000FFFF800
000000FFFFC000000FFFF800
000000FFFF8000000FFFF800
000000FFFF8000001FFFF800
000000FFFF8000001FFFF000
000000FFFF8000001FFFF000
000001FFFF8000001FFFF000
000001FFFF0000001FFFF000
000001FFFF0000003FFFF000
000001FFFF0000003FFFE000
000001FFFF0000003FFFE000
000001FFFF0000003FFFE000
000003FFFF0000003FFFE000
000003FFFE0000003FFFE000
000003FFFE0000007FFFE000
000003FFFE0000007FFFC000
000003FFFE0000007FFFC000
00FFFFFFFFFFFFFFFFFFFFF0
00FFFFFFFFFFFFFFFFFFFFF0
00FFFFFFFFFFFFFFFFFFFFF0
00FFFFFFFFFFFFFFFFFFFFF0
00FFFFFFFFFFFFFFFFFFFFF0
00FFFFFFFFFFFFFFFFFFFFF0
00FFFFFFFFFFFFFFFFFFFFF0
00FFFFFFFFFFFFFFFFFFFFF0
00FFFFFFFFFFFFFFFFFFFFF0
00FFFFFFFFFFFFFFFFFFFFF0
00FFFFFFFFFFFFFFFFFFFFF0
00FFFFFFFFFFFFFFFFFFFFF0
00FFFFFFFFFFFFFFFFFFFFF0
00FFFFFFFFFFFFFFFFFFFFF0
00001FFFF0000003FFFE0000
00001FFFF0000003FFFE0000
00001FFFF0000003FFFE0000
00003FFFF0000003FFFE0000
00003FFFE0000003FFFE0000
00003FFFE0000007FFFE0000
00003FFFE0000007FFFC0000
00003FFFE0000007FFFC0000
00007FFFE0000007FFFC0000
00007FFFC0000007FFFC0000
00007FFFC000000FFFFC0000
00007FFFC000000FFFF80000
00007FFFC000000FFFF80000
00007FFFC000000FFFF80000
0000FFFFC000000FFFF80000
0000FFFF8000000FFFF80000
0000FFFF8000001FFFF80000
0000FFFF8000001FFFF00000
0000FFFF8000001FFFF00000
0000FFFF8000001FFFF00000
0001FFFF8000001FFFF00000
0001FFFF0000001FFFF00000
0001FFFF0000003FFFE00000
0001FFFF0000003FFFE00000
0001FFFF0000003FFFE00000
0003FFFF0000003FFFE00000
0003FFFE0000003FFFE00000
0003FFFE0000007FFFE00000
0003FFFE0000007FFFC00000
0003FFFE0000007FFFC00000
0003FFFE0000007FFFC00000
0007FFFE0000007FFFC00000
0007FFFC0000007FFFC00000
0007FFFC000000FFFFC00000
0007FFFC000000FFFF800000
FFFFFFFFFFFFFFFFFFFFF000
FFFFFFFFFFFFFFFFFFFFF000
FFFFFFFFFFFFFFFFFFFFF000
FFFFFFFFFFFFFFFFFFFFF000
FFFFFFFFFFFFFFFFFFFFF000
FFFFFFFFFFFFFFFFFFFFF000
FFFFFFFFFFFFFFFFFFFFF000
FFFFFFFFFFFFFFFFFFFFF000
FFFFFFFFFFFFFFFFFFFFF000
FFFFFFFFFFFFFFFFFFFFF000
FFFFFFFFFFFFFFFFFFFFF000
FFFFFFFFFFFFFFFFFFFFF000
FFFFFFFFFFFFFFFFFFFFF000
FFFFFFFFFFFFFFFFFFFFF000
003FFFE0000007FFFC000000
003FFFE0000007FFFC000000
003FFFE0000007FFFC000000
003FFFE0000007FFFC000000
007FFFC0000007FFFC000000
007FFFC000000FFFF8000000
007FFFC000000FFFF8000000
007FFFC000000FFFF8000000
007FFFC000000FFFF8000000
00FFFF8000000FFFF8000000
00FFFF8000000FFFF8000000
00FFFF8000001FFFF0000000
00FFFF8000001FFFF0000000
00FFFF8000001FFFF0000000
00FFFF8000001FFFF0000000
01FFFF0000001FFFF0000000
01FFFF0000001FFFF0000000
01FFFF0000003FFFE0000000
01FFFF0000003FFFE0000000
01FFFF0000003FFFE0000000
01FFFF0000003FFFE0000000
03FFFE0000003FFFE0000000
03FFFE0000003FFFE0000000
03FFFE0000007FFFC0000000
03FFFE0000007FFFC0000000
03FFFE0000007FFFC0000000
03FFFE0000007FFFC0000000
07FFFC0000007FFFC0000000
07FFFC0000007FFFC0000000
07FFFC000000FFFF80000000
07FFFC000000FFFF80000000
07FFFC000000FFFF80000000
ENDCHAR
STARTCHAR 0024
ENCODING 36
SWIDTH 415 0
DWIDTH 79 0
BBX 58 133 10 0
BITMAP
000001FFFC000000
000001FFFC000000
000001FFFC000000
000001FFFC000000
000001FFFC000000
000001FFFC000000
000001FFFC000000
000001FFFC000000
000001FFFC000000
000001FFFC000000
000001FFFC000000
000001FFFC000000
000001FFFC000000
000001FFFC000000
000001FFFC000000
000001FFFC000000
000001FFFC000000
000001FFFC000000
000001FFFC000000
001FFFFFFFFFFFC0
00FFFFFFFFFFFFC0
03FFFFFFFFFFFFC0
07FFFFFFFFFFFFC0
0FFFFFFFFFFFFFC0
1FFFFFFFFFFFFFC0
3FFFFFFFFFFFFFC0
3FFFFFFFFFFFFFC0
7FFFFFFFFFFFFFC0
7FFFFFFFFFFFFFC0
7FFFFFFFFFFFFFC0
7FFFFFFFFFFFFFC0
FFFFFFFFFFFFFFC0
FFFFFFFFFFFFFFC0
FFFFFFFFFFFFFFC0
FFFFF000000001C0
FFFFC00000000000
FFFFC00000000000
FFFF800000000000
FFFF800000000000
FFFF800000000000
FFFF800000000000
FFFF800000000000
FFFF800000000000
FFFF800000000000
FFFF800000000000
FFFFC00000000000
FFFFC00000000000
FFFFF00000000000
FFFFF80000000000
7FFFFE0000000000
7FFFFF0000000000
7FFFFFC000000000
7FFFFFE000000000
3FFFFFF800000000
3FFFFFFE00000000
1FFFFFFF00000000
1FFFFFFFC0000000
0FFFFFFFE0000000
07FFFFFFF8000000
03FFFFFFFC000000
00FFFFFFFF000000
007FFFFFFFC00000
001FFFFFFFE00000
0007FFFFFFF80000
0003FFFFFFFC0000
0000FFFFFFFF0000
00003FFFFFFFC000
00001FFFFFFFE000
000007FFFFFFF800
000003FFFFFFFC00
000000FFFFFFFE00
0000007FFFFFFE00
0000001FFFFFFF00
00000007FFFFFF00
00000003FFFFFF80
00000000FFFFFF80
000000007FFFFF80
000000001FFFFFC0
0000000007FFFFC0
0000000003FFFFC0
0000000001FFFFC0
0000000000FFFFC0
00000000007FFFC0
00000000007FFFC0
00000000007FFFC0
00000000007FFFC0
00000000007FFFC0
00000000007FFFC0
00000000007FFFC0
00000000007FFFC0
00000000007FFFC0
00000000007FFFC0
00000000007FFFC0
00000000007FFFC0
00000000007FFFC0
00000000007FFFC0
0000000000FFFFC0
0000000000FFFFC0
E000000003FFFFC0
FFFFFFFFFFFFFFC0
FFFFFFFFFFFFFFC0
FFFFFFFFFFFFFFC0
FFFFFFFFFFFFFFC0
FFFFFFFFFFFFFF80
FFFFFFFFFFFFFF80
FFFFFFFFFFFFFF80
FFFFFFFFFFFFFF00
FFFFFFFFFFFFFF00
FFFFFFFFFFFFFE00
FFFFFFFFFFFFFE00
FFFFFFFFFFFFFC00
FFFFFFFFFFFFF000
FFFFFFFFFFFFE000
FFFFFFFFFFFF0000
000001FFFC000000
000001FFFC000000
000001FFFC000000
000001FFFC000000
000001FFFC000000
000001FFFC000000
000001FFFC000000
000001FFFC000000
000001FFFC000000
000001FFFC000000
000001FFFC000000
000001FFFC000000
000001FFFC000000
000001FFFC000000
000001FFFC000000
000001FFFC000000
000001FFFC000000
000001FFFC000000
000001FFFC000000
ENDCHAR
STARTCHAR 0025
ENCODING 37
SWIDTH 636 0
DWIDTH 121 0
BBX 103 133 9 0
BITMAP
0007FFFC00000000000FFFF800
003FFFFF80000000001FFFF000
00FFFFFFE0000000001FFFF000
03FFFFFFF8000000003FFFE000
07FFFFFFFC000000003FFFE000
0FFFFFFFFE000000007FFFC000
1FFFFFFFFF000000007FFFC000
1FFFFFFFFF00000000FFFF8000
3FFFFFFFFF80000000FFFF8000
3FFFFFFFFF80000001FFFF0000
7FFFFFFFFFC0000001FFFF0000
7FFFFFFFFFC0000003FFFE0000
7FFFFFFFFFC0000003FFFE0000
7FFF003FFFE0000007FFFC0000
FFFE000FFFE0000007FFFC0000
FFFC0007FFE000000FFFF80000
FFFC0007FFE000000FFFF80000
FFF80003FFE000001FFFF00000
FFF80003FFE000001FFFF00000
FFF80003FFE000003FFFE00000
FFF80003FFE000003FFFE00000
FFF80003FFE000007FFFC00000
FFF80003FFE000007FFFC00000
FFF80003FFE00000FFFF800000
FFF80003FFE00000FFFF800000
FFF80003FFE00001FFFF000000
FFF80003FFE00001FFFF000000
FFF80003FFE00003FFFE000000
FFF80003FFE00003FFFE000000
FFF80003FFE00007FFFC000000
FFF80003FFE00007FFFC000000
FFF80003FFE0000FFFF8000000
FFF80003FFE0000FFFF8000000
FFF80003FFE0001FFFF0000000
FFF80003FFE0001FFFF0000000
FFF80003FFE0003FFFE0000000
FFF80003FFE0003FFFE0000000
FFF80003FFE0007FFFC0000000
FFF80003FFE0007FFFC0000000
FFF80003FFE000FFFF80000000
FFF80003FFE000FFFF80000000
FFF80003FFE001FFFF00000000
FFF80003FFE001FFFF00000000
FFF80003FFE001FFFE00000000
FFF80003FFE003FFFE00000000
FFF80003FFE003FFFC00000000
FFF80003FFE007FFFC00000000
FFF80003FFE007FFF800000000
FFF80003FFE00FFFF800000000
FFFC0007FFE00FFFF000000000
FFFC0007FFE01FFFF000000000
FFFE000FFFE01FFFE000000000
7FFF803FFFC03FFFE000000000
7FFFFFFFFFC03FFFC000000000
7FFFFFFFFFC07FFFC000000000
7FFFFFFFFFC07FFF8000000000
3FFFFFFFFF80FFFF8000000000
3FFFFFFFFF80FFFF0000000000
1FFFFFFFFF01FFFF0000000000
1FFFFFFFFF01FFFE0000000000
0FFFFFFFFE03FFFE0000000000
07FFFFFFFC03FFFC0000000000
03FFFFFFF807FFFC0000000000
00FFFFFFE007FFF80000000000
003FFFFF800FFFF80000000000
0007FFFC000FFFF00000000000
00000000001FFFF00000000000
00000000001FFFE0007FFFC000
00000000003FFFE003FFFFF800
00000000003FFFC00FFFFFFE00
00000000007FFFC03FFFFFFF80
00000000007FFF807FFFFFFFC0
0000000000FFFF80FFFFFFFFE0
0000000000FFFF01FFFFFFFFF0
0000000001FFFF01FFFFFFFFF0
0000000001FFFE03FFFFFFFFF8
0000000003FFFE03FFFFFFFFF8
0000000003FFFC07FFFFFFFFFC
0000000007FFFC07FFFFFFFFFC
0000000007FFF807FFFFFFFFFC
000000000FFFF807FFF803FFFE
000000000FFFF00FFFE000FFFE
000000001FFFF00FFFC0007FFE
000000001FFFF00FFFC0007FFE
000000003FFFE00FFF80003FFE
000000003FFFE00FFF80003FFE
000000007FFFC00FFF80003FFE
000000007FFFC00FFF80003FFE
00000000FFFF800FFF80003FFE
00000000FFFF800FFF80003FFE
00000001FFFF000FFF80003FFE
00000001FFFF000FFF80003FFE
00000003FFFE000FFF80003FFE
00000003FFFE000FFF80003FFE
00000007FFFC000FFF80003FFE
00000007FFFC000FFF80003FFE
0000000FFFF8000FFF80003FFE
0000000FFFF8000FFF80003FFE
0000001FFFF0000FFF80003FFE
0000001FFFF0000FFF80003FFE
0000003FFFE0000FFF80003FFE
0000003FFFE0000FFF80003FFE
0000007FFFC0000FFF80003FFE
0000007FFFC0000FFF80003FFE
000000FFFF80000FFF80003FFE
000000FFFF80000FFF80003FFE
000001FFFF00000FFF80003FFE
000001FFFF00000FFF80003FFE
000003FFFE00000FFF80003FFE
000003FFFE00000FFF80003FFE
000007FFFC00000FFF80003FFE
000007FFFC00000FFF80003FFE
00000FFFF800000FFF80003FFE
00000FFFF800000FFF80003FFE
00001FFFF000000FFF80003FFE
00001FFFF000000FFF80003FFE
00003FFFE000000FFFC0007FFE
00003FFFE000000FFFC0007FFE
00007FFFC000000FFFE000FFFE
00007FFFC0000007FFF803FFFC
0000FFFF80000007FFFFFFFFFC
0000FFFF80000007FFFFFFFFFC
0001FFFF00000007FFFFFFFFFC
0001FFFF00000003FFFFFFFFF8
0003FFFE00000003FFFFFFFFF8
0003FFFE00000001FFFFFFFFF0
0007FFFC00000001FFFFFFFFF0
0007FFFC00000000FFFFFFFFE0
000FFFF8000000007FFFFFFFC0
000FFFF8000000003FFFFFFF80
001FFFF0000000000FFFFFFE00
001FFFF00000000003FFFFF800
003FFFE000000000007FFFC000
ENDCHAR
STARTCHAR 0026
ENCODING 38
SWIDTH 668 0
DWIDTH 127 0
BBX 107 133 13 0
BITMAP
0001FFFFFFFFFFFFFC0000000000
001FFFFFFFFFFFFFFC0000000000
007FFFFFFFFFFFFFFC0000000000
01FFFFFFFFFFFFFFFC0000000000
03FFFFFFFFFFFFFFFC0000000000
07FFFFFFFFFFFFFFFC0000000000
0FFFFFFFFFFFFFFFFC0000000000
0FFFFFFFFFFFFFFFFC0000000000
1FFFFFFFFFFFFFFFFC0000000000
3FFFFFFFFFFFFFFFFC0000000000
3FFFFFFFFFFFFFFFFC0000000000
3FFFFFFFFFFFFFFFFC0000000000
7FFFFFFFFFFFFFFFFC0000000000
7FFFFFFFFFFFFFFFFC0000000000
7FFFFFFFFFFFFFFFFC0000000000
FFFFFFFFFFFFFFFFFC0000000000
FFFFFFFFFFFFFFFFFC0000000000
FFFFF80000000000000000000000
FFFFF00000000000000000000000
FFFFF00000000000000000000000
FFFFE00000000000000000000000
FFFFE00000000000000000000000
FFFFE00000000000000000000000
FFFFE00000000000000000000000
FFFFE00000000000000000000000
FFFFE00000000000000000000000
FFFFE00000000000000000000000
FFFFE00000000000000000000000
FFFFE00000000000000000000000
FFFFE00000000000000000000000
FFFFE00000000000000000000000
FFFFE00000000000000000000000
FFFFE00000000000000000000000
FFFFE00000000000000000000000
FFFFE00000000000000004000000
FFFFE0000000000000000C000000
FFFFE0000000000000003C000000
FFFFE0000000000000007C000000
FFFFE000000000000000FC000000
FFFFE000000000000001FC000000
FFFFE000000000000007FC000000
7FFFE00000000000000FFC000000
7FFFE00000000000001FFC000000
7FFFE00000000000003FFC000000
3FFFF0000000000000FFFC000000
3FFFF0000000000001FFFC000000
3FFFF8000000000003FFFC000000
1FFFFE000000000007FFFC000000
0FFFFFFFFFFFFFFFFFFFFFFFFFE0
07FFFFFFFFFFFFFFFFFFFFFFFFE0
03FFFFFFFFFFFFFFFFFFFFFFFFE0
01FFFFFFFFFFFFFFFFFFFFFFFFE0
007FFFFFFFFFFFFFFFFFFFFFFFE0
000FFFFFFFFFFFFFFFFFFFFFFFE0
00003FFFFFFFFFFFFFFFFFFFFFE0
0007FFFFFFFFFFFFFFFFFFFFFFE0
003FFFFFFFFFFFFFFFFFFFFFFFE0
00FFFFFFFFFFFFFFFFFFFFFFFFE0
01FFFFFFFFFFFFFFFFFFFFFFFFE0
07FFFFFFFFFFFFFFFFFFFFFFFFE0
0FFFFFFFFFFFFFFFFFFFFFFFFFE0
0FFFFFFFFFFFFFFFFFFFFFFFFFE0
1FFFFFFFFFFFFFFFFFFFFFFFFFE0
3FFFFE00000000000FFFFC000000
3FFFF800000000000FFFFC000000
7FFFF000000000000FFFFC000000
7FFFF000000000000FFFFC000000
7FFFE000000000000FFFFC000000
7FFFE000000000000FFFFC000000
FFFFE000000000000FFFFC000000
FFFFE000000000000FFFFC000000
FFFFE000000000000FFFFC000000
FFFFE000000000000FFFFC000000
FFFFE000000000000FFFFC000000
FFFFE000000000000FFFFC000000
FFFFE000000000000FFFFC000000
FFFFE000000000000FFFFC000000
FFFFE000000000000FFFFC000000
FFFFE000000000000FFFFC000000
FFFFE000000000000FFFFC000000
FFFFE000000000000FFFFC000000
FFFFE000000000000FFFFC000000
FFFFE000000000000FFFFC000000
FFFFE000000000000FFFFC000000
FFFFE000000000000FFFFC000000
FFFFE000000000000FFFFC000000
FFFFE000000000000FFFFC000000
FFFFE000000000000FFFFC000000
FFFFE000000000000FFFFC000000
FFFFE000000000000FFFFC000000
FFFFE000000000000FFFFC000000
FFFFE000000000000FFFFC000000
FFFFE000000000000FFFFC000000
FFFFE000000000000FFFFC000000
FFFFE000000000000FFFFC000000
FFFFE000000000000FFFFC000000
FFFFE000000000000FFFFC000000
FFFFE000000000000FFFFC000000
FFFFE000000000000FFFFC000000
FFFFE000000000000FFFFC000000
FFFFE000000000000FFFFC000000
FFFFE000000000000FFFFC000000
FFFFE000000000000FFFFC000000
FFFFE000000000000FFFFC000000
FFFFE000000000000FFFFC000000
FFFFE000000000000FFFFC000000
FFFFE000000000000FFFFC000000
FFFFE000000000000FFFFC000000
FFFFE000000000000FFFFC000000
FFFFE000000000000FFFFC000000
FFFFE000000000000FFFFC000000
FFFFE000000000000FFFFC000000
FFFFE000000000000FFFFC000000
FFFFF000000000000FFFFC000000
FFFFF000000000000FFFFE000000
FFFFF800000000000FFFFE000020
FFFFFE00000001800FFFFF8000E0
FFFFFFFFFFFFFF800FFFFFFFFFE0
7FFFFFFFFFFFFF800FFFFFFFFFE0
7FFFFFFFFFFFFF8007FFFFFFFFE0
7FFFFFFFFFFFFF8007FFFFFFFFE0
7FFFFFFFFFFFFF8007FFFFFFFFE0
3FFFFFFFFFFFFF8007FFFFFFFFE0
3FFFFFFFFFFFFF8003FFFFFFFFE0
1FFFFFFFFFFFFF8003FFFFFFFFE0
1FFFFFFFFFFFFF8001FFFFFFFFE0
0FFFFFFFFFFFFF8000FFFFFFFFE0
07FFFFFFFFFFFF8000FFFFFFFFE0
03FFFFFFFFFFFF80007FFFFFFFE0
01FFFFFFFFFFFF80003FFFFFFFE0
007FFFFFFFFFFF80000FFFFFFFE0
001FFFFFFFFFFF800003FFFFFFE0
0001FFFFFFFFFF8000003FFFFFE0
ENDCHAR
STARTCHAR 0027
ENCODING 39
SWIDTH 205 0
DWIDTH 39 0
BBX 15 32 11 101
BITMAP
FFFE
FFFE
FFFE
FFFE
FFFE
FFFE
FFFE
FFFE
FFFE
FFFE
FFFE
FFFE
FFFE
FFFE
FFFE
FFFE
FFFE
FFFE
FFFE
FFFE
FFFE
FFFE
FFFE
FFFE
FFFE
FFFE
FFFE
FFFE
FFFE
FFFE
FFFE
FFFE
ENDCHAR
STARTCHAR 0028
ENCODING 40
SWIDTH 315 0
DWIDTH 60 0
BBX 39 171 13 -38
BITMAP
00000007FE
000003FFFE
00003FFFFE
0000FFFFFE
0007FFFFFE
000FFFFFFE
003FFFFFFE
007FFFFFFE
00FFFFFFFE
01FFFFFFFE
03FFFFFFFE
07FFFFFFFE
07FFFFFFFE
0FFFFFFFFE
0FFFFFFFFE
1FFFFFFFFE
1FFFFFFF00
3FFFFFC000
3FFFFF0000
3FFFFC0000
7FFFF80000
7FFFF00000
7FFFF00000
7FFFE00000
7FFFE00000
7FFFE00000
FFFFC00000
FFFFC00000
FFFFC00000
FFFFC00000
FFFFC00000
FFFFC00000
FFFFC00000
FFFFC00000
FFFFC00000
FFFFC00000
FFFFC00000
FFFFC00000
FFFFC00000
FFFFC00000
FFFFC00000
FFFFC00000
FFFFC00000
FFFFC00000
FFFFC00000
FFFFC00000
FFFFC00000
FFFFC00000
FFFFC00000
FFFFC00000
FFFFC00000
FFFFC00000
FFFFC00000
FFFFC00000
FFFFC00000
FFFFC00000
FFFFC00000
FFFFC00000
FFFFC00000
FFFFC00000
FFFFC00000
FFFFC00000
FFFFC00000
FFFFC00000
FFFFC00000
FFFFC00000
FFFFC00000
FFFFC00000
FFFFC00000
FFFFC00000
FFFFC00000
FFFFC00000
FFFFC00000
FFFFC00000
FFFFC00000
FFFFC00000
FFFFC00000
FFFFC00000
FFFFC00000
FFFFC00000
FFFFC00000
FFFFC00000
FFFFC00000
FFFFC00000
FFFFC00000
FFFFC00000
FFFFC00000
FFFFC00000
FFFFC00000
FFFFC00000
FFFFC00000
FFFFC00000
FFFFC00000
FFFFC00000
FFFFC00000
FFFFC00000
FFFFC00000
FFFFC00000
FFFFC00000
FFFFC00000
FFFFC00000
FFFFC00000
FFFFC00000
FFFFC00000
FFFFC00000
FFFFC00000
FFFFC00000
FFFFC00000
FFFFC00000
FFFFC00000
FFFFC00000
FFFFC00000
FFFFC00000
FFFFC00000
FFFFC00000
FFFFC00000
FFFFC00000
FFFFC00000
FFFFC00000
FFFFC00000
FFFFC00000
FFFFC00000
FFFFC00000
FFFFC00000
FFFFC00000
FFFFC00000
FFFFC00000
FFFFC00000
FFFFC00000
FFFFC00000
FFFFC00000
FFFFC00000
FFFFC00000
FFFFC00000
FFFFC00000
FFFFC00000
FFFFC00000
FFFFC00000
FFFFC00000
FFFFC00000
FFFFC00000
FFFFC00000
FFFFC00000
FFFFC00000
FFFFC00000
FFFFE00000
7FFFE00000
7FFFE00000
7FFFF00000
7FFFF00000
7FFFF80000
3FFFFC0000
3FFFFF0000
3FFFFFC000
1FFFFFF800
1FFFFFFFFE
1FFFFFFFFE
0FFFFFFFFE
0FFFFFFFFE
07FFFFFFFE
03FFFFFFFE
01FFFFFFFE
00FFFFFFFE
007FFFFFFE
003FFFFFFE
000FFFFFFE
0007FFFFFE
0001FFFFFE
00003FFFFE
000003FFFE
0000000FFE
ENDCHAR
STARTCHAR 0029
ENCODING 41
SWIDTH 315 0
DWIDTH 60 0
BBX 39 171 8 -38
BITMAP
FFE0000000
FFFF800000
FFFFF80000
FFFFFF0000
FFFFFFC000
FFFFFFF000
FFFFFFF800
FFFFFFFC00
FFFFFFFE00
FFFFFFFF00
FFFFFFFF80
FFFFFFFFC0
FFFFFFFFC0
FFFFFFFFE0
FFFFFFFFF0
FFFFFFFFF0
01FFFFFFF0
0007FFFFF8
0001FFFFF8
00007FFFF8
00003FFFFC
00001FFFFC
00001FFFFC
00000FFFFC
00000FFFFC
00000FFFFE
000007FFFE
000007FFFE
000007FFFE
000007FFFE
000007FFFE
000007FFFE
000007FFFE
000007FFFE
000007FFFE
000007FFFE
000007FFFE
000007FFFE
000007FFFE
000007FFFE
000007FFFE
000007FFFE
000007FFFE
000007FFFE
000007FFFE
000007FFFE
000007FFFE
000007FFFE
000007FFFE
000007FFFE
000007FFFE
000007FFFE
000007FFFE
000007FFFE
000007FFFE
000007FFFE
000007FFFE
000007FFFE
000007FFFE
000007FFFE
000007FFFE
000007FFFE
000007FFFE
000007FFFE
000007FFFE
000007FFFE
000007FFFE
000007FFFE
000007FFFE
000007FFFE
000007FFFE
000007FFFE
000007FFFE
000007FFFE
000007FFFE
000007FFFE
000007FFFE
000007FFFE
000007FFFE
000007FFFE
000007FFFE
000007FFFE
000007FFFE
000007FFFE
000007FFFE
000007FFFE
000007FFFE
000007FFFE
000007FFFE
000007FFFE
000007FFFE
000007FFFE
000007FFFE
000007FFFE
000007FFFE
000007FFFE
000007FFFE
000007FFFE
000007FFFE
000007FFFE
000007FFFE
000007FFFE
000007FFFE
000007FFFE
000007FFFE
000007FFFE
000007FFFE
000007FFFE
000007FFFE
000007FFFE
000007FFFE
000007FFFE
000007FFFE
000007FFFE
000007FFFE
000007FFFE
000007FFFE
000007FFFE
000007FFFE
000007FFFE
000007FFFE
000007FFFE
000007FFFE
000007FFFE
000007FFFE
000007FFFE
000007FFFE
000007FFFE
000007FFFE
000007FFFE
000007FFFE
000007FFFE
000007FFFE
000007FFFE
000007FFFE
000007FFFE
000007FFFE
000007FFFE
000007FFFE
000007FFFE
000007FFFE
000007FFFE
000007FFFE
000007FFFE
000007FFFE
00000FFFFE
00000FFFFC
00000FFFFC
00001FFFFC
00001FFFFC
00003FFFFC
00007FFFFC
0000FFFFF8
0003FFFFF8
003FFFFFF8
FFFFFFFFF0
FFFFFFFFF0
FFFFFFFFE0
FFFFFFFFE0
FFFFFFFFC0
FFFFFFFF80
FFFFFFFF00
FFFFFFFE00
FFFFFFFC00
FFFFFFF800
FFFFFFE000
FFFFFFC000
FFFFFE0000
FFFFF80000
FFFF800000
FFC0000000
ENDCHAR
STARTCHAR 002A
ENCODING 42
SWIDTH 436 0
DWIDTH 83 0
BBX 62 58 11 74
BITMAP
000000FFFC000000
000000FFFC000000
000000FFFC000000
0000007FFC000000
0000007FFC000000
0000007FF8000000
0000007FF8000000
0000007FF8000000
0000007FF8000000
0000007FF8000000
0000007FF8000000
0000007FF8000000
0000007FF8000000
0000007FF8000000
0800007FF8000040
0E00007FF80001C0
0FC0003FF8000FC0
1FF0003FF8003FE0
1FFC003FF801FFE0
1FFF803FF007FFE0
3FFFE03FF01FFFF0
3FFFFC3FF0FFFFF0
3FFFFF3FF3FFFFF0
7FFFFFFFFFFFFFF8
7FFFFFFFFFFFFFF8
7FFFFFFFFFFFFFF8
FFFFFFFFFFFFFFFC
7FFFFFFFFFFFFFF8
03FFFFFFFFFFFF80
003FFFFFFFFFF000
0003FFFFFFFF0000
00003FFFFFF00000
000003FFFF000000
000003FFFF000000
000007FFFF800000
000007FFFFC00000
00000FFFFFE00000
00001FFFFFE00000
00003FFFFFF00000
00007FFCFFF80000
0000FFFCFFFC0000
0001FFF87FFE0000
0001FFF87FFF0000
0003FFF03FFF8000
0007FFE01FFF8000
000FFFE01FFFC000
001FFFC00FFFE000
003FFFC007FFF000
007FFF8007FFF800
007FFF0003FFFC00
00FFFF0003FFFC00
007FFE0001FFF800
001FFE0000FFE000
000FFC0000FFC000
0003F800007F8000
0001F800007E0000
0000F000003C0000
0000200000100000
ENDCHAR
STARTCHAR 002B
ENCODING 43
SWIDTH 468 0
DWIDTH 89 0
BBX 67 67 10 21
BITMAP
0000001FFF80000000
0000001FFF80000000
0000001FFF80000000
0000001FFF80000000
0000001FFF80000000
0000001FFF80000000
0000001FFF80000000
0000001FFF80000000
0000001FFF80000000
0000001FFF80000000
0000001FFF80000000
0000001FFF80000000
0000001FFF80000000
0000001FFF80000000
0000001FFF80000000
0000001FFF80000000
0000001FFF80000000
0000001FFF80000000
0000001FFF80000000
0000001FFF80000000
0000001FFF80000000
0000001FFF80000000
0000001FFF80000000
0000001FFF80000000
0000001FFF80000000
0000001FFF80000000
0000001FFF80000000
FFFFFFFFFFFFFFFFE0
FFFFFFFFFFFFFFFFE0
FFFFFFFFFFFFFFFFE0
FFFFFFFFFFFFFFFFE0
FFFFFFFFFFFFFFFFE0
FFFFFFFFFFFFFFFFE0
FFFFFFFFFFFFFFFFE0
FFFFFFFFFFFFFFFFE0
FFFFFFFFFFFFFFFFE0
FFFFFFFFFFFFFFFFE0
FFFFFFFFFFFFFFFFE0
FFFFFFFFFFFFFFFFE0
FFFFFFFFFFFFFFFFE0
FFFFFFFFFFFFFFFFE0
0000001FFF80000000
0000001FFF80000000
0000001FFF80000000
0000001FFF80000000
0000001FFF80000000
0000001FFF80000000
0000001FFF80000000
0000001FFF80000000
0000001FFF80000000
0000001FFF80000000
0000001FFF80000000
0000001FFF80000000
0000001FFF80000000
0000001FFF80000000
0000001FFF80000000
0000001FFF80000000
0000001FFF80000000
0000001FFF80000000
0000001FFF80000000
0000001FFF80000000
0000001FFF80000000
0000001FFF80000000
0000001FFF80000000
0000001FFF80000000
0000001FFF80000000
0000001FFF80000000
ENDCHAR
STARTCHAR 002C
ENCODING 44
SWIDTH 215 0
DWIDTH 41 0
BBX 24 47 6 -28
BITMAP
01FFFF
01FFFF
01FFFF
01FFFF
01FFFF
01FFFF
01FFFF
01FFFF
01FFFF
01FFFF
01FFFF
01FFFF
01FFFF
01FFFF
01FFFF
01FFFF
01FFFF
01FFFF
03FFFE
03FFFE
03FFFE
03FFFE
03FFFC
07FFFC
07FFFC
07FFF8
07FFF8
0FFFF8
0FFFF0
0FFFF0
0FFFF0
1FFFF0
1FFFE0
1FFFE0
1FFFE0
3FFFC0
3FFFC0
3FFFC0
3FFF80
3FFF80
7FFF80
7FFF80
7FFF00
7FFF00
FFFF00
FFFE00
FFFE00
ENDCHAR
STARTCHAR 002D
ENCODING 45
SWIDTH 305 0
DWIDTH 58 0
BBX 37 15 10 48
BITMAP
FFFFFFFFF8
FFFFFFFFF8
FFFFFFFFF8
FFFFFFFFF8
FFFFFFFFF8
FFFFFFFFF8
FFFFFFFFF8
FFFFFFFFF8
FFFFFFFFF8
FFFFFFFFF8
FFFFFFFFF8
FFFFFFFFF8
FFFFFFFFF8
FFFFFFFFF8
FFFFFFFFF8
ENDCHAR
STARTCHAR 002E
ENCODING 46
SWIDTH 205 0
DWIDTH 39 0
BBX 18 19 10 0
BITMAP
FFFFC0
FFFFC0
FFFFC0
FFFFC0
FFFFC0
FFFFC0
FFFFC0
FFFFC0
FFFFC0
FFFFC0
FFFFC0
FFFFC0
FFFFC0
FFFFC0
FFFFC0
FFFFC0
FFFFC0
FFFFC0
FFFFC0
ENDCHAR
STARTCHAR 002F
ENCODING 47
SWIDTH 452 0
DWIDTH 86 0
BBX 85 171 1 -38
BITMAP
00000000000000007FFFF8
00000000000000007FFFF8
0000000000000000FFFFF0
0000000000000000FFFFF0
0000000000000000FFFFE0
0000000000000001FFFFE0
0000000000000001FFFFE0
0000000000000003FFFFC0
0000000000000003FFFFC0
0000000000000003FFFFC0
0000000000000007FFFF80
0000000000000007FFFF80
0000000000000007FFFF00
000000000000000FFFFF00
000000000000000FFFFF00
000000000000001FFFFE00
000000000000001FFFFE00
000000000000001FFFFC00
000000000000003FFFFC00
000000000000003FFFFC00
000000000000003FFFF800
000000000000007FFFF800
000000000000007FFFF800
00000000000000FFFFF000
00000000000000FFFFF000
00000000000000FFFFE000
00000000000001FFFFE000
00000000000001FFFFE000
00000000000003FFFFC000
00000000000003FFFFC000
00000000000003FFFF8000
00000000000007FFFF8000
00000000000007FFFF8000
00000000000007FFFF0000
0000000000000FFFFF0000
0000000000000FFFFF0000
0000000000001FFFFE0000
0000000000001FFFFE0000
0000000000001FFFFC0000
0000000000003FFFFC0000
0000000000003FFFFC0000
0000000000003FFFF80000
0000000000007FFFF80000
0000000000007FFFF80000
000000000000FFFFF00000
000000000000FFFFF00000
000000000000FFFFE00000
000000000001FFFFE00000
000000000001FFFFE00000
000000000003FFFFC00000
000000000003FFFFC00000
000000000003FFFF800000
000000000007FFFF800000
000000000007FFFF800000
000000000007FFFF000000
00000000000FFFFF000000
00000000000FFFFF000000
00000000001FFFFE000000
00000000001FFFFE000000
00000000001FFFFC000000
00000000003FFFFC000000
00000000003FFFFC000000
00000000007FFFF8000000
00000000007FFFF8000000
00000000007FFFF8000000
0000000000FFFFF0000000
0000000000FFFFF0000000
0000000000FFFFE0000000
0000000001FFFFE0000000
0000000001FFFFE0000000
0000000003FFFFC0000000
0000000003FFFFC0000000
0000000003FFFF80000000
0000000007FFFF80000000
0000000007FFFF80000000
0000000007FFFF00000000
000000000FFFFF00000000
000000000FFFFF00000000
000000001FFFFE00000000
000000001FFFFE00000000
000000001FFFFC00000000
000000003FFFFC00000000
000000003FFFFC00000000
000000007FFFF800000000
000000007FFFF800000000
000000007FFFF800000000
00000000FFFFF000000000
00000000FFFFF000000000
00000000FFFFE000000000
00000001FFFFE000000000
00000001FFFFE000000000
00000003FFFFC000000000
00000003FFFFC000000000
00000003FFFF8000000000
00000007FFFF8000000000
00000007FFFF8000000000
0000000FFFFF0000000000
0000000FFFFF0000000000
0000000FFFFF0000000000
0000001FFFFE0000000000
0000001FFFFE0000000000
0000001FFFFC0000000000
0000003FFFFC0000000000
0000003FFFFC0000000000
0000007FFFF80000000000
0000007FFFF80000000000
0000007FFFF80000000000
000000FFFFF00000000000
000000FFFFF00000000000
000000FFFFE00000000000
000001FFFFE00000000000
000001FFFFE00000000000
000003FFFFC00000000000
000003FFFFC00000000000
000003FFFF800000000000
000007FFFF800000000000
000007FFFF800000000000
00000FFFFF000000000000
00000FFFFF000000000000
00000FFFFF000000000000
00001FFFFE000000000000
00001FFFFE000000000000
00001FFFFC000000000000
00003FFFFC000000000000
00003FFFFC000000000000
00007FFFF8000000000000
00007FFFF8000000000000
00007FFFF8000000000000
0000FFFFF0000000000000
0000FFFFF0000000000000
0001FFFFE0000000000000
0001FFFFE0000000000000
0001FFFFE0000000000000
0003FFFFC0000000000000
0003FFFFC0000000000000
0003FFFF80000000000000
0007FFFF80000000000000
0007FFFF80000000000000
000FFFFF00000000000000
000FFFFF00000000000000
000FFFFF00000000000000
001FFFFE00000000000000
001FFFFE00000000000000
001FFFFC00000000000000
003FFFFC00000000000000
003FFFFC00000000000000
007FFFF800000000000000
007FFFF800000000000000
007FFFF800000000000000
00FFFFF000000000000000
00FFFFF000000000000000
01FFFFE000000000000000
01FFFFE000000000000000
01FFFFE000000000000000
03FFFFC000000000000000
03FFFFC000000000000000
03FFFF8000000000000000
07FFFF8000000000000000
07FFFF8000000000000000
0FFFFF0000000000000000
0FFFFF0000000000000000
0FFFFF0000000000000000
1FFFFE0000000000000000
1FFFFE0000000000000000
3FFFFC0000000000000000
3FFFFC0000000000000000
3FFFFC0000000000000000
7FFFF80000000000000000
7FFFF80000000000000000
7FFFF80000000000000000
FFFFF00000000000000000
ENDCHAR
STARTCHAR 0030
ENCODING 48
SWIDTH 521 0
DWIDTH 99 0
BBX 71 133 14 0
BITMAP
0001FFFFFFFFFF0000
001FFFFFFFFFFFF000
007FFFFFFFFFFFFC00
00FFFFFFFFFFFFFE00
03FFFFFFFFFFFFFF80
07FFFFFFFFFFFFFFC0
0FFFFFFFFFFFFFFFE0
0FFFFFFFFFFFFFFFE0
1FFFFFFFFFFFFFFFF0
3FFFFFFFFFFFFFFFF8
3FFFFFFFFFFFFFFFF8
3FFFFFFFFFFFFFFFF8
7FFFFFFFFFFFFFFFFC
7FFFFFFFFFFFFFFFFC
7FFFFFFFFFFFFFFFFC
7FFFFFFFFFFFFFFFFE
FFFFFFFFFFFFFFFFFE
FFFFF80000007FFFFE
FFFFF00000001FFFFE
FFFFE00000000FFFFE
FFFFE00000000FFFFE
FFFFC000000007FFFE
FFFFC000000007FFFE
FFFFC000000007FFFE
FFFFC000000007FFFE
FFFFC000000007FFFE
FFFFC000000007FFFE
FFFFC000000007FFFE
FFFFC000000007FFFE
FFFFC000000007FFFE
FFFFC000000007FFFE
FFFFC000000007FFFE
FFFFC000000007FFFE
FFFFC000000007FFFE
FFFFC000000007FFFE
FFFFC000000007FFFE
FFFFC000000007FFFE
FFFFC000000007FFFE
FFFFC000000007FFFE
FFFFC000000007FFFE
FFFFC000000007FFFE
FFFFC000000007FFFE
FFFFC000000007FFFE
FFFFC000000007FFFE
FFFFC000000007FFFE
FFFFC000000007FFFE
FFFFC000000007FFFE
FFFFC000000007FFFE
FFFFC000000007FFFE
FFFFC000000007FFFE
FFFFC000000007FFFE
FFFFC000000007FFFE
FFFFC000000007FFFE
FFFFC000000007FFFE
FFFFC000000007FFFE
FFFFC000000007FFFE
FFFFC000000007FFFE
FFFFC000000007FFFE
FFFFC000000007FFFE
FFFFC000000007FFFE
FFFFC000000007FFFE
FFFFC000000007FFFE
FFFFC000000007FFFE
FFFFC000000007FFFE
FFFFC000000007FFFE
FFFFC000000007FFFE
FFFFC000000007FFFE
FFFFC000000007FFFE
FFFFC000000007FFFE
FFFFC000000007FFFE
FFFFC000000007FFFE
FFFFC000000007FFFE
FFFFC000000007FFFE
FFFFC000000007FFFE
FFFFC000000007FFFE
FFFFC000000007FFFE
FFFFC000000007FFFE
FFFFC000000007FFFE
FFFFC000000007FFFE
FFFFC000000007FFFE
FFFFC000000007FFFE
FFFFC000000007FFFE
FFFFC000000007FFFE
FFFFC000000007FFFE
FFFFC000000007FFFE
FFFFC000000007FFFE
FFFFC000000007FFFE
FFFFC000000007FFFE
FFFFC000000007FFFE
FFFFC000000007FFFE
FFFFC000000007FFFE
FFFFC000000007FFFE
FFFFC000000007FFFE
FFFFC000000007FFFE
FFFFC000000007FFFE
FFFFC000000007FFFE
FFFFC000000007FFFE
FFFFC000000007FFFE
FFFFC000000007FFFE
FFFFC000000007FFFE
FFFFC000000007FFFE
FFFFC000000007FFFE
FFFFC000000007FFFE
FFFFC000000007FFFE
FFFFC000000007FFFE
FFFFC000000007FFFE
FFFFC000000007FFFE
FFFFC000000007FFFE
FFFFC000000007FFFE
FFFFC000000007FFFE
FFFFC000000007FFFE
FFFFC000000007FFFE
FFFFE00000000FFFFE
FFFFE00000000FFFFE
FFFFF00000001FFFFE
FFFFFC0000003FFFFE
FFFFFFFFFFFFFFFFFE
FFFFFFFFFFFFFFFFFE
7FFFFFFFFFFFFFFFFC
7FFFFFFFFFFFFFFFFC
7FFFFFFFFFFFFFFFFC
3FFFFFFFFFFFFFFFF8
3FFFFFFFFFFFFFFFF8
3FFFFFFFFFFFFFFFF8
1FFFFFFFFFFFFFFFF0
0FFFFFFFFFFFFFFFE0
0FFFFFFFFFFFFFFFE0
07FFFFFFFFFFFFFFC0
03FFFFFFFFFFFFFF80
01FFFFFFFFFFFFFE00
007FFFFFFFFFFFFC00
001FFFFFFFFFFFF000
0001FFFFFFFFFF0000
ENDCHAR
STARTCHAR 0031
ENCODING 49
SWIDTH 521 0
DWIDTH 99 0
BBX 66 137 18 1
BITMAP
000000000010000000
000000000070000000
0000000001F0000000
0000000003F0000000
000000000FF0000000
000000003FF0000000
000000007FF0000000
00000001FFF0000000
00000003FFF0000000
0000000FFFF0000000
0000003FFFF0000000
0000007FFFF0000000
000001FFFFF0000000
000007FFFFF0000000
00000FFFFFF0000000
00003FFFFFF0000000
00007FFFFFF0000000
0001FFFFFFF0000000
0007FFFFFFF0000000
000FFFFFFFF0000000
003FFFFFFFF0000000
00FFFFFFFFF0000000
01FFFFFFFFF0000000
07FFFFFFFFF0000000
0FFFFFFFFFF0000000
3FFFFFFFFFF0000000
FFFFFFFFFFF0000000
FFFFFFFFFFF0000000
FFFFFFFFFFF0000000
FFFFFFBFFFF0000000
FFFFFF3FFFF0000000
FFFFFC3FFFF0000000
FFFFF83FFFF0000000
FFFFE03FFFF0000000
FFFF803FFFF0000000
FFFF003FFFF0000000
FFFC003FFFF0000000
FFF8003FFFF0000000
FFE0003FFFF0000000
FFC0003FFFF0000000
FF00003FFFF0000000
FE00003FFFF0000000
F800003FFFF0000000
F000003FFFF0000000
C000003FFFF0000000
8000003FFFF0000000
0000003FFFF0000000
0000003FFFF0000000
0000003FFFF0000000
0000003FFFF0000000
0000003FFFF0000000
0000003FFFF0000000
0000003FFFF0000000
0000003FFFF0000000
0000003FFFF0000000
0000003FFFF0000000
0000003FFFF0000000
0000003FFFF0000000
0000003FFFF0000000
0000003FFFF0000000
0000003FFFF0000000
0000003FFFF0000000
0000003FFFF0000000
0000003FFFF0000000
0000003FFFF0000000
0000003FFFF0000000
0000003FFFF0000000
0000003FFFF0000000
0000003FFFF0000000
0000003FFFF0000000
0000003FFFF0000000
0000003FFFF0000000
0000003FFFF0000000
0000003FFFF0000000
0000003FFFF0000000
0000003FFFF0000000
0000003FFFF0000000
0000003FFFF0000000
0000003FFFF0000000
0000003FFFF0000000
0000003FFFF0000000
0000003FFFF0000000
0000003FFFF0000000
0000003FFFF0000000
0000003FFFF0000000
0000003FFFF0000000
0000003FFFF0000000
0000003FFFF0000000
0000003FFFF0000000
0000003FFFF0000000
0000003FFFF0000000
0000003FFFF0000000
0000003FFFF0000000
0000003FFFF0000000
0000003FFFF0000000
0000003FFFF0000000
0000003FFFF0000000
0000003FFFF0000000
0000003FFFF0000000
0000003FFFF0000000
0000003FFFF0000000
0000003FFFF0000000
0000003FFFF0000000
0000003FFFF0000000
0000003FFFF0000000
0000003FFFF0000000
0000003FFFF0000000
0000003FFFF0000000
0000003FFFF0000000
0000003FFFF0000000
0000003FFFF0000000
0000003FFFF0000000
0000003FFFF0000000
0000003FFFF0000000
0000003FFFF0000000
0000003FFFF0000000
0000003FFFF0000000
0000003FFFF0000000
0000003FFFF0000000
0000003FFFF0000000
0FFFFFFFFFFFFFFFC0
0FFFFFFFFFFFFFFFC0
0FFFFFFFFFFFFFFFC0
0FFFFFFFFFFFFFFFC0
0FFFFFFFFFFFFFFFC0
0FFFFFFFFFFFFFFFC0
0FFFFFFFFFFFFFFFC0
0FFFFFFFFFFFFFFFC0
0FFFFFFFFFFFFFFFC0
0FFFFFFFFFFFFFFFC0
0FFFFFFFFFFFFFFFC0
0FFFFFFFFFFFFFFFC0
0FFFFFFFFFFFFFFFC0
0FFFFFFFFFFFFFFFC0
0FFFFFFFFFFFFFFFC0
0FFFFFFFFFFFFFFFC0
0FFFFFFFFFFFFFFFC0
ENDCHAR
STARTCHAR 0032
ENCODING 50
SWIDTH 521 0
DWIDTH 99 0
BBX 70 133 15 0
BITMAP
FFFFFFFFFFFFFE0000
FFFFFFFFFFFFFFE000
FFFFFFFFFFFFFFF800
FFFFFFFFFFFFFFFC00
FFFFFFFFFFFFFFFF00
FFFFFFFFFFFFFFFF80
FFFFFFFFFFFFFFFFC0
FFFFFFFFFFFFFFFFC0
FFFFFFFFFFFFFFFFE0
FFFFFFFFFFFFFFFFF0
FFFFFFFFFFFFFFFFF0
FFFFFFFFFFFFFFFFF0
FFFFFFFFFFFFFFFFF8
FFFFFFFFFFFFFFFFF8
FFFFFFFFFFFFFFFFF8
FFFFFFFFFFFFFFFFFC
FFFFFFFFFFFFFFFFFC
C00000000000FFFFFC
0000000000003FFFFC
0000000000001FFFFC
0000000000001FFFFC
0000000000000FFFFC
0000000000000FFFFC
0000000000000FFFFC
0000000000000FFFFC
0000000000000FFFFC
0000000000000FFFFC
0000000000000FFFFC
0000000000000FFFFC
0000000000000FFFFC
0000000000000FFFFC
0000000000000FFFFC
0000000000000FFFFC
0000000000000FFFFC
0000000000000FFFFC
0000000000000FFFFC
0000000000000FFFFC
0000000000001FFFFC
0000000000001FFFFC
0000000000003FFFF8
0000000000007FFFF8
000000000000FFFFF8
000000000001FFFFF8
000000000003FFFFF0
00000000000FFFFFF0
00000000001FFFFFE0
00000000003FFFFFE0
00000000007FFFFFC0
0000000000FFFFFF80
0000000001FFFFFF80
0000000003FFFFFF00
0000000007FFFFFE00
000000001FFFFFFC00
000000003FFFFFF800
000000007FFFFFF000
00000000FFFFFFE000
00000001FFFFFF8000
00000003FFFFFF0000
00000007FFFFFE0000
0000001FFFFFFC0000
0000003FFFFFF80000
0000007FFFFFF00000
000000FFFFFFE00000
000001FFFFFF800000
000003FFFFFF000000
000007FFFFFE000000
00000FFFFFFC000000
00003FFFFFF8000000
00007FFFFFF0000000
0000FFFFFFE0000000
0001FFFFFF80000000
0003FFFFFF00000000
0007FFFFFE00000000
000FFFFFFC00000000
003FFFFFF800000000
007FFFFFF000000000
00FFFFFFE000000000
01FFFFFF8000000000
03FFFFFF0000000000
07FFFFFE0000000000
07FFFFFC0000000000
0FFFFFF80000000000
1FFFFFF00000000000
1FFFFFC00000000000
3FFFFF800000000000
3FFFFF000000000000
7FFFFE000000000000
7FFFFC000000000000
7FFFF8000000000000
7FFFF0000000000000
FFFFE0000000000000
FFFFE0000000000000
FFFFC0000000000000
FFFFC0000000000000
FFFFC0000000000000
FFFFC0000000000000
FFFFC0000000000000
FFFFC0000000000000
FFFFC0000000000000
FFFFC0000000000000
FFFFC0000000000000
FFFFC0000000000000
FFFFC0000000000000
FFFFC0000000000000
FFFFC0000000000000
FFFFC0000000000000
FFFFC0000000000000
FFFFC0000000000000
FFFFC0000000000000
FFFFC0000000000000
FFFFC0000000000000
FFFFC0000000000000
FFFFC0000000000000
FFFFC0000000000000
FFFFC0000000000000
FFFFC000000000000C
FFFFFFFFFFFFFFFFFC
FFFFFFFFFFFFFFFFFC
FFFFFFFFFFFFFFFFFC
FFFFFFFFFFFFFFFFFC
FFFFFFFFFFFFFFFFFC
FFFFFFFFFFFFFFFFFC
FFFFFFFFFFFFFFFFFC
FFFFFFFFFFFFFFFFFC
FFFFFFFFFFFFFFFFFC
FFFFFFFFFFFFFFFFFC
FFFFFFFFFFFFFFFFFC
FFFFFFFFFFFFFFFFFC
FFFFFFFFFFFFFFFFFC
FFFFFFFFFFFFFFFFFC
FFFFFFFFFFFFFFFFFC
FFFFFFFFFFFFFFFFFC
FFFFFFFFFFFFFFFFFC
ENDCHAR
STARTCHAR 0033
ENCODING 51
SWIDTH 521 0
DWIDTH 99 0
BBX 72 133 13 0
BITMAP
FFFFFFFFFFFFFF8000
FFFFFFFFFFFFFFF800
FFFFFFFFFFFFFFFE00
FFFFFFFFFFFFFFFF00
FFFFFFFFFFFFFFFFC0
FFFFFFFFFFFFFFFFE0
FFFFFFFFFFFFFFFFF0
FFFFFFFFFFFFFFFFF0
FFFFFFFFFFFFFFFFF8
FFFFFFFFFFFFFFFFFC
FFFFFFFFFFFFFFFFFC
FFFFFFFFFFFFFFFFFC
FFFFFFFFFFFFFFFFFE
FFFFFFFFFFFFFFFFFE
FFFFFFFFFFFFFFFFFE
FFFFFFFFFFFFFFFFFF
FFFFFFFFFFFFFFFFFF
8000000000003FFFFF
0000000000000FFFFF
00000000000007FFFF
00000000000007FFFF
00000000000003FFFF
00000000000003FFFF
00000000000003FFFF
00000000000003FFFF
00000000000003FFFF
00000000000003FFFF
00000000000003FFFF
00000000000003FFFF
00000000000003FFFF
00000000000003FFFF
00000000000003FFFF
00000000000003FFFF
00000000000003FFFF
00000000000003FFFF
00000000000003FFFF
00000000000003FFFF
00000000000003FFFF
00000000000003FFFF
00000000000003FFFF
00000000000003FFFF
00000000000003FFFF
00000000000003FFFF
00000000000003FFFF
00000000000003FFFF
00000000000003FFFF
00000000000003FFFF
00000000000003FFFF
00000000000003FFFE
00000000000003FFFE
00000000000003FFFE
00000000000007FFFE
00000000000007FFFC
0000000000000FFFFC
0000000000001FFFFC
0000000000003FFFF8
003FFFFFFFFFFFFFF0
003FFFFFFFFFFFFFF0
003FFFFFFFFFFFFFE0
003FFFFFFFFFFFFFC0
003FFFFFFFFFFFFF00
003FFFFFFFFFFFFE00
003FFFFFFFFFFFF000
003FFFFFFFFFFC0000
003FFFFFFFFFFFE000
003FFFFFFFFFFFFC00
003FFFFFFFFFFFFF00
003FFFFFFFFFFFFF80
003FFFFFFFFFFFFFE0
003FFFFFFFFFFFFFE0
003FFFFFFFFFFFFFF0
0000000000003FFFF8
0000000000001FFFF8
0000000000000FFFFC
00000000000007FFFC
00000000000007FFFE
00000000000003FFFE
00000000000003FFFE
00000000000003FFFE
00000000000003FFFF
00000000000003FFFF
00000000000003FFFF
00000000000003FFFF
00000000000003FFFF
00000000000003FFFF
00000000000003FFFF
00000000000003FFFF
00000000000003FFFF
00000000000003FFFF
00000000000003FFFF
00000000000003FFFF
00000000000003FFFF
00000000000003FFFF
00000000000003FFFF
00000000000003FFFF
00000000000003FFFF
00000000000003FFFF
00000000000003FFFF
00000000000003FFFF
00000000000003FFFF
00000000000003FFFF
00000000000003FFFF
00000000000003FFFF
00000000000003FFFF
00000000000003FFFF
00000000000003FFFF
00000000000003FFFF
00000000000003FFFF
00000000000003FFFF
00000000000003FFFF
00000000000003FFFF
00000000000003FFFF
00000000000007FFFF
00000000000007FFFF
0000000000000FFFFF
8000000000001FFFFF
FFFFFFFFFFFFFFFFFF
FFFFFFFFFFFFFFFFFF
FFFFFFFFFFFFFFFFFE
FFFFFFFFFFFFFFFFFE
FFFFFFFFFFFFFFFFFE
FFFFFFFFFFFFFFFFFC
FFFFFFFFFFFFFFFFFC
FFFFFFFFFFFFFFFFFC
FFFFFFFFFFFFFFFFF8
FFFFFFFFFFFFFFFFF0
FFFFFFFFFFFFFFFFF0
FFFFFFFFFFFFFFFFE0
FFFFFFFFFFFFFFFFC0
FFFFFFFFFFFFFFFF00
FFFFFFFFFFFFFFFE00
FFFFFFFFFFFFFFF800
FFFFFFFFFFFFFF8000
ENDCHAR
STARTCHAR 0034
ENCODING 52
SWIDTH 521 0
DWIDTH 99 0
BBX 85 133 8 0
BITMAP
000000000001FFFFC00000
000000000003FFFFC00000
000000000003FFFFC00000
000000000007FFFFC00000
000000000007FFFFC00000
00000000000FFFFFC00000
00000000000FFFFFC00000
00000000001FFFFFC00000
00000000003FFFFFC00000
00000000003FFFFFC00000
00000000007FFFFFC00000
00000000007FFFFFC00000
0000000000FFFFFFC00000
0000000000FFFFFFC00000
0000000001FFFFFFC00000
0000000001FFFFFFC00000
0000000003FFFFFFC00000
0000000003FFFFFFC00000
0000000007FFFFFFC00000
0000000007FFFFFFC00000
000000000FFFFFFFC00000
000000001FFFFFFFC00000
000000001FFFFFFFC00000
000000003FFFFFFFC00000
000000003FFFFFFFC00000
000000007FFFFFFFC00000
000000007FFF7FFFC00000
00000000FFFF7FFFC00000
00000000FFFE7FFFC00000
00000001FFFC7FFFC00000
00000001FFFC7FFFC00000
00000003FFF87FFFC00000
00000003FFF87FFFC00000
00000007FFF07FFFC00000
0000000FFFF07FFFC00000
0000000FFFE07FFFC00000
0000001FFFE07FFFC00000
0000001FFFC07FFFC00000
0000003FFF807FFFC00000
0000003FFF807FFFC00000
0000007FFF007FFFC00000
0000007FFF007FFFC00000
000000FFFE007FFFC00000
000000FFFE007FFFC00000
000001FFFC007FFFC00000
000001FFFC007FFFC00000
000003FFF8007FFFC00000
000007FFF0007FFFC00000
000007FFF0007FFFC00000
00000FFFE0007FFFC00000
00000FFFE0007FFFC00000
00001FFFC0007FFFC00000
00001FFFC0007FFFC00000
00003FFF80007FFFC00000
00003FFF80007FFFC00000
00007FFF00007FFFC00000
00007FFF00007FFFC00000
0000FFFE00007FFFC00000
0000FFFC00007FFFC00000
0001FFFC00007FFFC00000
0003FFF800007FFFC00000
0003FFF800007FFFC00000
0007FFF000007FFFC00000
0007FFF000007FFFC00000
000FFFE000007FFFC00000
000FFFE000007FFFC00000
001FFFC000007FFFC00000
001FFF8000007FFFC00000
003FFF8000007FFFC00000
003FFF0000007FFFC00000
007FFF0000007FFFC00000
007FFE0000007FFFC00000
00FFFE0000007FFFC00000
01FFFC0000007FFFC00000
01FFFC0000007FFFC00000
03FFF80000007FFFC00000
03FFF00000007FFFC00000
07FFF00000007FFFC00000
07FFE00000007FFFC00000
0FFFE00000007FFFC00000
0FFFC00000007FFFC00000
1FFFC00000007FFFC00000
1FFF800000007FFFC00000
3FFF800000007FFFC00008
3FFFFFFFFFFFFFFFFFFFF8
7FFFFFFFFFFFFFFFFFFFF8
FFFFFFFFFFFFFFFFFFFFF8
FFFFFFFFFFFFFFFFFFFFF8
FFFFFFFFFFFFFFFFFFFFF8
FFFFFFFFFFFFFFFFFFFFF8
FFFFFFFFFFFFFFFFFFFFF8
FFFFFFFFFFFFFFFFFFFFF8
FFFFFFFFFFFFFFFFFFFFF8
FFFFFFFFFFFFFFFFFFFFF8
FFFFFFFFFFFFFFFFFFFFF8
FFFFFFFFFFFFFFFFFFFFF8
FFFFFFFFFFFFFFFFFFFFF8
FFFFFFFFFFFFFFFFFFFFF8
FFFFFFFFFFFFFFFFFFFFF8
FFFFFFFFFFFFFFFFFFFFF8
0000000000007FFFC00008
0000000000007FFFC00000
0000000000007FFFC00000
0000000000007FFFC00000
0000000000007FFFC00000
0000000000007FFFC00000
0000000000007FFFC00000
0000000000007FFFC00000
0000000000007FFFC00000
0000000000007FFFC00000
0000000000007FFFC00000
0000000000007FFFC00000
0000000000007FFFC00000
0000000000007FFFC00000
0000000000007FFFC00000
0000000000007FFFC00000
0000000000007FFFC00000
0000000000007FFFC00000
0000000000007FFFC00000
0000000000007FFFC00000
0000000000007FFFC00000
0000000000007FFFC00000
0000000000007FFFC00000
0000000000007FFFC00000
0000000000007FFFC00000
0000000000007FFFC00000
0000000000007FFFC00000
0000000000007FFFC00000
0000000000007FFFC00000
0000000000007FFFC00000
0000000000007FFFC00000
0000000000007FFFC00000
0000000000007FFFC00000
ENDCHAR
STARTCHAR 0035
ENCODING 53
SWIDTH 521 0
DWIDTH 99 0
BBX 71 133 14 0
BITMAP
FFFFFFFFFFFFFFFFFE
FFFFFFFFFFFFFFFFFE
FFFFFFFFFFFFFFFFFE
FFFFFFFFFFFFFFFFFE
FFFFFFFFFFFFFFFFFE
FFFFFFFFFFFFFFFFFE
FFFFFFFFFFFFFFFFFE
FFFFFFFFFFFFFFFFFE
FFFFFFFFFFFFFFFFFE
FFFFFFFFFFFFFFFFFE
FFFFFFFFFFFFFFFFFE
FFFFFFFFFFFFFFFFFE
FFFFFFFFFFFFFFFFFE
FFFFFFFFFFFFFFFFFE
FFFFFFFFFFFFFFFFFE
FFFFFFFFFFFFFFFFFE
FFFFFFFFFFFFFFFFFE
FFFFC0000000000002
FFFFC0000000000000
FFFFC0000000000000
FFFFC0000000000000
FFFFC0000000000000
FFFFC0000000000000
FFFFC0000000000000
FFFFC0000000000000
FFFFC0000000000000
FFFFC0000000000000
FFFFC0000000000000
FFFFC0000000000000
FFFFC0000000000000
FFFFC0000000000000
FFFFC0000000000000
FFFFC0000000000000
FFFFC0000000000000
FFFFC0000000000000
FFFFC0000000000000
FFFFC0000000000000
FFFFC0000000000000
FFFFC0000000000000
FFFFC0000000000000
FFFFC0000000000000
FFFFC0000000000000
FFFFC0000000000000
FFFFC0000000000000
FFFFC0000000000000
FFFFC0000000000000
FFFFC0000000000000
FFFFC0000000000000
FFFFC0000000000000
FFFFC0000000000000
FFFFC0000000000000
FFFFC0000000000000
FFFFC0000000000000
FFFFC0000000000000
FFFFC0000000000000
FFFFC0000000000000
FFFFFFFFFFFFFF0000
FFFFFFFFFFFFFFF000
FFFFFFFFFFFFFFFC00
FFFFFFFFFFFFFFFF00
FFFFFFFFFFFFFFFF80
FFFFFFFFFFFFFFFFC0
FFFFFFFFFFFFFFFFE0
FFFFFFFFFFFFFFFFF0
FFFFFFFFFFFFFFFFF0
FFFFFFFFFFFFFFFFF8
FFFFFFFFFFFFFFFFF8
FFFFFFFFFFFFFFFFFC
FFFFFFFFFFFFFFFFFC
FFFFFFFFFFFFFFFFFC
FFFFFFFFFFFFFFFFFC
0000000000007FFFFE
0000000000001FFFFE
0000000000000FFFFE
0000000000000FFFFE
00000000000007FFFE
00000000000007FFFE
00000000000007FFFE
00000000000007FFFE
00000000000007FFFE
00000000000007FFFE
00000000000007FFFE
00000000000007FFFE
00000000000007FFFE
00000000000007FFFE
00000000000007FFFE
00000000000007FFFE
00000000000007FFFE
00000000000007FFFE
00000000000007FFFE
00000000000007FFFE
00000000000007FFFE
00000000000007FFFE
00000000000007FFFE
00000000000007FFFE
00000000000007FFFE
00000000000007FFFE
00000000000007FFFE
00000000000007FFFE
00000000000007FFFE
00000000000007FFFE
00000000000007FFFE
00000000000007FFFE
00000000000007FFFE
00000000000007FFFE
00000000000007FFFE
00000000000007FFFE
00000000000007FFFE
00000000000007FFFE
00000000000007FFFE
00000000000007FFFE
00000000000007FFFE
0000000000000FFFFE
0000000000000FFFFE
0000000000001FFFFE
C000000000003FFFFE
FFFFFFFFFFFFFFFFFE
FFFFFFFFFFFFFFFFFE
FFFFFFFFFFFFFFFFFC
FFFFFFFFFFFFFFFFFC
FFFFFFFFFFFFFFFFFC
FFFFFFFFFFFFFFFFFC
FFFFFFFFFFFFFFFFF8
FFFFFFFFFFFFFFFFF8
FFFFFFFFFFFFFFFFF0
FFFFFFFFFFFFFFFFF0
FFFFFFFFFFFFFFFFE0
FFFFFFFFFFFFFFFFC0
FFFFFFFFFFFFFFFF80
FFFFFFFFFFFFFFFF00
FFFFFFFFFFFFFFFC00
FFFFFFFFFFFFFFF000
FFFFFFFFFFFFFF0000
ENDCHAR
STARTCHAR 0036
ENCODING 54
SWIDTH 521 0
DWIDTH 99 0
BBX 71 133 14 0
BITMAP
0001FFFFFFFFFFFFFE
000FFFFFFFFFFFFFFE
007FFFFFFFFFFFFFFE
00FFFFFFFFFFFFFFFE
03FFFFFFFFFFFFFFFE
07FFFFFFFFFFFFFFFE
0FFFFFFFFFFFFFFFFE
0FFFFFFFFFFFFFFFFE
1FFFFFFFFFFFFFFFFE
1FFFFFFFFFFFFFFFFE
3FFFFFFFFFFFFFFFFE
3FFFFFFFFFFFFFFFFE
7FFFFFFFFFFFFFFFFE
7FFFFFFFFFFFFFFFFE
7FFFFFFFFFFFFFFFFE
7FFFFFFFFFFFFFFFFE
FFFFFFFFFFFFFFFFFE
FFFFF8000000000002
FFFFF0000000000000
FFFFE0000000000000
FFFFE0000000000000
FFFFC0000000000000
FFFFC0000000000000
FFFFC0000000000000
FFFFC0000000000000
FFFFC0000000000000
FFFFC0000000000000
FFFFC0000000000000
FFFFC0000000000000
FFFFC0000000000000
FFFFC0000000000000
FFFFC0000000000000
FFFFC0000000000000
FFFFC0000000000000
FFFFC0000000000000
FFFFC0000000000000
FFFFC0000000000000
FFFFC0000000000000
FFFFC0000000000000
FFFFC0000000000000
FFFFC0000000000000
FFFFC0000000000000
FFFFC0000000000000
FFFFC0000000000000
FFFFC0000000000000
FFFFC0000000000000
FFFFC0000000000000
FFFFC0000000000000
FFFFC0000000000000
FFFFC0000000000000
FFFFC0000000000000
FFFFC0000000000000
FFFFC0000000000000
FFFFC0000000000000
FFFFC0000000000000
FFFFC0000000000000
FFFFFFFFFFFFFF0000
FFFFFFFFFFFFFFF000
FFFFFFFFFFFFFFFC00
FFFFFFFFFFFFFFFF00
FFFFFFFFFFFFFFFF80
FFFFFFFFFFFFFFFFC0
FFFFFFFFFFFFFFFFE0
FFFFFFFFFFFFFFFFF0
FFFFFFFFFFFFFFFFF0
FFFFFFFFFFFFFFFFF8
FFFFFFFFFFFFFFFFF8
FFFFFFFFFFFFFFFFFC
FFFFFFFFFFFFFFFFFC
FFFFFFFFFFFFFFFFFC
FFFFFFFFFFFFFFFFFC
FFFFC00000007FFFFE
FFFFC00000001FFFFE
FFFFC00000000FFFFE
FFFFC00000000FFFFE
FFFFC000000007FFFE
FFFFC000000007FFFE
FFFFC000000007FFFE
FFFFC000000007FFFE
FFFFC000000007FFFE
FFFFC000000007FFFE
FFFFC000000007FFFE
FFFFC000000007FFFE
FFFFC000000007FFFE
FFFFC000000007FFFE
FFFFC000000007FFFE
FFFFC000000007FFFE
FFFFC000000007FFFE
FFFFC000000007FFFE
FFFFC000000007FFFE
FFFFC000000007FFFE
FFFFC000000007FFFE
FFFFC000000007FFFE
FFFFC000000007FFFE
FFFFC000000007FFFE
FFFFC000000007FFFE
FFFFC000000007FFFE
FFFFC000000007FFFE
FFFFC000000007FFFE
FFFFC000000007FFFE
FFFFC000000007FFFE
FFFFC000000007FFFE
FFFFC000000007FFFE
FFFFC000000007FFFE
FFFFC000000007FFFE
FFFFC000000007FFFE
FFFFC000000007FFFE
FFFFC000000007FFFE
FFFFC000000007FFFE
FFFFC000000007FFFE
FFFFC000000007FFFE
FFFFC000000007FFFE
FFFFE00000000FFFFE
FFFFE00000000FFFFE
FFFFF00000001FFFFE
FFFFFC0000003FFFFE
FFFFFFFFFFFFFFFFFE
FFFFFFFFFFFFFFFFFE
7FFFFFFFFFFFFFFFFC
7FFFFFFFFFFFFFFFFC
7FFFFFFFFFFFFFFFFC
3FFFFFFFFFFFFFFFF8
3FFFFFFFFFFFFFFFF8
3FFFFFFFFFFFFFFFF8
1FFFFFFFFFFFFFFFF0
0FFFFFFFFFFFFFFFE0
0FFFFFFFFFFFFFFFE0
07FFFFFFFFFFFFFFC0
03FFFFFFFFFFFFFF80
01FFFFFFFFFFFFFE00
007FFFFFFFFFFFFC00
001FFFFFFFFFFFF000
0001FFFFFFFFFF0000
ENDCHAR
STARTCHAR 0037
ENCODING 55
SWIDTH 521 0
DWIDTH 99 0
BBX 77 133 11 0
BITMAP
FFFFFFFFFFFFFFFFFFF8
FFFFFFFFFFFFFFFFFFF8
FFFFFFFFFFFFFFFFFFF8
FFFFFFFFFFFFFFFFFFF8
FFFFFFFFFFFFFFFFFFF8
FFFFFFFFFFFFFFFFFFF8
FFFFFFFFFFFFFFFFFFF8
FFFFFFFFFFFFFFFFFFF8
FFFFFFFFFFFFFFFFFFF8
FFFFFFFFFFFFFFFFFFF8
FFFFFFFFFFFFFFFFFFF8
FFFFFFFFFFFFFFFFFFF8
FFFFFFFFFFFFFFFFFFF8
FFFFFFFFFFFFFFFFFFF8
FFFFFFFFFFFFFFFFFFF8
FFFFFFFFFFFFFFFFFFF0
800000000000003FFFF0
000000000000003FFFF0
000000000000007FFFE0
000000000000007FFFE0
00000000000000FFFFE0
00000000000000FFFFC0
00000000000000FFFFC0
00000000000001FFFF80
00000000000001FFFF80
00000000000003FFFF80
00000000000003FFFF00
00000000000003FFFF00
00000000000007FFFF00
00000000000007FFFE00
0000000000000FFFFE00
0000000000000FFFFC00
0000000000000FFFFC00
0000000000001FFFFC00
0000000000001FFFF800
0000000000001FFFF800
0000000000003FFFF800
0000000000003FFFF000
0000000000007FFFF000
0000000000007FFFE000
0000000000007FFFE000
000000000000FFFFE000
000000000000FFFFC000
000000000001FFFFC000
000000000001FFFFC000
000000000001FFFF8000
000000000003FFFF8000
000000000003FFFF0000
000000000007FFFF0000
000000000007FFFF0000
000000000007FFFE0000
00000000000FFFFE0000
00000000000FFFFE0000
00000000000FFFFC0000
00000000001FFFFC0000
00000000001FFFFC0000
00000000003FFFF80000
00000000003FFFF80000
00000000003FFFF00000
00000000007FFFF00000
00000000007FFFF00000
0000000000FFFFE00000
0000000000FFFFE00000
0000000000FFFFE00000
0000000001FFFFC00000
0000000001FFFFC00000
0000000001FFFF800000
0000000003FFFF800000
0000000003FFFF800000
0000000007FFFF000000
0000000007FFFF000000
0000000007FFFF000000
000000000FFFFE000000
000000000FFFFE000000
000000001FFFFC000000
000000001FFFFC000000
000000001FFFFC000000
000000003FFFF8000000
000000003FFFF8000000
000000007FFFF8000000
000000007FFFF0000000
000000007FFFF0000000
00000000FFFFE0000000
00000000FFFFE0000000
00000000FFFFE0000000
00000001FFFFC0000000
00000001FFFFC0000000
00000003FFFFC0000000
00000003FFFF80000000
00000003FFFF80000000
00000007FFFF80000000
00000007FFFF00000000
0000000FFFFF00000000
0000000FFFFE00000000
0000000FFFFE00000000
0000001FFFFE00000000
0000001FFFFC00000000
0000003FFFFC00000000
0000003FFFFC00000000
0000003FFFF800000000
0000007FFFF800000000
0000007FFFF000000000
0000007FFFF000000000
000000FFFFF000000000
000000FFFFE000000000
000001FFFFE000000000
000001FFFFE000000000
000001FFFFC000000000
000003FFFFC000000000
000003FFFF8000000000
000007FFFF8000000000
000007FFFF8000000000
000007FFFF0000000000
00000FFFFF0000000000
00000FFFFF0000000000
00000FFFFE0000000000
00001FFFFE0000000000
00001FFFFC0000000000
00003FFFFC0000000000
00003FFFFC0000000000
00003FFFF80000000000
00007FFFF80000000000
00007FFFF80000000000
0000FFFFF00000000000
0000FFFFF00000000000
0000FFFFE00000000000
0001FFFFE00000000000
0001FFFFE00000000000
0003FFFFC00000000000
0003FFFFC00000000000
0003FFFFC00000000000
0007FFFF800000000000
0007FFFF800000000000
ENDCHAR
STARTCHAR 0038
ENCODING 56
SWIDTH 521 0
DWIDTH 99 0
BBX 71 133 14 0
BITMAP
0001FFFFFFFFFF0000
001FFFFFFFFFFFF000
007FFFFFFFFFFFFC00
00FFFFFFFFFFFFFE00
03FFFFFFFFFFFFFF80
07FFFFFFFFFFFFFFC0
0FFFFFFFFFFFFFFFE0
0FFFFFFFFFFFFFFFE0
1FFFFFFFFFFFFFFFF0
3FFFFFFFFFFFFFFFF8
3FFFFFFFFFFFFFFFF8
3FFFFFFFFFFFFFFFF8
7FFFFFFFFFFFFFFFFC
7FFFFFFFFFFFFFFFFC
7FFFFFFFFFFFFFFFFC
7FFFFFFFFFFFFFFFFE
FFFFFC0000007FFFFE
FFFFF00000001FFFFE
FFFFE00000000FFFFE
FFFFE00000000FFFFE
FFFFC000000007FFFE
FFFFC000000007FFFE
FFFFC000000007FFFE
FFFFC000000007FFFE
FFFFC000000007FFFE
FFFFC000000007FFFE
FFFFC000000007FFFE
FFFFC000000007FFFE
FFFFC000000007FFFE
FFFFC000000007FFFE
FFFFC000000007FFFE
FFFFC000000007FFFE
FFFFC000000007FFFE
FFFFC000000007FFFE
FFFFC000000007FFFE
FFFFC000000007FFFE
FFFFC000000007FFFE
FFFFC000000007FFFE
FFFFC000000007FFFE
FFFFC000000007FFFE
FFFFC000000007FFFE
FFFFC000000007FFFE
FFFFC000000007FFFE
FFFFC000000007FFFE
FFFFC000000007FFFE
FFFFC000000007FFFE
FFFFC000000007FFFE
FFFFC000000007FFFE
7FFFC000000007FFFC
7FFFC000000007FFFC
7FFFC000000007FFFC
7FFFE00000000FFFFC
3FFFE00000000FFFF8
3FFFF00000001FFFF8
3FFFF80000003FFFF8
1FFFFE0000007FFFF0
0FFFFFFFFFFFFFFFE0
0FFFFFFFFFFFFFFFE0
07FFFFFFFFFFFFFFC0
03FFFFFFFFFFFFFF80
00FFFFFFFFFFFFFE00
003FFFFFFFFFFFF800
000FFFFFFFFFFFE000
00001FFFFFFFF80000
0007FFFFFFFFFFC000
003FFFFFFFFFFFF800
00FFFFFFFFFFFFFE00
01FFFFFFFFFFFFFF00
03FFFFFFFFFFFFFF80
07FFFFFFFFFFFFFFC0
0FFFFFFFFFFFFFFFE0
1FFFFC0000007FFFF0
1FFFF80000003FFFF0
3FFFF00000001FFFF8
3FFFE00000000FFFF8
7FFFE00000000FFFFC
7FFFC000000007FFFC
7FFFC000000007FFFC
7FFFC000000007FFFC
FFFFC000000007FFFE
FFFFC000000007FFFE
FFFFC000000007FFFE
FFFFC000000007FFFE
FFFFC000000007FFFE
FFFFC000000007FFFE
FFFFC000000007FFFE
FFFFC000000007FFFE
FFFFC000000007FFFE
FFFFC000000007FFFE
FFFFC000000007FFFE
FFFFC000000007FFFE
FFFFC000000007FFFE
FFFFC000000007FFFE
FFFFC000000007FFFE
FFFFC000000007FFFE
FFFFC000000007FFFE
FFFFC000000007FFFE
FFFFC000000007FFFE
FFFFC000000007FFFE
FFFFC000000007FFFE
FFFFC000000007FFFE
FFFFC000000007FFFE
FFFFC000000007FFFE
FFFFC000000007FFFE
FFFFC000000007FFFE
FFFFC000000007FFFE
FFFFC000000007FFFE
FFFFC000000007FFFE
FFFFC000000007FFFE
FFFFC000000007FFFE
FFFFC000000007FFFE
FFFFC000000007FFFE
FFFFC000000007FFFE
FFFFE00000000FFFFE
FFFFE00000000FFFFE
FFFFF00000001FFFFE
FFFFFC0000007FFFFE
FFFFFFFFFFFFFFFFFE
7FFFFFFFFFFFFFFFFC
7FFFFFFFFFFFFFFFFC
7FFFFFFFFFFFFFFFFC
3FFFFFFFFFFFFFFFF8
3FFFFFFFFFFFFFFFF8
3FFFFFFFFFFFFFFFF8
1FFFFFFFFFFFFFFFF0
0FFFFFFFFFFFFFFFE0
0FFFFFFFFFFFFFFFE0
07FFFFFFFFFFFFFFC0
03FFFFFFFFFFFFFF80
01FFFFFFFFFFFFFE00
007FFFFFFFFFFFFC00
001FFFFFFFFFFFF000
0001FFFFFFFFFF0000
ENDCHAR
STARTCHAR 0039
ENCODING 57
SWIDTH 521 0
DWIDTH 99 0
BBX 71 133 13 0
BITMAP
0001FFFFFFFFFF0000
001FFFFFFFFFFFF000
007FFFFFFFFFFFFC00
00FFFFFFFFFFFFFE00
03FFFFFFFFFFFFFF80
07FFFFFFFFFFFFFFC0
0FFFFFFFFFFFFFFFE0
0FFFFFFFFFFFFFFFE0
1FFFFFFFFFFFFFFFF0
3FFFFFFFFFFFFFFFF8
3FFFFFFFFFFFFFFFF8
3FFFFFFFFFFFFFFFF8
7FFFFFFFFFFFFFFFFC
7FFFFFFFFFFFFFFFFC
7FFFFFFFFFFFFFFFFC
7FFFFFFFFFFFFFFFFE
FFFFFFFFFFFFFFFFFE
FFFFF80000007FFFFE
FFFFF00000001FFFFE
FFFFE00000000FFFFE
FFFFE00000000FFFFE
FFFFC000000007FFFE
FFFFC000000007FFFE
FFFFC000000007FFFE
FFFFC000000007FFFE
FFFFC000000007FFFE
FFFFC000000007FFFE
FFFFC000000007FFFE
FFFFC000000007FFFE
FFFFC000000007FFFE
FFFFC000000007FFFE
FFFFC000000007FFFE
FFFFC000000007FFFE
FFFFC000000007FFFE
FFFFC000000007FFFE
FFFFC000000007FFFE
FFFFC000000007FFFE
FFFFC000000007FFFE
FFFFC000000007FFFE
FFFFC000000007FFFE
FFFFC000000007FFFE
FFFFC000000007FFFE
FFFFC000000007FFFE
FFFFC000000007FFFE
FFFFC000000007FFFE
FFFFC000000007FFFE
FFFFC000000007FFFE
FFFFC000000007FFFE
FFFFC000000007FFFE
FFFFC000000007FFFE
FFFFC000000007FFFE
FFFFC000000007FFFE
FFFFC000000007FFFE
FFFFC000000007FFFE
FFFFE000000007FFFE
FFFFE000000007FFFE
FFFFF000000007FFFE
FFFFF000000007FFFE
FFFFFC00000007FFFE
7FFFFFFFFFFFFFFFFE
7FFFFFFFFFFFFFFFFE
7FFFFFFFFFFFFFFFFE
3FFFFFFFFFFFFFFFFE
3FFFFFFFFFFFFFFFFE
3FFFFFFFFFFFFFFFFE
1FFFFFFFFFFFFFFFFE
0FFFFFFFFFFFFFFFFE
0FFFFFFFFFFFFFFFFE
07FFFFFFFFFFFFFFFE
03FFFFFFFFFFFFFFFE
01FFFFFFFFFFFFFFFE
007FFFFFFFFFFFFFFE
001FFFFFFFFFFFFFFE
0001FFFFFFFFFFFFFE
00000000000007FFFE
00000000000007FFFE
00000000000007FFFE
00000000000007FFFE
00000000000007FFFE
00000000000007FFFE
00000000000007FFFE
00000000000007FFFE
00000000000007FFFE
00000000000007FFFE
00000000000007FFFE
00000000000007FFFE
00000000000007FFFE
00000000000007FFFE
00000000000007FFFE
00000000000007FFFE
00000000000007FFFE
00000000000007FFFE
00000000000007FFFE
00000000000007FFFE
00000000000007FFFE
00000000000007FFFE
00000000000007FFFE
00000000000007FFFE
00000000000007FFFE
00000000000007FFFE
00000000000007FFFE
00000000000007FFFE
00000000000007FFFE
00000000000007FFFE
00000000000007FFFE
00000000000007FFFE
00000000000007FFFE
00000000000007FFFE
00000000000007FFFE
00000000000007FFFE
00000000000007FFFE
00000000000007FFFE
0000000000000FFFFE
0000000000000FFFFE
0000000000001FFFFE
8000000000007FFFFE
FFFFFFFFFFFFFFFFFE
FFFFFFFFFFFFFFFFFE
FFFFFFFFFFFFFFFFFC
FFFFFFFFFFFFFFFFFC
FFFFFFFFFFFFFFFFFC
FFFFFFFFFFFFFFFFF8
FFFFFFFFFFFFFFFFF8
FFFFFFFFFFFFFFFFF8
FFFFFFFFFFFFFFFFF0
FFFFFFFFFFFFFFFFE0
FFFFFFFFFFFFFFFFE0
FFFFFFFFFFFFFFFFC0
FFFFFFFFFFFFFFFF80
FFFFFFFFFFFFFFFE00
FFFFFFFFFFFFFFFC00
FFFFFFFFFFFFFFE000
FFFFFFFFFFFFFF0000
ENDCHAR
STARTCHAR 003A
ENCODING 58
SWIDTH 210 0
DWIDTH 40 0
BBX 18 95 11 0
BITMAP
FFFFC0
FFFFC0
FFFFC0
FFFFC0
FFFFC0
FFFFC0
FFFFC0
FFFFC0
FFFFC0
FFFFC0
FFFFC0
FFFFC0
FFFFC0
FFFFC0
FFFFC0
FFFFC0
FFFFC0
FFFFC0
FFFFC0
000000
000000
000000
000000
000000
000000
000000
000000
000000
000000
000000
000000
000000
000000
000000
000000
000000
000000
000000
000000
000000
000000
000000
000000
000000
000000
000000
000000
000000
000000
000000
000000
000000
000000
000000
000000
000000
000000
000000
000000
000000
000000
000000
000000
000000
000000
000000
000000
000000
000000
000000
000000
000000
000000
000000
000000
000000
FFFFC0
FFFFC0
FFFFC0
FFFFC0
FFFFC0
FFFFC0
FFFFC0
FFFFC0
FFFFC0
FFFFC0
FFFFC0
FFFFC0
FFFFC0
FFFFC0
FFFFC0
FFFFC0
FFFFC0
FFFFC0
FFFFC0
ENDCHAR
STARTCHAR 003B
ENCODING 59
SWIDTH 215 0
DWIDTH 41 0
BBX 24 123 6 -28
BITMAP
03FFFF
03FFFF
03FFFF
03FFFF
03FFFF
03FFFF
03FFFF
03FFFF
03FFFF
03FFFF
03FFFF
03FFFF
03FFFF
03FFFF
03FFFF
03FFFF
03FFFF
03FFFF
03FFFF
000000
000000
000000
000000
000000
000000
000000
000000
000000
000000
000000
000000
000000
000000
000000
000000
000000
000000
000000
000000
000000
000000
000000
000000
000000
000000
000000
000000
000000
000000
000000
000000
000000
000000
000000
000000
000000
000000
000000
000000
000000
000000
000000
000000
000000
000000
000000
000000
000000
000000
000000
000000
000000
000000
000000
000000
000000
03FFFF
03FFFF
03FFFF
03FFFF
03FFFF
03FFFF
03FFFF
03FFFF
03FFFF
03FFFF
03FFFF
03FFFF
03FFFF
03FFFF
03FFFF
03FFFF
03FFFF
03FFFF
03FFFE
07FFFE
07FFFE
07FFFC
07FFFC
0FFFFC
0FFFFC
0FFFF8
0FFFF8
0FFFF8
1FFFF0
1FFFF0
1FFFF0
1FFFE0
1FFFE0
3FFFE0
3FFFC0
3FFFC0
3FFFC0
3FFF80
7FFF80
7FFF80
7FFF00
7FFF00
FFFF00
FFFF00
FFFE00
FFFE00
FFFE00
ENDCHAR
STARTCHAR 003C
ENCODING 60
SWIDTH 468 0
DWIDTH 89 0
BBX 67 83 11 20
BITMAP
000000000000000060
0000000000000001E0
0000000000000007E0
000000000000001FE0
000000000000007FE0
00000000000001FFE0
00000000000007FFE0
0000000000001FFFE0
0000000000003FFFE0
000000000000FFFFE0
000000000003FFFFE0
00000000000FFFFFE0
00000000003FFFFFE0
0000000000FFFFFFE0
0000000003FFFFFFC0
000000000FFFFFFF00
000000001FFFFFFC00
000000007FFFFFF800
00000001FFFFFFE000
00000007FFFFFF8000
0000001FFFFFFE0000
0000007FFFFFFC0000
000001FFFFFFF00000
000007FFFFFFC00000
00001FFFFFFF800000
00003FFFFFFE000000
0000FFFFFFF8000000
0003FFFFFFE0000000
000FFFFFFFC0000000
003FFFFFFF00000000
00FFFFFFFC00000000
03FFFFFFF000000000
0FFFFFFFE000000000
3FFFFFFF8000000000
7FFFFFFE0000000000
FFFFFFF80000000000
FFFFFFF00000000000
FFFFFFC00000000000
FFFFFF000000000000
FFFFFC000000000000
FFFFF8000000000000
FFFFFC000000000000
FFFFFF000000000000
FFFFFF800000000000
FFFFFFE00000000000
FFFFFFF80000000000
FFFFFFFE0000000000
7FFFFFFF0000000000
1FFFFFFFC000000000
0FFFFFFFF000000000
03FFFFFFFC00000000
00FFFFFFFE00000000
003FFFFFFF80000000
000FFFFFFFE0000000
0003FFFFFFF8000000
0000FFFFFFFC000000
00007FFFFFFF000000
00001FFFFFFFC00000
000007FFFFFFF00000
000001FFFFFFF80000
0000007FFFFFFE0000
0000001FFFFFFF8000
00000007FFFFFFE000
00000003FFFFFFF000
00000000FFFFFFFC00
000000003FFFFFFF00
000000000FFFFFFFC0
0000000003FFFFFFE0
0000000000FFFFFFE0
00000000003FFFFFE0
00000000000FFFFFE0
000000000007FFFFE0
000000000001FFFFE0
0000000000007FFFE0
0000000000001FFFE0
00000000000007FFE0
00000000000001FFE0
000000000000007FE0
000000000000003FE0
000000000000000FE0
0000000000000003E0
0000000000000000E0
000000000000000020
ENDCHAR
STARTCHAR 003D
ENCODING 61
SWIDTH 468 0
DWIDTH 89 0
BBX 67 55 11 29
BITMAP
FFFFFFFFFFFFFFFFE0
FFFFFFFFFFFFFFFFE0
FFFFFFFFFFFFFFFFE0
FFFFFFFFFFFFFFFFE0
FFFFFFFFFFFFFFFFE0
FFFFFFFFFFFFFFFFE0
FFFFFFFFFFFFFFFFE0
FFFFFFFFFFFFFFFFE0
FFFFFFFFFFFFFFFFE0
FFFFFFFFFFFFFFFFE0
FFFFFFFFFFFFFFFFE0
FFFFFFFFFFFFFFFFE0
FFFFFFFFFFFFFFFFE0
FFFFFFFFFFFFFFFFE0
000000000000000000
000000000000000000
000000000000000000
000000000000000000
000000000000000000
000000000000000000
000000000000000000
000000000000000000
000000000000000000
000000000000000000
000000000000000000
000000000000000000
000000000000000000
000000000000000000
000000000000000000
000000000000000000
000000000000000000
000000000000000000
000000000000000000
000000000000000000
000000000000000000
000000000000000000
000000000000000000
000000000000000000
000000000000000000
000000000000000000
000000000000000000
FFFFFFFFFFFFFFFFE0
FFFFFFFFFFFFFFFFE0
FFFFFFFFFFFFFFFFE0
FFFFFFFFFFFFFFFFE0
FFFFFFFFFFFFFFFFE0
FFFFFFFFFFFFFFFFE0
FFFFFFFFFFFFFFFFE0
FFFFFFFFFFFFFFFFE0
FFFFFFFFFFFFFFFFE0
FFFFFFFFFFFFFFFFE0
FFFFFFFFFFFFFFFFE0
FFFFFFFFFFFFFFFFE0
FFFFFFFFFFFFFFFFE0
FFFFFFFFFFFFFFFFE0
ENDCHAR
STARTCHAR 003E
ENCODING 62
SWIDTH 468 0
DWIDTH 89 0
BBX 67 84 11 20
BITMAP
800000000000000000
E00000000000000000
F80000000000000000
FC0000000000000000
FF0000000000000000
FFC000000000000000
FFF000000000000000
FFFC00000000000000
FFFF00000000000000
FFFFC0000000000000
FFFFE0000000000000
FFFFF8000000000000
FFFFFE000000000000
FFFFFF800000000000
FFFFFFE00000000000
FFFFFFF80000000000
7FFFFFFE0000000000
1FFFFFFF8000000000
07FFFFFFC000000000
03FFFFFFF000000000
00FFFFFFFC00000000
003FFFFFFF00000000
000FFFFFFFC0000000
0007FFFFFFF0000000
0001FFFFFFFC000000
00007FFFFFFE000000
00001FFFFFFF800000
00000FFFFFFFE00000
000003FFFFFFF80000
000000FFFFFFFE0000
0000007FFFFFFF8000
0000001FFFFFFFE000
00000007FFFFFFF800
00000001FFFFFFFC00
00000000FFFFFFFF00
000000003FFFFFFFC0
000000000FFFFFFFE0
0000000003FFFFFFE0
0000000001FFFFFFE0
00000000007FFFFFE0
00000000001FFFFFE0
000000000007FFFFE0
000000000003FFFFE0
000000000007FFFFE0
00000000001FFFFFE0
00000000003FFFFFE0
0000000000FFFFFFE0
0000000003FFFFFFE0
000000000FFFFFFFE0
000000001FFFFFFF80
000000007FFFFFFE00
00000001FFFFFFF800
00000007FFFFFFE000
0000000FFFFFFF8000
0000003FFFFFFE0000
000000FFFFFFF80000
000003FFFFFFF00000
000007FFFFFFC00000
00001FFFFFFF000000
00007FFFFFFC000000
0001FFFFFFF0000000
0003FFFFFFC0000000
000FFFFFFF00000000
003FFFFFFC00000000
00FFFFFFF000000000
01FFFFFFE000000000
07FFFFFF8000000000
1FFFFFFE0000000000
7FFFFFF80000000000
FFFFFFE00000000000
FFFFFF800000000000
FFFFFE000000000000
FFFFF8000000000000
FFFFF0000000000000
FFFFC0000000000000
FFFF00000000000000
FFFC00000000000000
FFF000000000000000
FFC000000000000000
FF0000000000000000
FC0000000000000000
F00000000000000000
E00000000000000000
800000000000000000
ENDCHAR
STARTCHAR 003F
ENCODING 63
SWIDTH 410 0
DWIDTH 78 0
BBX 63 133 9 0
BITMAP
FFFFFFFFFFFFE000
FFFFFFFFFFFFFC00
FFFFFFFFFFFFFF00
FFFFFFFFFFFFFF80
FFFFFFFFFFFFFFE0
FFFFFFFFFFFFFFE0
FFFFFFFFFFFFFFF0
FFFFFFFFFFFFFFF8
FFFFFFFFFFFFFFF8
FFFFFFFFFFFFFFFC
FFFFFFFFFFFFFFFC
FFFFFFFFFFFFFFFC
FFFFFFFFFFFFFFFC
FFFFFFFFFFFFFFFE
FFFFFFFFFFFFFFFE
FFFFFFFFFFFFFFFE
C0000000003FFFFE
00000000001FFFFE
00000000000FFFFE
00000000000FFFFE
000000000007FFFE
000000000007FFFE
000000000007FFFE
000000000007FFFE
000000000007FFFE
000000000007FFFE
000000000007FFFE
000000000007FFFE
000000000007FFFE
000000000007FFFE
000000000007FFFE
00000000000FFFFE
00000000000FFFFC
00000000001FFFFC
00000000001FFFFC
00000000003FFFFC
00000000007FFFF8
0000000000FFFFF8
0000000001FFFFF0
0000000003FFFFF0
0000000007FFFFE0
000000000FFFFFE0
000000001FFFFFC0
000000003FFFFF80
000000007FFFFF00
00000000FFFFFE00
00000001FFFFFC00
00000003FFFFF800
00000007FFFFF000
0000001FFFFFE000
0000001FFFFFC000
0000003FFFFF8000
0000007FFFFF0000
000000FFFFFE0000
000001FFFFFC0000
000003FFFFF80000
000003FFFFF00000
000007FFFFE00000
000007FFFFC00000
00000FFFFF800000
00000FFFFF000000
00001FFFFE000000
00001FFFFC000000
00001FFFFC000000
00001FFFF8000000
00003FFFF8000000
00003FFFF0000000
00003FFFF0000000
00003FFFF0000000
00003FFFF0000000
00003FFFF0000000
00003FFFF0000000
00003FFFF0000000
00003FFFF0000000
00003FFFF0000000
00003FFFF0000000
00003FFFF0000000
00003FFFF0000000
00003FFFF0000000
00003FFFF0000000
00003FFFF0000000
00003FFFF0000000
00003FFFF0000000
00003FFFF0000000
00003FFFF0000000
00003FFFF0000000
00003FFFF0000000
00003FFFF0000000
00003FFFF0000000
00003FFFF0000000
00003FFFF0000000
00003FFFF0000000
00003FFFF0000000
00003FFFF0000000
00003FFFF0000000
00003FFFF0000000
00003FFFF0000000
00003FFFF0000000
00003FFFF0000000
00003FFFF0000000
00003FFFF0000000
00003FFFF0000000
0000000000000000
0000000000000000
0000000000000000
0000000000000000
0000000000000000
0000000000000000
0000000000000000
0000000000000000
0000000000000000
0000000000000000
0000000000000000
0000000000000000
00003FFFF0000000
00003FFFF0000000
00003FFFF0000000
00003FFFF0000000
00003FFFF0000000
00003FFFF0000000
00003FFFF0000000
00003FFFF0000000
00003FFFF0000000
00003FFFF0000000
00003FFFF0000000
00003FFFF0000000
00003FFFF0000000
00003FFFF0000000
00003FFFF0000000
00003FFFF0000000
00003FFFF0000000
00003FFFF0000000
00003FFFF0000000
ENDCHAR
STARTCHAR 0040
ENCODING 64
SWIDTH 757 0
DWIDTH 144 0
BBX 118 132 15 -20
BITMAP
0001FFFFFFFFFFFFFE000000000000
000FFFFFFFFFFFFFFFE00000000000
007FFFFFFFFFFFFFFFF80000000000
00FFFFFFFFFFFFFFFFFE0000000000
03FFFFFFFFFFFFFFFFFF0000000000
07FFFFFFFFFFFFFFFFFF8000000000
0FFFFFFFFFFFFFFFFFFFC000000000
0FFFFFFFFFFFFFFFFFFFC000000000
1FFFFFFFFFFFFFFFFFFFE000000000
3FFFFFFFFFFFFFFFFFFFF000000000
3FFFFFFFFFFFFFFFFFFFF000000000
3FFFFFFFFFFFFFFFFFFFF000000000
7FFFFFFFFFFFFFFFFFFFF800000000
7FFFFFFFFFFFFFFFFFFFF800000000
7FFFFFFFFFFFFFFFFFFFF800000000
7FFFF000000000003FFFFC00000000
FFFFC000000000000FFFFC00000000
FFFF80000000000007FFFC00000000
FFFF80000000000007FFFC00000000
FFFF00000000000003FFFC00000000
FFFF00000000000003FFFC00000000
FFFF00000000000003FFFC00000000
FFFF00000000000003FFFC00000000
FFFF00000000000003FFFC00000000
FFFF00000000000003FFFC00000000
FFFF00000000000003FFFC00000000
FFFF00000000000003FFFC00000000
FFFF00000000000003FFFC00000000
FFFF00000000000003FFFC00000000
FFFF00000000000003FFFC00000000
FFFF00000000000003FFFC00000000
FFFF00000000000003FFFC00000000
FFFF00000000000003FFFC00000000
FFFF00000000000003FFFC00000000
FFFF00000000000003FFFC00000000
FFFF00000000000003FFFC00000000
FFFF0000000FFFFFFFFFFC0001FFFC
FFFF000000FFFFFFFFFFFC0001FFFC
FFFF000001FFFFFFFFFFFC0001FFFC
FFFF000007FFFFFFFFFFFC0001FFFC
FFFF00000FFFFFFFFFFFFC0001FFFC
FFFF00001FFFFFFFFFFFFC0001FFFC
FFFF00001FFFFFFFFFFFFC0001FFFC
FFFF00003FFFFFFFFFFFFC0001FFFC
FFFF00003FFFFFFFFFFFFC0001FFFC
FFFF00007FFFFFFFFFFFFC0001FFFC
FFFF00007FFFFFFFFFFFFC0001FFFC
FFFF00007FFFFFFFFFFFFC0001FFFC
FFFF0000FFFFE00003FFFC0001FFFC
FFFF0000FFFF800003FFFC0001FFFC
FFFF0000FFFF000003FFFC0001FFFC
FFFF0000FFFF000003FFFC0001FFFC
FFFF0000FFFE000003FFFC0001FFFC
FFFF0000FFFE000003FFFC0001FFFC
FFFF0000FFFE000003FFFC0001FFFC
FFFF0000FFFE000003FFFC0001FFFC
FFFF0000FFFE000003FFFC0001FFFC
FFFF0000FFFE000003FFFC0001FFFC
FFFF0000FFFE000003FFFC0001FFFC
FFFF0000FFFE000003FFFC0001FFFC
FFFF0000FFFE000003FFFC0001FFFC
FFFF0000FFFE000003FFFC0001FFFC
FFFF0000FFFE000003FFFC0001FFFC
FFFF0000FFFE000003FFFC0001FFFC
FFFF0000FFFE000003FFFC0001FFFC
FFFF0000FFFE000003FFFC0001FFFC
FFFF0000FFFE000003FFFC0001FFFC
FFFF0000FFFE000003FFFC0001FFFC
FFFF0000FFFE000003FFFC0001FFFC
FFFF0000FFFE000003FFFC0001FFFC
FFFF0000FFFE000003FFFC0001FFFC
FFFF0000FFFE000003FFFC0001FFFC
FFFF0000FFFE000003FFFC0001FFFC
FFFF0000FFFE000003FFFC0001FFFC
FFFF0000FFFE000003FFFC0001FFFC
FFFF0000FFFE000003FFFC0001FFFC
FFFF0000FFFE000003FFFC0001FFFC
FFFF0000FFFF000003FFFC0001FFFC
FFFF0000FFFF000003FFFC0001FFFC
FFFF0000FFFF800003FFFC0001FFFC
FFFF0000FFFF800003FFFC0001FFFC
FFFF0000FFFFE00003FFFC0001FFFC
FFFF0000FFFFFFFFFFFFFC0001FFFC
FFFF0000FFFFFFFFFFFFFC0001FFFC
FFFF00007FFFFFFFFFFFFC0001FFFC
FFFF00007FFFFFFFFFFFFC0001FFFC
FFFF00007FFFFFFFFFFFFC0001FFFC
FFFF00003FFFFFFFFFFFFC0001FFFC
FFFF00003FFFFFFFFFFFFC0001FFFC
FFFF00001FFFFFFFFFFFFC0001FFFC
FFFF00001FFFFFFFFFFFFC0001FFFC
FFFF00000FFFFFFFFFFFFC0001FFFC
FFFF000007FFFFFFFFFFFC0001FFFC
FFFF000001FFFFFFFFFFFC0001FFFC
FFFF000000FFFFFFFFFFFC0001FFFC
FFFF0000001FFFFFFFFFFC0001FFFC
FFFF0000000000000000000001FFFC
FFFF0000000000000000000001FFFC
FFFF0000000000000000000001FFFC
FFFF0000000000000000000001FFFC
FFFF0000000000000000000001FFFC
FFFF0000000000000000000001FFFC
FFFF0000000000000000000001FFFC
FFFF0000000000000000000001FFFC
FFFF0000000000000000000001FFFC
FFFF0000000000000000000001FFFC
FFFF0000000000000000000001FFFC
FFFF0000000000000000000001FFFC
FFFF0000000000000000000001FFFC
FFFF0000000000000000000001FFFC
FFFF0000000000000000000001FFFC
FFFF8000000000000000000001FFFC
FFFF8000000000000000000003FFFC
FFFFC000000000000000000003FFFC
FFFFC000000000000000000007FFFC
FFFFF00000000000000000001FFFFC
FFFFFFFFFFFFFFFFFFFFFFFFFFFFFC
7FFFFFFFFFFFFFFFFFFFFFFFFFFFF8
7FFFFFFFFFFFFFFFFFFFFFFFFFFFF8
7FFFFFFFFFFFFFFFFFFFFFFFFFFFF8
7FFFFFFFFFFFFFFFFFFFFFFFFFFFF0
3FFFFFFFFFFFFFFFFFFFFFFFFFFFF0
3FFFFFFFFFFFFFFFFFFFFFFFFFFFF0
1FFFFFFFFFFFFFFFFFFFFFFFFFFFE0
1FFFFFFFFFFFFFFFFFFFFFFFFFFFC0
0FFFFFFFFFFFFFFFFFFFFFFFFFFFC0
07FFFFFFFFFFFFFFFFFFFFFFFFFF80
03FFFFFFFFFFFFFFFFFFFFFFFFFF00
01FFFFFFFFFFFFFFFFFFFFFFFFFC00
007FFFFFFFFFFFFFFFFFFFFFFFF800
001FFFFFFFFFFFFFFFFFFFFFFFC000
0001FFFFFFFFFFFFFFFFFFFFFE0000
ENDCHAR
STARTCHAR 0041
ENCODING 65
SWIDTH 500 0
DWIDTH 95 0
BBX 94 133 1 0
BITMAP
000000000FFFFFE000000000
000000001FFFFFE000000000
000000001FFFFFF000000000
000000001FFFFFF000000000
000000001FFFFFF000000000
000000003FFFFFF000000000
000000003FFFFFF800000000
000000003FFFFFF800000000
000000007FFFFFF800000000
000000007FFFFFFC00000000
000000007FFFFFFC00000000
000000007FFFFFFC00000000
00000000FFFFFFFC00000000
00000000FFFFFFFE00000000
00000000FFFFFFFE00000000
00000000FFFFFFFE00000000
00000001FFFFFFFE00000000
00000001FFFFFFFF00000000
00000001FFFFFFFF00000000
00000001FFFFFFFF00000000
00000003FFFFFFFF00000000
00000003FFFFFFFF80000000
00000003FFFFFFFF80000000
00000007FFFDFFFF80000000
00000007FFFDFFFF80000000
00000007FFFDFFFFC0000000
00000007FFFCFFFFC0000000
0000000FFFF8FFFFC0000000
0000000FFFF8FFFFE0000000
0000000FFFF8FFFFE0000000
0000000FFFF87FFFE0000000
0000001FFFF07FFFE0000000
0000001FFFF07FFFF0000000
0000001FFFF07FFFF0000000
0000003FFFF03FFFF0000000
0000003FFFE03FFFF0000000
0000003FFFE03FFFF8000000
0000003FFFE03FFFF8000000
0000007FFFE01FFFF8000000
0000007FFFC01FFFF8000000
0000007FFFC01FFFFC000000
0000007FFFC01FFFFC000000
000000FFFFC00FFFFC000000
000000FFFF800FFFFC000000
000000FFFF800FFFFE000000
000000FFFF800FFFFE000000
000001FFFF8007FFFE000000
000001FFFF0007FFFF000000
000001FFFF0007FFFF000000
000003FFFF0007FFFF000000
000003FFFF0003FFFF000000
000003FFFE0003FFFF800000
000003FFFE0003FFFF800000
000007FFFE0003FFFF800000
000007FFFE0001FFFF800000
000007FFFC0001FFFFC00000
000007FFFC0001FFFFC00000
00000FFFFC0001FFFFC00000
00000FFFFC0000FFFFC00000
00000FFFF80000FFFFE00000
00000FFFF80000FFFFE00000
00001FFFF80000FFFFE00000
00001FFFF800007FFFE00000
00001FFFF000007FFFF00000
00003FFFF000007FFFF00000
00003FFFF000007FFFF00000
00003FFFF000003FFFF80000
00003FFFE000003FFFF80000
00007FFFE000003FFFF80000
00007FFFE000003FFFF80000
00007FFFE000001FFFFC0000
00007FFFC000001FFFFC0000
0000FFFFC000001FFFFC0000
0000FFFFC000001FFFFC0000
0000FFFFC000000FFFFE0000
0001FFFF8000000FFFFE0000
0001FFFF8000000FFFFE0000
0001FFFF8000000FFFFE0000
0001FFFF80000007FFFF0000
0003FFFF00000007FFFF0000
0003FFFF00000007FFFF0000
0003FFFF00000007FFFF0000
0003FFFF00000003FFFF8000
0007FFFE00000003FFFF8000
0007FFFE00000003FFFF8000
0007FFFE00000003FFFFC000
0007FFFE00000001FFFFC000
000FFFFC00000001FFFFC000
000FFFFC00000001FFFFC000
000FFFFFFFFFFFFFFFFFE000
001FFFFFFFFFFFFFFFFFE000
001FFFFFFFFFFFFFFFFFE000
001FFFFFFFFFFFFFFFFFE000
001FFFFFFFFFFFFFFFFFF000
003FFFFFFFFFFFFFFFFFF000
003FFFFFFFFFFFFFFFFFF000
003FFFFFFFFFFFFFFFFFF000
003FFFFFFFFFFFFFFFFFF800
007FFFFFFFFFFFFFFFFFF800
007FFFFFFFFFFFFFFFFFF800
007FFFFFFFFFFFFFFFFFF800
00FFFFFFFFFFFFFFFFFFFC00
00FFFFF0000000007FFFFC00
00FFFFE0000000003FFFFC00
00FFFFE0000000003FFFFE00
01FFFFE0000000003FFFFE00
01FFFFE0000000003FFFFE00
01FFFFC0000000001FFFFE00
01FFFFC0000000001FFFFF00
03FFFFC0000000001FFFFF00
03FFFFC0000000001FFFFF00
03FFFF80000000000FFFFF00
03FFFF80000000000FFFFF80
07FFFF80000000000FFFFF80
07FFFF80000000000FFFFF80
07FFFF000000000007FFFF80
0FFFFF000000000007FFFFC0
0FFFFF000000000007FFFFC0
0FFFFF000000000007FFFFC0
0FFFFE000000000003FFFFC0
1FFFFE000000000003FFFFE0
1FFFFE000000000003FFFFE0
1FFFFE000000000003FFFFE0
1FFFFC000000000001FFFFF0
3FFFFC000000000001FFFFF0
3FFFFC000000000001FFFFF0
3FFFFC000000000001FFFFF0
7FFFF8000000000000FFFFF8
7FFFF8000000000000FFFFF8
7FFFF8000000000000FFFFF8
7FFFF8000000000000FFFFF8
FFFFF00000000000007FFFFC
FFFFF00000000000007FFFFC
ENDCHAR
STARTCHAR 0042
ENCODING 66
SWIDTH 552 0
DWIDTH 105 0
BBX 78 133 13 0
BITMAP
FFFFFFFFFFFFFFFE0000
FFFFFFFFFFFFFFFFE000
FFFFFFFFFFFFFFFFF800
FFFFFFFFFFFFFFFFFE00
FFFFFFFFFFFFFFFFFF00
FFFFFFFFFFFFFFFFFF80
FFFFFFFFFFFFFFFFFFC0
FFFFFFFFFFFFFFFFFFC0
FFFFFFFFFFFFFFFFFFE0
FFFFFFFFFFFFFFFFFFF0
FFFFFFFFFFFFFFFFFFF0
FFFFFFFFFFFFFFFFFFF8
FFFFFFFFFFFFFFFFFFF8
FFFFFFFFFFFFFFFFFFF8
FFFFFFFFFFFFFFFFFFF8
FFFFFFFFFFFFFFFFFFFC
FFFFC000000000FFFFFC
FFFFC0000000003FFFFC
FFFFC0000000001FFFFC
FFFFC0000000001FFFFC
FFFFC0000000000FFFFC
FFFFC0000000000FFFFC
FFFFC0000000000FFFFC
FFFFC0000000000FFFFC
FFFFC0000000000FFFFC
FFFFC0000000000FFFFC
FFFFC0000000000FFFFC
FFFFC0000000000FFFFC
FFFFC0000000000FFFFC
FFFFC0000000000FFFFC
FFFFC0000000000FFFFC
FFFFC0000000000FFFFC
FFFFC0000000000FFFFC
FFFFC0000000000FFFFC
FFFFC0000000000FFFFC
FFFFC0000000000FFFFC
FFFFC0000000000FFFFC
FFFFC0000000000FFFFC
FFFFC0000000000FFFFC
FFFFC0000000000FFFFC
FFFFC0000000000FFFFC
FFFFC0000000000FFFFC
FFFFC0000000000FFFFC
FFFFC0000000000FFFFC
FFFFC0000000000FFFFC
FFFFC0000000000FFFFC
FFFFC0000000000FFFFC
FFFFC0000000000FFFFC
FFFFC0000000000FFFF8
FFFFC0000000000FFFF8
FFFFC0000000000FFFF8
FFFFC0000000001FFFF8
FFFFC0000000001FFFF0
FFFFC0000000003FFFF0
FFFFC0000000007FFFE0
FFFFC000000000FFFFE0
FFFFFFFFFFFFFFFFFFC0
FFFFFFFFFFFFFFFFFF80
FFFFFFFFFFFFFFFFFF00
FFFFFFFFFFFFFFFFFE00
FFFFFFFFFFFFFFFFFC00
FFFFFFFFFFFFFFFFE000
FFFFFFFFFFFFFFFF0000
FFFFFFFFFFFFFFFE0000
FFFFFFFFFFFFFFFFE000
FFFFFFFFFFFFFFFFF800
FFFFFFFFFFFFFFFFFE00
FFFFFFFFFFFFFFFFFF00
FFFFFFFFFFFFFFFFFF80
FFFFFFFFFFFFFFFFFFC0
FFFFC000000000FFFFE0
FFFFC0000000007FFFE0
FFFFC0000000003FFFF0
FFFFC0000000001FFFF0
FFFFC0000000001FFFF8
FFFFC0000000000FFFF8
FFFFC0000000000FFFF8
FFFFC0000000000FFFF8
FFFFC0000000000FFFFC
FFFFC0000000000FFFFC
FFFFC0000000000FFFFC
FFFFC0000000000FFFFC
FFFFC0000000000FFFFC
FFFFC0000000000FFFFC
FFFFC0000000000FFFFC
FFFFC0000000000FFFFC
FFFFC0000000000FFFFC
FFFFC0000000000FFFFC
FFFFC0000000000FFFFC
FFFFC0000000000FFFFC
FFFFC0000000000FFFFC
FFFFC0000000000FFFFC
FFFFC0000000000FFFFC
FFFFC0000000000FFFFC
FFFFC0000000000FFFFC
FFFFC0000000000FFFFC
FFFFC0000000000FFFFC
FFFFC0000000000FFFFC
FFFFC0000000000FFFFC
FFFFC0000000000FFFFC
FFFFC0000000000FFFFC
FFFFC0000000000FFFFC
FFFFC0000000000FFFFC
FFFFC0000000000FFFFC
FFFFC0000000000FFFFC
FFFFC0000000000FFFFC
FFFFC0000000000FFFFC
FFFFC0000000000FFFFC
FFFFC0000000000FFFFC
FFFFC0000000000FFFFC
FFFFC0000000000FFFFC
FFFFC0000000000FFFFC
FFFFC0000000000FFFFC
FFFFC0000000001FFFFC
FFFFC0000000001FFFFC
FFFFC0000000003FFFFC
FFFFC000000000FFFFFC
FFFFFFFFFFFFFFFFFFFC
FFFFFFFFFFFFFFFFFFF8
FFFFFFFFFFFFFFFFFFF8
FFFFFFFFFFFFFFFFFFF8
FFFFFFFFFFFFFFFFFFF0
FFFFFFFFFFFFFFFFFFF0
FFFFFFFFFFFFFFFFFFF0
FFFFFFFFFFFFFFFFFFE0
FFFFFFFFFFFFFFFFFFC0
FFFFFFFFFFFFFFFFFFC0
FFFFFFFFFFFFFFFFFF80
FFFFFFFFFFFFFFFFFF00
FFFFFFFFFFFFFFFFFC00
FFFFFFFFFFFFFFFFF800
FFFFFFFFFFFFFFFFE000
FFFFFFFFFFFFFFFE0000
ENDCHAR
STARTCHAR 0043
ENCODING 67
SWIDTH 468 0
DWIDTH 89 0
BBX 72 133 13 0
BITMAP
0001FFFFFFFFFFFFFF
001FFFFFFFFFFFFFFF
007FFFFFFFFFFFFFFF
00FFFFFFFFFFFFFFFF
03FFFFFFFFFFFFFFFF
07FFFFFFFFFFFFFFFF
0FFFFFFFFFFFFFFFFF
0FFFFFFFFFFFFFFFFF
1FFFFFFFFFFFFFFFFF
1FFFFFFFFFFFFFFFFF
3FFFFFFFFFFFFFFFFF
3FFFFFFFFFFFFFFFFF
7FFFFFFFFFFFFFFFFF
7FFFFFFFFFFFFFFFFF
7FFFFFFFFFFFFFFFFF
7FFFFFFFFFFFFFFFFF
FFFFFFFFFFFFFFFFFF
FFFFF8000000000003
FFFFF0000000000000
FFFFE0000000000000
FFFFE0000000000000
FFFFC0000000000000
FFFFC0000000000000
FFFFC0000000000000
FFFFC0000000000000
FFFFC0000000000000
FFFFC0000000000000
FFFFC0000000000000
FFFFC0000000000000
FFFFC0000000000000
FFFFC0000000000000
FFFFC0000000000000
FFFFC0000000000000
FFFFC0000000000000
FFFFC0000000000000
FFFFC0000000000000
FFFFC0000000000000
FFFFC0000000000000
FFFFC0000000000000
FFFFC0000000000000
FFFFC0000000000000
FFFFC0000000000000
FFFFC0000000000000
FFFFC0000000000000
FFFFC0000000000000
FFFFC0000000000000
FFFFC0000000000000
FFFFC0000000000000
FFFFC0000000000000
FFFFC0000000000000
FFFFC0000000000000
FFFFC0000000000000
FFFFC0000000000000
FFFFC0000000000000
FFFFC0000000000000
FFFFC0000000000000
FFFFC0000000000000
FFFFC0000000000000
FFFFC0000000000000
FFFFC0000000000000
FFFFC0000000000000
FFFFC0000000000000
FFFFC0000000000000
FFFFC0000000000000
FFFFC0000000000000
FFFFC0000000000000
FFFFC0000000000000
FFFFC0000000000000
FFFFC0000000000000
FFFFC0000000000000
FFFFC0000000000000
FFFFC0000000000000
FFFFC0000000000000
FFFFC0000000000000
FFFFC0000000000000
FFFFC0000000000000
FFFFC0000000000000
FFFFC0000000000000
FFFFC0000000000000
FFFFC0000000000000
FFFFC0000000000000
FFFFC0000000000000
FFFFC0000000000000
FFFFC0000000000000
FFFFC0000000000000
FFFFC0000000000000
FFFFC0000000000000
FFFFC0000000000000
FFFFC0000000000000
FFFFC0000000000000
FFFFC0000000000000
FFFFC0000000000000
FFFFC0000000000000
FFFFC0000000000000
FFFFC0000000000000
FFFFC0000000000000
FFFFC0000000000000
FFFFC0000000000000
FFFFC0000000000000
FFFFC0000000000000
FFFFC0000000000000
FFFFC0000000000000
FFFFC0000000000000
FFFFC0000000000000
FFFFC0000000000000
FFFFC0000000000000
FFFFC0000000000000
FFFFC0000000000000
FFFFC0000000000000
FFFFC0000000000000
FFFFC0000000000000
FFFFC0000000000000
FFFFE0000000000000
FFFFE0000000000000
FFFFF0000000000000
FFFFFC000000000003
FFFFFFFFFFFFFFFFFF
7FFFFFFFFFFFFFFFFF
7FFFFFFFFFFFFFFFFF
7FFFFFFFFFFFFFFFFF
7FFFFFFFFFFFFFFFFF
3FFFFFFFFFFFFFFFFF
3FFFFFFFFFFFFFFFFF
3FFFFFFFFFFFFFFFFF
1FFFFFFFFFFFFFFFFF
0FFFFFFFFFFFFFFFFF
0FFFFFFFFFFFFFFFFF
07FFFFFFFFFFFFFFFF
03FFFFFFFFFFFFFFFF
00FFFFFFFFFFFFFFFF
007FFFFFFFFFFFFFFF
001FFFFFFFFFFFFFFF
0001FFFFFFFFFFFFFF
ENDCHAR
STARTCHAR 0044
ENCODING 68
SWIDTH 552 0
DWIDTH 105 0
BBX 79 133 13 0
BITMAP
FFFFFFFFFFFFFFFF0000
FFFFFFFFFFFFFFFFF000
FFFFFFFFFFFFFFFFFC00
FFFFFFFFFFFFFFFFFE00
FFFFFFFFFFFFFFFFFF80
FFFFFFFFFFFFFFFFFFC0
FFFFFFFFFFFFFFFFFFE0
FFFFFFFFFFFFFFFFFFE0
FFFFFFFFFFFFFFFFFFF0
FFFFFFFFFFFFFFFFFFF8
FFFFFFFFFFFFFFFFFFF8
FFFFFFFFFFFFFFFFFFF8
FFFFFFFFFFFFFFFFFFFC
FFFFFFFFFFFFFFFFFFFC
FFFFFFFFFFFFFFFFFFFC
FFFFFFFFFFFFFFFFFFFE
FFFFFFFFFFFFFFFFFFFE
FFFFC0000000007FFFFE
FFFFC0000000001FFFFE
FFFFC0000000000FFFFE
FFFFC0000000000FFFFE
FFFFC00000000007FFFE
FFFFC00000000007FFFE
FFFFC00000000007FFFE
FFFFC00000000007FFFE
FFFFC00000000007FFFE
FFFFC00000000007FFFE
FFFFC00000000007FFFE
FFFFC00000000007FFFE
FFFFC00000000007FFFE
FFFFC00000000007FFFE
FFFFC00000000007FFFE
FFFFC00000000007FFFE
FFFFC00000000007FFFE
FFFFC00000000007FFFE
FFFFC00000000007FFFE
FFFFC00000000007FFFE
FFFFC00000000007FFFE
FFFFC00000000007FFFE
FFFFC00000000007FFFE
FFFFC00000000007FFFE
FFFFC00000000007FFFE
FFFFC00000000007FFFE
FFFFC00000000007FFFE
FFFFC00000000007FFFE
FFFFC00000000007FFFE
FFFFC00000000007FFFE
FFFFC00000000007FFFE
FFFFC00000000007FFFE
FFFFC00000000007FFFE
FFFFC00000000007FFFE
FFFFC00000000007FFFE
FFFFC00000000007FFFE
FFFFC00000000007FFFE
FFFFC00000000007FFFE
FFFFC00000000007FFFE
FFFFC00000000007FFFE
FFFFC00000000007FFFE
FFFFC00000000007FFFE
FFFFC00000000007FFFE
FFFFC00000000007FFFE
FFFFC00000000007FFFE
FFFFC00000000007FFFE
FFFFC00000000007FFFE
FFFFC00000000007FFFE
FFFFC00000000007FFFE
FFFFC00000000007FFFE
FFFFC00000000007FFFE
FFFFC00000000007FFFE
FFFFC00000000007FFFE
FFFFC00000000007FFFE
FFFFC00000000007FFFE
FFFFC00000000007FFFE
FFFFC00000000007FFFE
FFFFC00000000007FFFE
FFFFC00000000007FFFE
FFFFC00000000007FFFE
FFFFC00000000007FFFE
FFFFC00000000007FFFE
FFFFC00000000007FFFE
FFFFC00000000007FFFE
FFFFC00000000007FFFE
FFFFC00000000007FFFE
FFFFC00000000007FFFE
FFFFC00000000007FFFE
FFFFC00000000007FFFE
FFFFC00000000007FFFE
FFFFC00000000007FFFE
FFFFC00000000007FFFE
FFFFC00000000007FFFE
FFFFC00000000007FFFE
FFFFC00000000007FFFE
FFFFC00000000007FFFE
FFFFC00000000007FFFE
FFFFC00000000007FFFE
FFFFC00000000007FFFE
FFFFC00000000007FFFE
FFFFC00000000007FFFE
FFFFC00000000007FFFE
FFFFC00000000007FFFE
FFFFC00000000007FFFE
FFFFC00000000007FFFE
FFFFC00000000007FFFE
FFFFC00000000007FFFE
FFFFC00000000007FFFE
FFFFC00000000007FFFE
FFFFC00000000007FFFE
FFFFC00000000007FFFE
FFFFC00000000007FFFE
FFFFC00000000007FFFE
FFFFC00000000007FFFE
FFFFC00000000007FFFE
FFFFC0000000000FFFFE
FFFFC0000000000FFFFE
FFFFC0000000001FFFFE
FFFFC0000000007FFFFE
FFFFFFFFFFFFFFFFFFFE
FFFFFFFFFFFFFFFFFFFE
FFFFFFFFFFFFFFFFFFFC
FFFFFFFFFFFFFFFFFFFC
FFFFFFFFFFFFFFFFFFFC
FFFFFFFFFFFFFFFFFFF8
FFFFFFFFFFFFFFFFFFF8
FFFFFFFFFFFFFFFFFFF8
FFFFFFFFFFFFFFFFFFF0
FFFFFFFFFFFFFFFFFFE0
FFFFFFFFFFFFFFFFFFE0
FFFFFFFFFFFFFFFFFFC0
FFFFFFFFFFFFFFFFFF80
FFFFFFFFFFFFFFFFFE00
FFFFFFFFFFFFFFFFFC00
FFFFFFFFFFFFFFFFF000
FFFFFFFFFFFFFFFF0000
ENDCHAR
STARTCHAR 0045
ENCODING 69
SWIDTH 478 0
DWIDTH 91 0
BBX 72 133 13 0
BITMAP
FFFFFFFFFFFFFFFFF8
FFFFFFFFFFFFFFFFF8
FFFFFFFFFFFFFFFFF8
FFFFFFFFFFFFFFFFF8
FFFFFFFFFFFFFFFFF8
FFFFFFFFFFFFFFFFF8
FFFFFFFFFFFFFFFFF8
FFFFFFFFFFFFFFFFF8
FFFFFFFFFFFFFFFFF8
FFFFFFFFFFFFFFFFF8
FFFFFFFFFFFFFFFFF8
FFFFFFFFFFFFFFFFF8
FFFFFFFFFFFFFFFFF8
FFFFFFFFFFFFFFFFF8
FFFFFFFFFFFFFFFFF8
FFFFFFFFFFFFFFFFF8
FFFFC0000000000000
FFFFC0000000000000
FFFFC0000000000000
FFFFC0000000000000
FFFFC0000000000000
FFFFC0000000000000
FFFFC0000000000000
FFFFC0000000000000
FFFFC0000000000000
FFFFC0000000000000
FFFFC0000000000000
FFFFC0000000000000
FFFFC0000000000000
FFFFC0000000000000
FFFFC0000000000000
FFFFC0000000000000
FFFFC0000000000000
FFFFC0000000000000
FFFFC0000000000000
FFFFC0000000000000
FFFFC0000000000000
FFFFC0000000000000
FFFFC0000000000000
FFFFC0000000000000
FFFFC0000000000000
FFFFC0000000000000
FFFFC0000000000000
FFFFC0000000000000
FFFFC0000000000000
FFFFC0000000000000
FFFFC0000000000000
FFFFC0000000000000
FFFFC0000000000000
FFFFC0000000000000
FFFFC0000000000000
FFFFC0000000000000
FFFFC0000000000000
FFFFC0000000000000
FFFFC0000000000000
FFFFC0000000002000
FFFFFFFFFFFFFFE000
FFFFFFFFFFFFFFE000
FFFFFFFFFFFFFFE000
FFFFFFFFFFFFFFE000
FFFFFFFFFFFFFFE000
FFFFFFFFFFFFFFE000
FFFFFFFFFFFFFFE000
FFFFFFFFFFFFFFE000
FFFFFFFFFFFFFFE000
FFFFFFFFFFFFFFE000
FFFFFFFFFFFFFFE000
FFFFFFFFFFFFFFE000
FFFFFFFFFFFFFFE000
FFFFFFFFFFFFFFE000
FFFFFFFFFFFFFFE000
FFFFC0000000002000
FFFFC0000000000000
FFFFC0000000000000
FFFFC0000000000000
FFFFC0000000000000
FFFFC0000000000000
FFFFC0000000000000
FFFFC0000000000000
FFFFC0000000000000
FFFFC0000000000000
FFFFC0000000000000
FFFFC0000000000000
FFFFC0000000000000
FFFFC0000000000000
FFFFC0000000000000
FFFFC0000000000000
FFFFC0000000000000
FFFFC0000000000000
FFFFC0000000000000
FFFFC0000000000000
FFFFC0000000000000
FFFFC0000000000000
FFFFC0000000000000
FFFFC0000000000000
FFFFC0000000000000
FFFFC0000000000000
FFFFC0000000000000
FFFFC0000000000000
FFFFC0000000000000
FFFFC0000000000000
FFFFC0000000000000
FFFFC0000000000000
FFFFC0000000000000
FFFFC0000000000000
FFFFC0000000000000
FFFFC0000000000000
FFFFC0000000000000
FFFFC0000000000000
FFFFC0000000000000
FFFFC0000000000000
FFFFC0000000000000
FFFFC0000000000000
FFFFC0000000000000
FFFFC0000000000000
FFFFC0000000000000
FFFFC0000000000000
FFFFFFFFFFFFFFFFFF
FFFFFFFFFFFFFFFFFF
FFFFFFFFFFFFFFFFFF
FFFFFFFFFFFFFFFFFF
FFFFFFFFFFFFFFFFFF
FFFFFFFFFFFFFFFFFF
FFFFFFFFFFFFFFFFFF
FFFFFFFFFFFFFFFFFF
FFFFFFFFFFFFFFFFFF
FFFFFFFFFFFFFFFFFF
FFFFFFFFFFFFFFFFFF
FFFFFFFFFFFFFFFFFF
FFFFFFFFFFFFFFFFFF
FFFFFFFFFFFFFFFFFF
FFFFFFFFFFFFFFFFFF
FFFFFFFFFFFFFFFFFF
ENDCHAR
STARTCHAR 0046
ENCODING 70
SWIDTH 442 0
DWIDTH 84 0
BBX 69 133 13 0
BITMAP
FFFFFFFFFFFFFFFFF8
FFFFFFFFFFFFFFFFF8
FFFFFFFFFFFFFFFFF8
FFFFFFFFFFFFFFFFF8
FFFFFFFFFFFFFFFFF8
FFFFFFFFFFFFFFFFF8
FFFFFFFFFFFFFFFFF8
FFFFFFFFFFFFFFFFF8
FFFFFFFFFFFFFFFFF8
FFFFFFFFFFFFFFFFF8
FFFFFFFFFFFFFFFFF8
FFFFFFFFFFFFFFFFF8
FFFFFFFFFFFFFFFFF8
FFFFFFFFFFFFFFFFF8
FFFFFFFFFFFFFFFFF8
FFFFFFFFFFFFFFFFF8
FFFFC0000000000000
FFFFC0000000000000
FFFFC0000000000000
FFFFC0000000000000
FFFFC0000000000000
FFFFC0000000000000
FFFFC0000000000000
FFFFC0000000000000
FFFFC0000000000000
FFFFC0000000000000
FFFFC0000000000000
FFFFC0000000000000
FFFFC0000000000000
FFFFC0000000000000
FFFFC0000000000000
FFFFC0000000000000
FFFFC0000000000000
FFFFC0000000000000
FFFFC0000000000000
FFFFC0000000000000
FFFFC0000000000000
FFFFC0000000000000
FFFFC0000000000000
FFFFC0000000000000
FFFFC0000000000000
FFFFC0000000000000
FFFFC0000000000000
FFFFC0000000000000
FFFFC0000000000000
FFFFC0000000000000
FFFFC0000000000000
FFFFC0000000000000
FFFFC0000000000000
FFFFC0000000000000
FFFFC0000000000000
FFFFC0000000000000
FFFFC0000000000000
FFFFC0000000000000
FFFFC0000000000000
FFFFC0000000002000
FFFFFFFFFFFFFFE000
FFFFFFFFFFFFFFE000
FFFFFFFFFFFFFFE000
FFFFFFFFFFFFFFE000
FFFFFFFFFFFFFFE000
FFFFFFFFFFFFFFE000
FFFFFFFFFFFFFFE000
FFFFFFFFFFFFFFE000
FFFFFFFFFFFFFFE000
FFFFFFFFFFFFFFE000
FFFFFFFFFFFFFFE000
FFFFFFFFFFFFFFE000
FFFFFFFFFFFFFFE000
FFFFFFFFFFFFFFE000
FFFFFFFFFFFFFFE000
FFFFC0000000002000
FFFFC0000000000000
FFFFC0000000000000
FFFFC0000000000000
FFFFC0000000000000
FFFFC0000000000000
FFFFC0000000000000
FFFFC0000000000000
FFFFC0000000000000
FFFFC0000000000000
FFFFC0000000000000
FFFFC0000000000000
FFFFC0000000000000
FFFFC0000000000000
FFFFC0000000000000
FFFFC0000000000000
FFFFC0000000000000
FFFFC0000000000000
FFFFC0000000000000
FFFFC0000000000000
FFFFC0000000000000
FFFFC0000000000000
FFFFC0000000000000
FFFFC0000000000000
FFFFC0000000000000
FFFFC0000000000000
FFFFC0000000000000
FFFFC0000000000000
FFFFC0000000000000
FFFFC0000000000000
FFFFC0000000000000
FFFFC0000000000000
FFFFC0000000000000
FFFFC0000000000000
FFFFC0000000000000
FFFFC0000000000000
FFFFC0000000000000
FFFFC0000000000000
FFFFC0000000000000
FFFFC0000000000000
FFFFC0000000000000
FFFFC0000000000000
FFFFC0000000000000
FFFFC0000000000000
FFFFC0000000000000
FFFFC0000000000000
FFFFC0000000000000
FFFFC0000000000000
FFFFC0000000000000
FFFFC0000000000000
FFFFC0000000000000
FFFFC0000000000000
FFFFC0000000000000
FFFFC0000000000000
FFFFC0000000000000
FFFFC0000000000000
FFFFC0000000000000
FFFFC0000000000000
FFFFC0000000000000
FFFFC0000000000000
FFFFC0000000000000
FFFFC0000000000000
ENDCHAR
STARTCHAR 0047
ENCODING 71
SWIDTH 552 0
DWIDTH 105 0
BBX 79 133 13 0
BITMAP
0000FFFFFFFFFFFFFFFE
000FFFFFFFFFFFFFFFFE
003FFFFFFFFFFFFFFFFE
00FFFFFFFFFFFFFFFFFE
01FFFFFFFFFFFFFFFFFE
03FFFFFFFFFFFFFFFFFE
07FFFFFFFFFFFFFFFFFE
0FFFFFFFFFFFFFFFFFFE
1FFFFFFFFFFFFFFFFFFE
1FFFFFFFFFFFFFFFFFFE
3FFFFFFFFFFFFFFFFFFE
3FFFFFFFFFFFFFFFFFFE
7FFFFFFFFFFFFFFFFFFE
7FFFFFFFFFFFFFFFFFFE
7FFFFFFFFFFFFFFFFFFE
7FFFFFFFFFFFFFFFFFFE
FFFFFFFFFFFFFFFFFFFE
FFFFFC00000000000006
FFFFF000000000000000
FFFFE000000000000000
FFFFE000000000000000
FFFFC000000000000000
FFFFC000000000000000
FFFFC000000000000000
FFFFC000000000000000
FFFFC000000000000000
FFFFC000000000000000
FFFFC000000000000000
FFFFC000000000000000
FFFFC000000000000000
FFFFC000000000000000
FFFFC000000000000000
FFFFC000000000000000
FFFFC000000000000000
FFFFC000000000000000
FFFFC000000000000000
FFFFC000000000000000
FFFFC000000000000000
FFFFC000000000000000
FFFFC000000000000000
FFFFC000000000000000
FFFFC000000000000000
FFFFC000000000000000
FFFFC000000000000000
FFFFC000000000000000
FFFFC000000000000000
FFFFC000000000000000
FFFFC000000000000000
FFFFC000000000000000
FFFFC000000000000000
FFFFC000000000000000
FFFFC000000000000000
FFFFC000000000000000
FFFFC000000000000000
FFFFC000000000000000
FFFFC000020000000000
FFFFC00003FFFFFFFFFE
FFFFC00003FFFFFFFFFE
FFFFC00003FFFFFFFFFE
FFFFC00003FFFFFFFFFE
FFFFC00003FFFFFFFFFE
FFFFC00003FFFFFFFFFE
FFFFC00003FFFFFFFFFE
FFFFC00003FFFFFFFFFE
FFFFC00003FFFFFFFFFE
FFFFC00003FFFFFFFFFE
FFFFC00003FFFFFFFFFE
FFFFC00003FFFFFFFFFE
FFFFC00003FFFFFFFFFE
FFFFC00003FFFFFFFFFE
FFFFC00003FFFFFFFFFE
FFFFC00002000007FFFE
FFFFC00000000007FFFE
FFFFC00000000007FFFE
FFFFC00000000007FFFE
FFFFC00000000007FFFE
FFFFC00000000007FFFE
FFFFC00000000007FFFE
FFFFC00000000007FFFE
FFFFC00000000007FFFE
FFFFC00000000007FFFE
FFFFC00000000007FFFE
FFFFC00000000007FFFE
FFFFC00000000007FFFE
FFFFC00000000007FFFE
FFFFC00000000007FFFE
FFFFC00000000007FFFE
FFFFC00000000007FFFE
FFFFC00000000007FFFE
FFFFC00000000007FFFE
FFFFC00000000007FFFE
FFFFC00000000007FFFE
FFFFC00000000007FFFE
FFFFC00000000007FFFE
FFFFC00000000007FFFE
FFFFC00000000007FFFE
FFFFC00000000007FFFE
FFFFC00000000007FFFE
FFFFC00000000007FFFE
FFFFC00000000007FFFE
FFFFC00000000007FFFE
FFFFC00000000007FFFE
FFFFC00000000007FFFE
FFFFC00000000007FFFE
FFFFC00000000007FFFE
FFFFC00000000007FFFE
FFFFC00000000007FFFE
FFFFC00000000007FFFE
FFFFC00000000007FFFE
FFFFC00000000007FFFE
FFFFC00000000007FFFE
FFFFC00000000007FFFE
FFFFE0000000000FFFFE
FFFFE0000000000FFFFE
FFFFF0000000001FFFFE
FFFFFC000000007FFFFE
FFFFFFFFFFFFFFFFFFFE
7FFFFFFFFFFFFFFFFFFE
7FFFFFFFFFFFFFFFFFFC
7FFFFFFFFFFFFFFFFFFC
7FFFFFFFFFFFFFFFFFFC
3FFFFFFFFFFFFFFFFFF8
3FFFFFFFFFFFFFFFFFF8
3FFFFFFFFFFFFFFFFFF8
1FFFFFFFFFFFFFFFFFF0
0FFFFFFFFFFFFFFFFFE0
0FFFFFFFFFFFFFFFFFE0
07FFFFFFFFFFFFFFFFC0
03FFFFFFFFFFFFFFFF80
00FFFFFFFFFFFFFFFE00
007FFFFFFFFFFFFFFC00
001FFFFFFFFFFFFFF000
0001FFFFFFFFFFFF0000
ENDCHAR
STARTCHAR 0048
ENCODING 72
SWIDTH 552 0
DWIDTH 105 0
BBX 79 132 13 1
BITMAP
FFFFC00000000007FFFE
FFFFC00000000007FFFE
FFFFC00000000007FFFE
FFFFC00000000007FFFE
FFFFC00000000007FFFE
FFFFC00000000007FFFE
FFFFC00000000007FFFE
FFFFC00000000007FFFE
FFFFC00000000007FFFE
FFFFC00000000007FFFE
FFFFC00000000007FFFE
FFFFC00000000007FFFE
FFFFC00000000007FFFE
FFFFC00000000007FFFE
FFFFC00000000007FFFE
FFFFC00000000007FFFE
FFFFC00000000007FFFE
FFFFC00000000007FFFE
FFFFC00000000007FFFE
FFFFC00000000007FFFE
FFFFC00000000007FFFE
FFFFC00000000007FFFE
FFFFC00000000007FFFE
FFFFC00000000007FFFE
FFFFC00000000007FFFE
FFFFC00000000007FFFE
FFFFC00000000007FFFE
FFFFC00000000007FFFE
FFFFC00000000007FFFE
FFFFC00000000007FFFE
FFFFC00000000007FFFE
FFFFC00000000007FFFE
FFFFC00000000007FFFE
FFFFC00000000007FFFE
FFFFC00000000007FFFE
FFFFC00000000007FFFE
FFFFC00000000007FFFE
FFFFC00000000007FFFE
FFFFC00000000007FFFE
FFFFC00000000007FFFE
FFFFC00000000007FFFE
FFFFC00000000007FFFE
FFFFC00000000007FFFE
FFFFC00000000007FFFE
FFFFC00000000007FFFE
FFFFC00000000007FFFE
FFFFC00000000007FFFE
FFFFC00000000007FFFE
FFFFC00000000007FFFE
FFFFC00000000007FFFE
FFFFC00000000007FFFE
FFFFC00000000007FFFE
FFFFC00000000007FFFE
FFFFC00000000007FFFE
FFFFC00000000007FFFE
FFFFFFFFFFFFFFFFFFFE
FFFFFFFFFFFFFFFFFFFE
FFFFFFFFFFFFFFFFFFFE
FFFFFFFFFFFFFFFFFFFE
FFFFFFFFFFFFFFFFFFFE
FFFFFFFFFFFFFFFFFFFE
FFFFFFFFFFFFFFFFFFFE
FFFFFFFFFFFFFFFFFFFE
FFFFFFFFFFFFFFFFFFFE
FFFFFFFFFFFFFFFFFFFE
FFFFFFFFFFFFFFFFFFFE
FFFFFFFFFFFFFFFFFFFE
FFFFFFFFFFFFFFFFFFFE
FFFFFFFFFFFFFFFFFFFE
FFFFFFFFFFFFFFFFFFFE
FFFFC00000000007FFFE
FFFFC00000000007FFFE
FFFFC00000000007FFFE
FFFFC00000000007FFFE
FFFFC00000000007FFFE
FFFFC00000000007FFFE
FFFFC00000000007FFFE
FFFFC00000000007FFFE
FFFFC00000000007FFFE
FFFFC00000000007FFFE
FFFFC00000000007FFFE
FFFFC00000000007FFFE
FFFFC00000000007FFFE
FFFFC00000000007FFFE
FFFFC00000000007FFFE
FFFFC00000000007FFFE
FFFFC00000000007FFFE
FFFFC00000000007FFFE
FFFFC00000000007FFFE
FFFFC00000000007FFFE
FFFFC00000000007FFFE
FFFFC00000000007FFFE
FFFFC00000000007FFFE
FFFFC00000000007FFFE
FFFFC00000000007FFFE
FFFFC00000000007FFFE
FFFFC00000000007FFFE
FFFFC00000000007FFFE
FFFFC00000000007FFFE
FFFFC00000000007FFFE
FFFFC00000000007FFFE
FFFFC00000000007FFFE
FFFFC00000000007FFFE
FFFFC00000000007FFFE
FFFFC00000000007FFFE
FFFFC00000000007FFFE
FFFFC00000000007FFFE
FFFFC00000000007FFFE
FFFFC00000000007FFFE
FFFFC00000000007FFFE
FFFFC00000000007FFFE
FFFFC00000000007FFFE
FFFFC00000000007FFFE
FFFFC00000000007FFFE
FFFFC00000000007FFFE
FFFFC00000000007FFFE
FFFFC00000000007FFFE
FFFFC00000000007FFFE
FFFFC00000000007FFFE
FFFFC00000000007FFFE
FFFFC00000000007FFFE
FFFFC00000000007FFFE
FFFFC00000000007FFFE
FFFFC00000000007FFFE
FFFFC00000000007FFFE
FFFFC00000000007FFFE
FFFFC00000000007FFFE
FFFFC00000000007FFFE
FFFFC00000000007FFFE
FFFFC00000000007FFFE
FFFFC00000000007FFFE
FFFFC00000000007FFFE
ENDCHAR
STARTCHAR 0049
ENCODING 73
SWIDTH 236 0
DWIDTH 45 0
BBX 18 133 13 0
BITMAP
FFFFC0
FFFFC0
FFFFC0
FFFFC0
FFFFC0
FFFFC0
FFFFC0
FFFFC0
FFFFC0
FFFFC0
FFFFC0
FFFFC0
FFFFC0
FFFFC0
FFFFC0
FFFFC0
FFFFC0
FFFFC0
FFFFC0
FFFFC0
FFFFC0
FFFFC0
FFFFC0
FFFFC0
FFFFC0
FFFFC0
FFFFC0
FFFFC0
FFFFC0
FFFFC0
FFFFC0
FFFFC0
FFFFC0
FFFFC0
FFFFC0
FFFFC0
FFFFC0
FFFFC0
FFFFC0
FFFFC0
FFFFC0
FFFFC0
FFFFC0
FFFFC0
FFFFC0
FFFFC0
FFFFC0
FFFFC0
FFFFC0
FFFFC0
FFFFC0
FFFFC0
FFFFC0
FFFFC0
FFFFC0
FFFFC0
FFFFC0
FFFFC0
FFFFC0
FFFFC0
FFFFC0
FFFFC0
FFFFC0
FFFFC0
FFFFC0
FFFFC0
FFFFC0
FFFFC0
FFFFC0
FFFFC0
FFFFC0
FFFFC0
FFFFC0
FFFFC0
FFFFC0
FFFFC0
FFFFC0
FFFFC0
FFFFC0
FFFFC0
FFFFC0
FFFFC0
FFFFC0
FFFFC0
FFFFC0
FFFFC0
FFFFC0
FFFFC0
FFFFC0
FFFFC0
FFFFC0
FFFFC0
FFFFC0
FFFFC0
FFFFC0
FFFFC0
FFFFC0
FFFFC0
FFFFC0
FFFFC0
FFFFC0
FFFFC0
FFFFC0
FFFFC0
FFFFC0
FFFFC0
FFFFC0
FFFFC0
FFFFC0
FFFFC0
FFFFC0
FFFFC0
FFFFC0
FFFFC0
FFFFC0
FFFFC0
FFFFC0
FFFFC0
FFFFC0
FFFFC0
FFFFC0
FFFFC0
FFFFC0
FFFFC0
FFFFC0
FFFFC0
FFFFC0
FFFFC0
FFFFC0
FFFFC0
FFFFC0
FFFFC0
FFFFC0
ENDCHAR
STARTCHAR 004A
ENCODING 74
SWIDTH 331 0
DWIDTH 63 0
BBX 47 133 2 0
BITMAP
00000007FFFE
00000007FFFE
00000007FFFE
00000007FFFE
00000007FFFE
00000007FFFE
00000007FFFE
00000007FFFE
00000007FFFE
00000007FFFE
00000007FFFE
00000007FFFE
00000007FFFE
00000007FFFE
00000007FFFE
00000007FFFE
00000007FFFE
00000007FFFE
00000007FFFE
00000007FFFE
00000007FFFE
00000007FFFE
00000007FFFE
00000007FFFE
00000007FFFE
00000007FFFE
00000007FFFE
00000007FFFE
00000007FFFE
00000007FFFE
00000007FFFE
00000007FFFE
00000007FFFE
00000007FFFE
00000007FFFE
00000007FFFE
00000007FFFE
00000007FFFE
00000007FFFE
00000007FFFE
00000007FFFE
00000007FFFE
00000007FFFE
00000007FFFE
00000007FFFE
00000007FFFE
00000007FFFE
00000007FFFE
00000007FFFE
00000007FFFE
00000007FFFE
00000007FFFE
00000007FFFE
00000007FFFE
00000007FFFE
00000007FFFE
00000007FFFE
00000007FFFE
00000007FFFE
00000007FFFE
00000007FFFE
00000007FFFE
00000007FFFE
00000007FFFE
00000007FFFE
00000007FFFE
00000007FFFE
00000007FFFE
00000007FFFE
00000007FFFE
00000007FFFE
00000007FFFE
00000007FFFE
00000007FFFE
00000007FFFE
00000007FFFE
00000007FFFE
00000007FFFE
00000007FFFE
00000007FFFE
00000007FFFE
00000007FFFE
00000007FFFE
00000007FFFE
00000007FFFE
00000007FFFE
00000007FFFE
00000007FFFE
00000007FFFE
00000007FFFE
00000007FFFE
00000007FFFE
00000007FFFE
00000007FFFE
00000007FFFE
00000007FFFE
00000007FFFE
00000007FFFE
00000007FFFE
00000007FFFE
00000007FFFE
00000007FFFE
00000007FFFE
00000007FFFE
00000007FFFE
00000007FFFE
00000007FFFE
00000007FFFE
00000007FFFE
00000007FFFE
00000007FFFE
00000007FFFE
0000000FFFFE
0000000FFFFE
0000001FFFFE
8000003FFFFE
FFFFFFFFFFFE
FFFFFFFFFFFE
FFFFFFFFFFFC
FFFFFFFFFFFC
FFFFFFFFFFFC
FFFFFFFFFFFC
FFFFFFFFFFF8
FFFFFFFFFFF8
FFFFFFFFFFF0
FFFFFFFFFFE0
FFFFFFFFFFE0
FFFFFFFFFFC0
FFFFFFFFFF80
FFFFFFFFFF00
FFFFFFFFFC00
FFFFFFFFF000
FFFFFFFF0000
ENDCHAR
STARTCHAR 004B
ENCODING 75
SWIDTH 536 0
DWIDTH 102 0
BBX 85 132 13 1
BITMAP
FFFFE00000000003FFFFC0
FFFFE00000000003FFFFC0
FFFFE00000000007FFFFC0
FFFFE00000000007FFFF80
FFFFE0000000000FFFFF80
FFFFE0000000000FFFFF00
FFFFE0000000001FFFFF00
FFFFE0000000001FFFFE00
FFFFE0000000001FFFFE00
FFFFE0000000003FFFFE00
FFFFE0000000003FFFFC00
FFFFE0000000007FFFFC00
FFFFE0000000007FFFF800
FFFFE0000000007FFFF800
FFFFE000000000FFFFF000
FFFFE000000000FFFFF000
FFFFE000000001FFFFF000
FFFFE000000001FFFFE000
FFFFE000000001FFFFE000
FFFFE000000003FFFFC000
FFFFE000000003FFFFC000
FFFFE000000007FFFF8000
FFFFE000000007FFFF8000
FFFFE00000000FFFFF8000
FFFFE00000000FFFFF0000
FFFFE00000000FFFFF0000
FFFFE00000001FFFFE0000
FFFFE00000001FFFFE0000
FFFFE00000003FFFFC0000
FFFFE00000003FFFFC0000
FFFFE00000003FFFFC0000
FFFFE00000007FFFF80000
FFFFE00000007FFFF80000
FFFFE0000000FFFFF00000
FFFFE0000000FFFFF00000
FFFFE0000000FFFFE00000
FFFFE0000001FFFFE00000
FFFFE0000001FFFFE00000
FFFFE0000003FFFFC00000
FFFFE0000003FFFFC00000
FFFFE0000007FFFF800000
FFFFE0000007FFFF800000
FFFFE0000007FFFF000000
FFFFE000000FFFFF000000
FFFFE000000FFFFF000000
FFFFE000001FFFFE000000
FFFFE000001FFFFE000000
FFFFE000001FFFFC000000
FFFFE000003FFFFC000000
FFFFE000003FFFF8000000
FFFFE000007FFFF8000000
FFFFE00000FFFFF8000000
FFFFE00001FFFFF0000000
FFFFE00003FFFFF0000000
FFFFE0000FFFFFE0000000
FFFFFFFFFFFFFFC0000000
FFFFFFFFFFFFFFC0000000
FFFFFFFFFFFFFF80000000
FFFFFFFFFFFFFF00000000
FFFFFFFFFFFFFE00000000
FFFFFFFFFFFFF800000000
FFFFFFFFFFFFF000000000
FFFFFFFFFFFFE000000000
FFFFFFFFFFFFF800000000
FFFFFFFFFFFFFE00000000
FFFFFFFFFFFFFF00000000
FFFFFFFFFFFFFF80000000
FFFFFFFFFFFFFFC0000000
FFFFFFFFFFFFFFC0000000
FFFFFFFFFFFFFFE0000000
FFFFE00007FFFFF0000000
FFFFE00001FFFFF0000000
FFFFE00000FFFFF8000000
FFFFE000007FFFF8000000
FFFFE000007FFFF8000000
FFFFE000003FFFFC000000
FFFFE000003FFFFC000000
FFFFE000001FFFFE000000
FFFFE000001FFFFE000000
FFFFE000001FFFFF000000
FFFFE000000FFFFF000000
FFFFE000000FFFFF000000
FFFFE0000007FFFF800000
FFFFE0000007FFFF800000
FFFFE0000007FFFFC00000
FFFFE0000003FFFFC00000
FFFFE0000003FFFFC00000
FFFFE0000001FFFFE00000
FFFFE0000001FFFFE00000
FFFFE0000001FFFFF00000
FFFFE0000000FFFFF00000
FFFFE0000000FFFFF80000
FFFFE00000007FFFF80000
FFFFE00000007FFFF80000
FFFFE00000007FFFFC0000
FFFFE00000003FFFFC0000
FFFFE00000003FFFFE0000
FFFFE00000001FFFFE0000
FFFFE00000001FFFFF0000
FFFFE00000001FFFFF0000
FFFFE00000000FFFFF0000
FFFFE00000000FFFFF8000
FFFFE00000000FFFFF8000
FFFFE000000007FFFFC000
FFFFE000000007FFFFC000
FFFFE000000003FFFFC000
FFFFE000000003FFFFE000
FFFFE000000003FFFFE000
FFFFE000000001FFFFF000
FFFFE000000001FFFFF000
FFFFE000000000FFFFF800
FFFFE000000000FFFFF800
FFFFE000000000FFFFF800
FFFFE0000000007FFFFC00
FFFFE0000000007FFFFC00
FFFFE0000000003FFFFE00
FFFFE0000000003FFFFE00
FFFFE0000000003FFFFE00
FFFFE0000000001FFFFF00
FFFFE0000000001FFFFF00
FFFFE0000000000FFFFF80
FFFFE0000000000FFFFF80
FFFFE0000000000FFFFFC0
FFFFE00000000007FFFFC0
FFFFE00000000007FFFFC0
FFFFE00000000003FFFFE0
FFFFE00000000003FFFFE0
FFFFE00000000003FFFFF0
FFFFE00000000001FFFFF0
FFFFE00000000001FFFFF0
FFFFE00000000000FFFFF8
FFFFE00000000000FFFFF8
ENDCHAR
STARTCHAR 004C
ENCODING 76
SWIDTH 452 0
DWIDTH 86 0
BBX 71 133 13 0
BITMAP
FFFFC0000000000000
FFFFC0000000000000
FFFFC0000000000000
FFFFC0000000000000
FFFFC0000000000000
FFFFC0000000000000
FFFFC0000000000000
FFFFC0000000000000
FFFFC0000000000000
FFFFC0000000000000
FFFFC0000000000000
FFFFC0000000000000
FFFFC0000000000000
FFFFC0000000000000
FFFFC0000000000000
FFFFC0000000000000
FFFFC0000000000000
FFFFC0000000000000
FFFFC0000000000000
FFFFC0000000000000
FFFFC0000000000000
FFFFC0000000000000
FFFFC0000000000000
FFFFC0000000000000
FFFFC0000000000000
FFFFC0000000000000
FFFFC0000000000000
FFFFC0000000000000
FFFFC0000000000000
FFFFC0000000000000
FFFFC0000000000000
FFFFC0000000000000
FFFFC0000000000000
FFFFC0000000000000
FFFFC0000000000000
FFFFC0000000000000
FFFFC0000000000000
FFFFC0000000000000
FFFFC0000000000000
FFFFC0000000000000
FFFFC0000000000000
FFFFC0000000000000
FFFFC0000000000000
FFFFC0000000000000
FFFFC0000000000000
FFFFC0000000000000
FFFFC0000000000000
FFFFC0000000000000
FFFFC0000000000000
FFFFC0000000000000
FFFFC0000000000000
FFFFC0000000000000
FFFFC0000000000000
FFFFC0000000000000
FFFFC0000000000000
FFFFC0000000000000
FFFFC0000000000000
FFFFC0000000000000
FFFFC0000000000000
FFFFC0000000000000
FFFFC0000000000000
FFFFC0000000000000
FFFFC0000000000000
FFFFC0000000000000
FFFFC0000000000000
FFFFC0000000000000
FFFFC0000000000000
FFFFC0000000000000
FFFFC0000000000000
FFFFC0000000000000
FFFFC0000000000000
FFFFC0000000000000
FFFFC0000000000000
FFFFC0000000000000
FFFFC0000000000000
FFFFC0000000000000
FFFFC0000000000000
FFFFC0000000000000
FFFFC0000000000000
FFFFC0000000000000
FFFFC0000000000000
FFFFC0000000000000
FFFFC0000000000000
FFFFC0000000000000
FFFFC0000000000000
FFFFC0000000000000
FFFFC0000000000000
FFFFC0000000000000
FFFFC0000000000000
FFFFC0000000000000
FFFFC0000000000000
FFFFC0000000000000
FFFFC0000000000000
FFFFC0000000000000
FFFFC0000000000000
FFFFC0000000000000
FFFFC0000000000000
FFFFC0000000000000
FFFFC0000000000000
FFFFC0000000000000
FFFFC0000000000000
FFFFC0000000000000
FFFFC0000000000000
FFFFC0000000000000
FFFFC0000000000000
FFFFC0000000000000
FFFFC0000000000000
FFFFC0000000000000
FFFFC0000000000000
FFFFC0000000000000
FFFFC0000000000000
FFFFC0000000000000
FFFFC0000000000000
FFFFC0000000000000
FFFFC0000000000000
FFFFC0000000000000
FFFFC0000000000002
FFFFFFFFFFFFFFFFFE
FFFFFFFFFFFFFFFFFE
FFFFFFFFFFFFFFFFFE
FFFFFFFFFFFFFFFFFE
FFFFFFFFFFFFFFFFFE
FFFFFFFFFFFFFFFFFE
FFFFFFFFFFFFFFFFFE
FFFFFFFFFFFFFFFFFE
FFFFFFFFFFFFFFFFFE
FFFFFFFFFFFFFFFFFE
FFFFFFFFFFFFFFFFFE
FFFFFFFFFFFFFFFFFE
FFFFFFFFFFFFFFFFFE
FFFFFFFFFFFFFFFFFE
FFFFFFFFFFFFFFFFFE
FFFFFFFFFFFFFFFFFE
ENDCHAR
STARTCHAR 004D
ENCODING 77
SWIDTH 663 0
DWIDTH 126 0
BBX 100 133 13 0
BITMAP
FFFFFFF000000000007FFFFFF0
FFFFFFF000000000007FFFFFF0
FFFFFFF000000000007FFFFFF0
FFFFFFF800000000007FFFFFF0
FFFFFFF80000000000FFFFFFF0
FFFFFFF80000000000FFFFFFF0
FFFFFFF80000000000FFFFFFF0
FFFFFFFC0000000001FFFFFFF0
FFFFFFFC0000000001FFFFFFF0
FFFFFFFC0000000001FFFFFFF0
FFFFFFFE0000000001FFFFFFF0
FFFFFFFE0000000003FFFFFFF0
FFFFFFFE0000000003FFFFFFF0
FFFFFFFE0000000003FFFFFFF0
FFFFFFFF0000000007FFFFFFF0
FFFFFFFF0000000007FFFFFFF0
FFFFFFFF0000000007FFFFFFF0
FFFFFFFF8000000007FFFFFFF0
FFFFFFFF800000000FFFFFFFF0
FFFFFFFF800000000FFFFFFFF0
FFFFFFFF800000000FFFFFFFF0
FFFFFFFFC00000001FFFFFFFF0
FFFFFFFFC00000001FFFFFFFF0
FFFFBFFFC00000001FFFDFFFF0
FFFFBFFFE00000003FFFDFFFF0
FFFFBFFFE00000003FFFDFFFF0
FFFFBFFFE00000003FFFDFFFF0
FFFF9FFFE00000003FFF9FFFF0
FFFF9FFFF00000007FFF9FFFF0
FFFF9FFFF00000007FFF9FFFF0
FFFF8FFFF00000007FFF1FFFF0
FFFF8FFFF8000000FFFF1FFFF0
FFFF8FFFF8000000FFFF1FFFF0
FFFF8FFFF8000000FFFE1FFFF0
FFFF87FFF8000000FFFE1FFFF0
FFFF87FFFC000001FFFE1FFFF0
FFFF87FFFC000001FFFE1FFFF0
FFFF83FFFC000001FFFC1FFFF0
FFFF83FFFE000003FFFC1FFFF0
FFFF83FFFE000003FFFC1FFFF0
FFFF81FFFE000003FFF81FFFF0
FFFF81FFFE000003FFF81FFFF0
FFFF81FFFF000007FFF81FFFF0
FFFF81FFFF000007FFF81FFFF0
FFFF80FFFF000007FFF01FFFF0
FFFF80FFFF80000FFFF01FFFF0
FFFF80FFFF80000FFFF01FFFF0
FFFF807FFF80000FFFE01FFFF0
FFFF807FFF80000FFFE01FFFF0
FFFF807FFFC0001FFFE01FFFF0
FFFF807FFFC0001FFFC01FFFF0
FFFF803FFFC0001FFFC01FFFF0
FFFF803FFFE0003FFFC01FFFF0
FFFF803FFFE0003FFFC01FFFF0
FFFF801FFFE0003FFF801FFFF0
FFFF801FFFE0003FFF801FFFF0
FFFF801FFFF0007FFF801FFFF0
FFFF800FFFF0007FFF001FFFF0
FFFF800FFFF0007FFF001FFFF0
FFFF800FFFF800FFFF001FFFF0
FFFF800FFFF800FFFE001FFFF0
FFFF8007FFF800FFFE001FFFF0
FFFF8007FFF800FFFE001FFFF0
FFFF8007FFFC01FFFE001FFFF0
FFFF8003FFFC01FFFC001FFFF0
FFFF8003FFFC01FFFC001FFFF0
FFFF8003FFFC03FFFC001FFFF0
FFFF8003FFFE03FFF8001FFFF0
FFFF8001FFFE03FFF8001FFFF0
FFFF8001FFFE03FFF8001FFFF0
FFFF8001FFFF07FFF0001FFFF0
FFFF8000FFFF07FFF0001FFFF0
FFFF8000FFFF07FFF0001FFFF0
FFFF8000FFFF0FFFF0001FFFF0
FFFF80007FFF8FFFE0001FFFF0
FFFF80007FFF8FFFE0001FFFF0
FFFF80007FFF8FFFE0001FFFF0
FFFF80007FFFDFFFC0001FFFF0
FFFF80003FFFDFFFC0001FFFF0
FFFF80003FFFDFFFC0001FFFF0
FFFF80003FFFFFFFC0001FFFF0
FFFF80001FFFFFFF80001FFFF0
FFFF80001FFFFFFF80001FFFF0
FFFF80001FFFFFFF80001FFFF0
FFFF80001FFFFFFF00001FFFF0
FFFF80000FFFFFFF00001FFFF0
FFFF80000FFFFFFF00001FFFF0
FFFF80000FFFFFFE00001FFFF0
FFFF800007FFFFFE00001FFFF0
FFFF800007FFFFFE00001FFFF0
FFFF800007FFFFFE00001FFFF0
FFFF800003FFFFFC00001FFFF0
FFFF800003FFFFFC00001FFFF0
FFFF800003FFFFFC00001FFFF0
FFFF800003FFFFF800001FFFF0
FFFF800001FFFFF800001FFFF0
FFFF800001FFFFF800001FFFF0
FFFF800001FFFFF000001FFFF0
FFFF800000FFFFF000001FFFF0
FFFF800000FFFFF000001FFFF0
FFFF80000000000000001FFFF0
FFFF80000000000000001FFFF0
FFFF80000000000000001FFFF0
FFFF80000000000000001FFFF0
FFFF80000000000000001FFFF0
FFFF80000000000000001FFFF0
FFFF80000000000000001FFFF0
FFFF80000000000000001FFFF0
FFFF80000000000000001FFFF0
FFFF80000000000000001FFFF0
FFFF80000000000000001FFFF0
FFFF80000000000000001FFFF0
FFFF80000000000000001FFFF0
FFFF80000000000000001FFFF0
FFFF80000000000000001FFFF0
FFFF80000000000000001FFFF0
FFFF80000000000000001FFFF0
FFFF80000000000000001FFFF0
FFFF80000000000000001FFFF0
FFFF80000000000000001FFFF0
FFFF80000000000000001FFFF0
FFFF80000000000000001FFFF0
FFFF80000000000000001FFFF0
FFFF80000000000000001FFFF0
FFFF80000000000000001FFFF0
FFFF80000000000000001FFFF0
FFFF80000000000000001FFFF0
FFFF80000000000000001FFFF0
FFFF80000000000000001FFFF0
FFFF80000000000000001FFFF0
FFFF80000000000000001FFFF0
FFFF80000000000000001FFFF0
FFFF80000000000000001FFFF0
ENDCHAR
STARTCHAR 004E
ENCODING 78
SWIDTH 557 0
DWIDTH 106 0
BBX 80 133 13 0
BITMAP
FFFFF00000000001FFFF
FFFFF00000000001FFFF
FFFFF80000000001FFFF
FFFFF80000000001FFFF
FFFFFC0000000001FFFF
FFFFFC0000000001FFFF
FFFFFC0000000001FFFF
FFFFFE0000000001FFFF
FFFFFE0000000001FFFF
FFFFFF0000000001FFFF
FFFFFF0000000001FFFF
FFFFFF8000000001FFFF
FFFFFF8000000001FFFF
FFFFFF8000000001FFFF
FFFFFFC000000001FFFF
FFFFFFC000000001FFFF
FFFFFFE000000001FFFF
FFFFFFE000000001FFFF
FFFFFFF000000001FFFF
FFFFFFF000000001FFFF
FFFFFFF000000001FFFF
FFFFFFF800000001FFFF
FFFFFFF800000001FFFF
FFFFFFFC00000001FFFF
FFFFFFFC00000001FFFF
FFFFFFFE00000001FFFF
FFFFFFFE00000001FFFF
FFFFFFFF00000001FFFF
FFFFFFFF00000001FFFF
FFFFFFFF00000001FFFF
FFFFFFFF80000001FFFF
FFFFFFFF80000001FFFF
FFFFFFFFC0000001FFFF
FFFFFFFFC0000001FFFF
FFFFFFFFE0000001FFFF
FFFFBFFFE0000001FFFF
FFFFBFFFE0000001FFFF
FFFF9FFFF0000001FFFF
FFFF9FFFF0000001FFFF
FFFF8FFFF8000001FFFF
FFFF8FFFF8000001FFFF
FFFF8FFFFC000001FFFF
FFFF87FFFC000001FFFF
FFFF87FFFE000001FFFF
FFFF83FFFE000001FFFF
FFFF83FFFE000001FFFF
FFFF81FFFF000001FFFF
FFFF81FFFF000001FFFF
FFFF80FFFF800001FFFF
FFFF80FFFF800001FFFF
FFFF80FFFFC00001FFFF
FFFF807FFFC00001FFFF
FFFF807FFFC00001FFFF
FFFF803FFFE00001FFFF
FFFF803FFFE00001FFFF
FFFF801FFFF00001FFFF
FFFF801FFFF00001FFFF
FFFF801FFFF80001FFFF
FFFF800FFFF80001FFFF
FFFF800FFFFC0001FFFF
FFFF8007FFFC0001FFFF
FFFF8007FFFC0001FFFF
FFFF8003FFFE0001FFFF
FFFF8003FFFE0001FFFF
FFFF8001FFFF0001FFFF
FFFF8001FFFF0001FFFF
FFFF8001FFFF8001FFFF
FFFF8000FFFF8001FFFF
FFFF8000FFFF8001FFFF
FFFF80007FFFC001FFFF
FFFF80007FFFC001FFFF
FFFF80003FFFE001FFFF
FFFF80003FFFE001FFFF
FFFF80003FFFF001FFFF
FFFF80001FFFF001FFFF
FFFF80001FFFF801FFFF
FFFF80000FFFF801FFFF
FFFF80000FFFF801FFFF
FFFF800007FFFC01FFFF
FFFF800007FFFC01FFFF
FFFF800003FFFE01FFFF
FFFF800003FFFE01FFFF
FFFF800003FFFF01FFFF
FFFF800001FFFF01FFFF
FFFF800001FFFF01FFFF
FFFF800000FFFF81FFFF
FFFF800000FFFF81FFFF
FFFF8000007FFFC1FFFF
FFFF8000007FFFC1FFFF
FFFF8000007FFFE1FFFF
FFFF8000003FFFE1FFFF
FFFF8000003FFFF1FFFF
FFFF8000001FFFF1FFFF
FFFF8000001FFFF1FFFF
FFFF8000000FFFF9FFFF
FFFF8000000FFFF9FFFF
FFFF80000007FFFDFFFF
FFFF80000007FFFDFFFF
FFFF80000007FFFFFFFF
FFFF80000003FFFFFFFF
FFFF80000003FFFFFFFF
FFFF80000001FFFFFFFF
FFFF80000001FFFFFFFF
FFFF80000000FFFFFFFF
FFFF80000000FFFFFFFF
FFFF80000000FFFFFFFF
FFFF800000007FFFFFFF
FFFF800000007FFFFFFF
FFFF800000003FFFFFFF
FFFF800000003FFFFFFF
FFFF800000001FFFFFFF
FFFF800000001FFFFFFF
FFFF800000000FFFFFFF
FFFF800000000FFFFFFF
FFFF800000000FFFFFFF
FFFF8000000007FFFFFF
FFFF8000000007FFFFFF
FFFF8000000003FFFFFF
FFFF8000000003FFFFFF
FFFF8000000001FFFFFF
FFFF8000000001FFFFFF
FFFF8000000001FFFFFF
FFFF8000000000FFFFFF
FFFF8000000000FFFFFF
FFFF80000000007FFFFF
FFFF80000000007FFFFF
FFFF80000000003FFFFF
FFFF80000000003FFFFF
FFFF80000000003FFFFF
FFFF80000000001FFFFF
FFFF80000000001FFFFF
FFFF80000000000FFFFF
FFFF80000000000FFFFF
ENDCHAR
STARTCHAR 004F
ENCODING 79
SWIDTH 552 0
DWIDTH 105 0
BBX 79 133 13 0
BITMAP
0001FFFFFFFFFFFF0000
001FFFFFFFFFFFFFF000
007FFFFFFFFFFFFFFC00
00FFFFFFFFFFFFFFFE00
03FFFFFFFFFFFFFFFF80
07FFFFFFFFFFFFFFFFC0
0FFFFFFFFFFFFFFFFFE0
0FFFFFFFFFFFFFFFFFE0
1FFFFFFFFFFFFFFFFFF0
1FFFFFFFFFFFFFFFFFF8
3FFFFFFFFFFFFFFFFFF8
3FFFFFFFFFFFFFFFFFF8
7FFFFFFFFFFFFFFFFFFC
7FFFFFFFFFFFFFFFFFFC
7FFFFFFFFFFFFFFFFFFC
7FFFFFFFFFFFFFFFFFFE
FFFFFFFFFFFFFFFFFFFE
FFFFFC000000007FFFFE
FFFFF0000000001FFFFE
FFFFE0000000000FFFFE
FFFFE0000000000FFFFE
FFFFC00000000007FFFE
FFFFC00000000007FFFE
FFFFC00000000007FFFE
FFFFC00000000007FFFE
FFFFC00000000007FFFE
FFFFC00000000007FFFE
FFFFC00000000007FFFE
FFFFC00000000007FFFE
FFFFC00000000007FFFE
FFFFC00000000007FFFE
FFFFC00000000007FFFE
FFFFC00000000007FFFE
FFFFC00000000007FFFE
FFFFC00000000007FFFE
FFFFC00000000007FFFE
FFFFC00000000007FFFE
FFFFC00000000007FFFE
FFFFC00000000007FFFE
FFFFC00000000007FFFE
FFFFC00000000007FFFE
FFFFC00000000007FFFE
FFFFC00000000007FFFE
FFFFC00000000007FFFE
FFFFC00000000007FFFE
FFFFC00000000007FFFE
FFFFC00000000007FFFE
FFFFC00000000007FFFE
FFFFC00000000007FFFE
FFFFC00000000007FFFE
FFFFC00000000007FFFE
FFFFC00000000007FFFE
FFFFC00000000007FFFE
FFFFC00000000007FFFE
FFFFC00000000007FFFE
FFFFC00000000007FFFE
FFFFC00000000007FFFE
FFFFC00000000007FFFE
FFFFC00000000007FFFE
FFFFC00000000007FFFE
FFFFC00000000007FFFE
FFFFC00000000007FFFE
FFFFC00000000007FFFE
FFFFC00000000007FFFE
FFFFC00000000007FFFE
FFFFC00000000007FFFE
FFFFC00000000007FFFE
FFFFC00000000007FFFE
FFFFC00000000007FFFE
FFFFC00000000007FFFE
FFFFC00000000007FFFE
FFFFC00000000007FFFE
FFFFC00000000007FFFE
FFFFC00000000007FFFE
FFFFC00000000007FFFE
FFFFC00000000007FFFE
FFFFC00000000007FFFE
FFFFC00000000007FFFE
FFFFC00000000007FFFE
FFFFC00000000007FFFE
FFFFC00000000007FFFE
FFFFC00000000007FFFE
FFFFC00000000007FFFE
FFFFC00000000007FFFE
FFFFC00000000007FFFE
FFFFC00000000007FFFE
FFFFC00000000007FFFE
FFFFC00000000007FFFE
FFFFC00000000007FFFE
FFFFC00000000007FFFE
FFFFC00000000007FFFE
FFFFC00000000007FFFE
FFFFC00000000007FFFE
FFFFC00000000007FFFE
FFFFC00000000007FFFE
FFFFC00000000007FFFE
FFFFC00000000007FFFE
FFFFC00000000007FFFE
FFFFC00000000007FFFE
FFFFC00000000007FFFE
FFFFC00000000007FFFE
FFFFC00000000007FFFE
FFFFC00000000007FFFE
FFFFC00000000007FFFE
FFFFC00000000007FFFE
FFFFC00000000007FFFE
FFFFC00000000007FFFE
FFFFC00000000007FFFE
FFFFC00000000007FFFE
FFFFC00000000007FFFE
FFFFC00000000007FFFE
FFFFC00000000007FFFE
FFFFE0000000000FFFFE
FFFFE0000000000FFFFE
FFFFF0000000001FFFFE
FFFFFC000000007FFFFE
FFFFFFFFFFFFFFFFFFFE
7FFFFFFFFFFFFFFFFFFE
7FFFFFFFFFFFFFFFFFFC
7FFFFFFFFFFFFFFFFFFC
7FFFFFFFFFFFFFFFFFFC
3FFFFFFFFFFFFFFFFFF8
3FFFFFFFFFFFFFFFFFF8
3FFFFFFFFFFFFFFFFFF8
1FFFFFFFFFFFFFFFFFF0
0FFFFFFFFFFFFFFFFFE0
0FFFFFFFFFFFFFFFFFE0
07FFFFFFFFFFFFFFFFC0
03FFFFFFFFFFFFFFFF80
00FFFFFFFFFFFFFFFE00
007FFFFFFFFFFFFFFC00
001FFFFFFFFFFFFFF000
0001FFFFFFFFFFFF0000
ENDCHAR
STARTCHAR 0050
ENCODING 80
SWIDTH 526 0
DWIDTH 100 0
BBX 79 133 13 0
BITMAP
FFFFFFFFFFFFFFFF0000
FFFFFFFFFFFFFFFFF000
FFFFFFFFFFFFFFFFFC00
FFFFFFFFFFFFFFFFFE00
FFFFFFFFFFFFFFFFFF80
FFFFFFFFFFFFFFFFFFC0
FFFFFFFFFFFFFFFFFFE0
FFFFFFFFFFFFFFFFFFE0
FFFFFFFFFFFFFFFFFFF0
FFFFFFFFFFFFFFFFFFF8
FFFFFFFFFFFFFFFFFFF8
FFFFFFFFFFFFFFFFFFF8
FFFFFFFFFFFFFFFFFFFC
FFFFFFFFFFFFFFFFFFFC
FFFFFFFFFFFFFFFFFFFC
FFFFFFFFFFFFFFFFFFFE
FFFFFFFFFFFFFFFFFFFE
FFFFC0000000007FFFFE
FFFFC0000000001FFFFE
FFFFC0000000000FFFFE
FFFFC0000000000FFFFE
FFFFC00000000007FFFE
FFFFC00000000007FFFE
FFFFC00000000007FFFE
FFFFC00000000007FFFE
FFFFC00000000007FFFE
FFFFC00000000007FFFE
FFFFC00000000007FFFE
FFFFC00000000007FFFE
FFFFC00000000007FFFE
FFFFC00000000007FFFE
FFFFC00000000007FFFE
FFFFC00000000007FFFE
FFFFC00000000007FFFE
FFFFC00000000007FFFE
FFFFC00000000007FFFE
FFFFC00000000007FFFE
FFFFC00000000007FFFE
FFFFC00000000007FFFE
FFFFC00000000007FFFE
FFFFC00000000007FFFE
FFFFC00000000007FFFE
FFFFC00000000007FFFE
FFFFC00000000007FFFE
FFFFC00000000007FFFE
FFFFC00000000007FFFE
FFFFC00000000007FFFE
FFFFC00000000007FFFE
FFFFC00000000007FFFE
FFFFC00000000007FFFE
FFFFC00000000007FFFE
FFFFC00000000007FFFE
FFFFC00000000007FFFE
FFFFC00000000007FFFE
FFFFC00000000007FFFE
FFFFC00000000007FFFE
FFFFC0000000000FFFFE
FFFFC0000000001FFFFE
FFFFC0000000001FFFFE
FFFFC0000000007FFFFE
FFFFFFFFFFFFFFFFFFFE
FFFFFFFFFFFFFFFFFFFE
FFFFFFFFFFFFFFFFFFFC
FFFFFFFFFFFFFFFFFFFC
FFFFFFFFFFFFFFFFFFFC
FFFFFFFFFFFFFFFFFFFC
FFFFFFFFFFFFFFFFFFF8
FFFFFFFFFFFFFFFFFFF8
FFFFFFFFFFFFFFFFFFF0
FFFFFFFFFFFFFFFFFFF0
FFFFFFFFFFFFFFFFFFE0
FFFFFFFFFFFFFFFFFFC0
FFFFFFFFFFFFFFFFFF80
FFFFFFFFFFFFFFFFFF00
FFFFFFFFFFFFFFFFFC00
FFFFFFFFFFFFFFFFF000
FFFFFFFFFFFFFFFF0000
FFFFC000000000000000
FFFFC000000000000000
FFFFC000000000000000
FFFFC000000000000000
FFFFC000000000000000
FFFFC000000000000000
FFFFC000000000000000
FFFFC000000000000000
FFFFC000000000000000
FFFFC000000000000000
FFFFC000000000000000
FFFFC000000000000000
FFFFC000000000000000
FFFFC000000000000000
FFFFC000000000000000
FFFFC000000000000000
FFFFC000000000000000
FFFFC000000000000000
FFFFC000000000000000
FFFFC000000000000000
FFFFC000000000000000
FFFFC000000000000000
FFFFC000000000000000
FFFFC000000000000000
FFFFC000000000000000
FFFFC000000000000000
FFFFC000000000000000
FFFFC000000000000000
FFFFC000000000000000
FFFFC000000000000000
FFFFC000000000000000
FFFFC000000000000000
FFFFC000000000000000
FFFFC000000000000000
FFFFC000000000000000
FFFFC000000000000000
FFFFC000000000000000
FFFFC000000000000000
FFFFC000000000000000
FFFFC000000000000000
FFFFC000000000000000
FFFFC000000000000000
FFFFC000000000000000
FFFFC000000000000000
FFFFC000000000000000
FFFFC000000000000000
FFFFC000000000000000
FFFFC000000000000000
FFFFC000000000000000
FFFFC000000000000000
FFFFC000000000000000
FFFFC000000000000000
FFFFC000000000000000
FFFFC000000000000000
FFFFC000000000000000
FFFFC000000000000000
ENDCHAR
STARTCHAR 0051
ENCODING 81
SWIDTH 552 0
DWIDTH 105 0
BBX 79 171 13 -38
BITMAP
0001FFFFFFFFFFFF0000
001FFFFFFFFFFFFFF000
007FFFFFFFFFFFFFFC00
00FFFFFFFFFFFFFFFE00
03FFFFFFFFFFFFFFFF80
07FFFFFFFFFFFFFFFFC0
0FFFFFFFFFFFFFFFFFE0
0FFFFFFFFFFFFFFFFFE0
1FFFFFFFFFFFFFFFFFF0
1FFFFFFFFFFFFFFFFFF8
3FFFFFFFFFFFFFFFFFF8
3FFFFFFFFFFFFFFFFFF8
7FFFFFFFFFFFFFFFFFFC
7FFFFFFFFFFFFFFFFFFC
7FFFFFFFFFFFFFFFFFFC
7FFFFFFFFFFFFFFFFFFE
FFFFFFFFFFFFFFFFFFFE
FFFFFC000000007FFFFE
FFFFF0000000001FFFFE
FFFFE0000000000FFFFE
FFFFE0000000000FFFFE
FFFFC00000000007FFFE
FFFFC00000000007FFFE
FFFFC00000000007FFFE
FFFFC00000000007FFFE
FFFFC00000000007FFFE
FFFFC00000000007FFFE
FFFFC00000000007FFFE
FFFFC00000000007FFFE
FFFFC00000000007FFFE
FFFFC00000000007FFFE
FFFFC00000000007FFFE
FFFFC00000000007FFFE
FFFFC00000000007FFFE
FFFFC00000000007FFFE
FFFFC00000000007FFFE
FFFFC00000000007FFFE
FFFFC00000000007FFFE
FFFFC00000000007FFFE
FFFFC00000000007FFFE
FFFFC00000000007FFFE
FFFFC00000000007FFFE
FFFFC00000000007FFFE
FFFFC00000000007FFFE
FFFFC00000000007FFFE
FFFFC00000000007FFFE
FFFFC00000000007FFFE
FFFFC00000000007FFFE
FFFFC00000000007FFFE
FFFFC00000000007FFFE
FFFFC00000000007FFFE
FFFFC00000000007FFFE
FFFFC00000000007FFFE
FFFFC00000000007FFFE
FFFFC00000000007FFFE
FFFFC00000000007FFFE
FFFFC00000000007FFFE
FFFFC00000000007FFFE
FFFFC00000000007FFFE
FFFFC00000000007FFFE
FFFFC00000000007FFFE
FFFFC00000000007FFFE
FFFFC00000000007FFFE
FFFFC00000000007FFFE
FFFFC00000000007FFFE
FFFFC00000000007FFFE
FFFFC00000000007FFFE
FFFFC00000000007FFFE
FFFFC00000000007FFFE
FFFFC00000000007FFFE
FFFFC00000000007FFFE
FFFFC00000000007FFFE
FFFFC00000000007FFFE
FFFFC00000000007FFFE
FFFFC00000000007FFFE
FFFFC00000000007FFFE
FFFFC00000000007FFFE
FFFFC00000000007FFFE
FFFFC00000000007FFFE
FFFFC00000000007FFFE
FFFFC00000000007FFFE
FFFFC00000000007FFFE
FFFFC00000000007FFFE
FFFFC00000000007FFFE
FFFFC00000000007FFFE
FFFFC00000000007FFFE
FFFFC00000000007FFFE
FFFFC00000000007FFFE
FFFFC00000000007FFFE
FFFFC00000000007FFFE
FFFFC00000000007FFFE
FFFFC00000000007FFFE
FFFFC00000000007FFFE
FFFFC00000000007FFFE
FFFFC00000000007FFFE
FFFFC00000000007FFFE
FFFFC00000000007FFFE
FFFFC00000000007FFFE
FFFFC00000000007FFFE
FFFFC00000000007FFFE
FFFFC0007FE00007FFFE
FFFFC0007FE00007FFFE
FFFFC0007FF00007FFFE
FFFFC0003FF00007FFFE
FFFFC0003FF80007FFFE
FFFFC0003FF80007FFFE
FFFFC0001FF80007FFFE
FFFFC0001FFC0007FFFE
FFFFC0001FFC0007FFFE
FFFFC0000FFC0007FFFE
FFFFC0000FFE0007FFFE
FFFFC00007FE0007FFFE
FFFFE00007FF000FFFFE
FFFFE00007FF000FFFFE
FFFFF00003FF001FFFFE
FFFFFC0003FF803FFFFE
FFFFFFFFFFFFFFFFFFFE
FFFFFFFFFFFFFFFFFFFC
7FFFFFFFFFFFFFFFFFFC
7FFFFFFFFFFFFFFFFFFC
7FFFFFFFFFFFFFFFFFFC
3FFFFFFFFFFFFFFFFFF8
3FFFFFFFFFFFFFFFFFF8
3FFFFFFFFFFFFFFFFFF0
1FFFFFFFFFFFFFFFFFF0
0FFFFFFFFFFFFFFFFFE0
0FFFFFFFFFFFFFFFFFC0
07FFFFFFFFFFFFFFFFC0
03FFFFFFFFFFFFFFFF80
01FFFFFFFFFFFFFFFE00
007FFFFFFFFFFFFFFC00
001FFFFFFFFFFFFFF000
0001FFFFFFFFFFFF8000
00000000001FFF000000
00000000001FFF000000
00000000001FFF800000
00000000000FFF800000
00000000000FFF800000
00000000000FFFC00000
000000000007FFC00000
000000000007FFE00000
000000000007FFE00000
000000000003FFE00000
000000000003FFF00000
000000000003FFF00000
000000000001FFF00000
000000000001FFF80000
000000000001FFF80000
000000000000FFFC0000
000000000000FFFC0000
000000000000FFFC0000
000000000000FFFE0000
0000000000007FFE0000
0000000000007FFE0000
0000000000007FFF0000
0000000000003FFF0000
0000000000003FFF8000
0000000000003FFF8000
0000000000001FFF8000
0000000000001FFFC000
0000000000001FFFC000
0000000000000FFFC000
0000000000000FFFE000
0000000000000FFFE000
00000000000007FFE000
00000000000007FFF000
00000000000007FFF000
00000000000007FFF800
00000000000003FFF800
00000000000003FFF800
00000000000003FFFC00
ENDCHAR
STARTCHAR 0052
ENCODING 82
SWIDTH 563 0
DWIDTH 107 0
BBX 85 133 13 0
BITMAP
FFFFFFFFFFFFFFFF000000
FFFFFFFFFFFFFFFFF00000
FFFFFFFFFFFFFFFFFC0000
FFFFFFFFFFFFFFFFFE0000
FFFFFFFFFFFFFFFFFF8000
FFFFFFFFFFFFFFFFFFC000
FFFFFFFFFFFFFFFFFFE000
FFFFFFFFFFFFFFFFFFE000
FFFFFFFFFFFFFFFFFFF000
FFFFFFFFFFFFFFFFFFF000
FFFFFFFFFFFFFFFFFFF800
FFFFFFFFFFFFFFFFFFF800
FFFFFFFFFFFFFFFFFFFC00
FFFFFFFFFFFFFFFFFFFC00
FFFFFFFFFFFFFFFFFFFC00
FFFFFFFFFFFFFFFFFFFC00
FFFFFFFFFFFFFFFFFFFE00
FFFFC0000000007FFFFE00
FFFFC0000000001FFFFE00
FFFFC0000000000FFFFE00
FFFFC0000000000FFFFE00
FFFFC00000000007FFFE00
FFFFC00000000007FFFE00
FFFFC00000000007FFFE00
FFFFC00000000007FFFE00
FFFFC00000000007FFFE00
FFFFC00000000007FFFE00
FFFFC00000000007FFFE00
FFFFC00000000007FFFE00
FFFFC00000000007FFFE00
FFFFC00000000007FFFE00
FFFFC00000000007FFFE00
FFFFC00000000007FFFE00
FFFFC00000000007FFFE00
FFFFC00000000007FFFE00
FFFFC00000000007FFFE00
FFFFC00000000007FFFE00
FFFFC00000000007FFFE00
FFFFC00000000007FFFE00
FFFFC00000000007FFFE00
FFFFC00000000007FFFE00
FFFFC00000000007FFFE00
FFFFC00000000007FFFE00
FFFFC00000000007FFFE00
FFFFC00000000007FFFE00
FFFFC00000000007FFFE00
FFFFC00000000007FFFE00
FFFFC00000000007FFFE00
FFFFC00000000007FFFE00
FFFFC00000000007FFFE00
FFFFC00000000007FFFE00
FFFFC00000000007FFFE00
FFFFC0000000000FFFFE00
FFFFC0000000000FFFFE00
FFFFC0000000001FFFFE00
FFFFC0000000007FFFFE00
FFFFFFFFFFFFFFFFFFFE00
FFFFFFFFFFFFFFFFFFFC00
FFFFFFFFFFFFFFFFFFFC00
FFFFFFFFFFFFFFFFFFFC00
FFFFFFFFFFFFFFFFFFFC00
FFFFFFFFFFFFFFFFFFF800
FFFFFFFFFFFFFFFFFFF800
FFFFFFFFFFFFFFFFFFF000
FFFFFFFFFFFFFFFFFFF000
FFFFFFFFFFFFFFFFFFE000
FFFFFFFFFFFFFFFFFFE000
FFFFFFFFFFFFFFFFFFC000
FFFFFFFFFFFFFFFFFF8000
FFFFFFFFFFFFFFFFFE0000
FFFFFFFFFFFFFFFFFC0000
FFFFFFFFFFFFFFFFE00000
FFFFC000000FFFFC000000
FFFFC000000FFFFC000000
FFFFC0000007FFFE000000
FFFFC0000007FFFE000000
FFFFC0000007FFFE000000
FFFFC0000003FFFF000000
FFFFC0000003FFFF000000
FFFFC0000001FFFF800000
FFFFC0000001FFFF800000
FFFFC0000001FFFF800000
FFFFC0000000FFFFC00000
FFFFC0000000FFFFC00000
FFFFC0000000FFFFC00000
FFFFC00000007FFFE00000
FFFFC00000007FFFE00000
FFFFC00000007FFFF00000
FFFFC00000003FFFF00000
FFFFC00000003FFFF00000
FFFFC00000003FFFF80000
FFFFC00000001FFFF80000
FFFFC00000001FFFFC0000
FFFFC00000000FFFFC0000
FFFFC00000000FFFFC0000
FFFFC00000000FFFFE0000
FFFFC000000007FFFE0000
FFFFC000000007FFFF0000
FFFFC000000007FFFF0000
FFFFC000000003FFFF0000
FFFFC000000003FFFF8000
FFFFC000000003FFFF8000
FFFFC000000001FFFFC000
FFFFC000000001FFFFC000
FFFFC000000001FFFFC000
FFFFC000000000FFFFE000
FFFFC000000000FFFFE000
FFFFC0000000007FFFE000
FFFFC0000000007FFFF000
FFFFC0000000007FFFF000
FFFFC0000000003FFFF800
FFFFC0000000003FFFF800
FFFFC0000000003FFFF800
FFFFC0000000001FFFFC00
FFFFC0000000001FFFFC00
FFFFC0000000001FFFFE00
FFFFC0000000000FFFFE00
FFFFC0000000000FFFFE00
FFFFC0000000000FFFFF00
FFFFC00000000007FFFF00
FFFFC00000000007FFFF80
FFFFC00000000003FFFF80
FFFFC00000000003FFFF80
FFFFC00000000003FFFFC0
FFFFC00000000001FFFFC0
FFFFC00000000001FFFFE0
FFFFC00000000001FFFFE0
FFFFC00000000000FFFFE0
FFFFC00000000000FFFFF0
FFFFC00000000000FFFFF0
FFFFC000000000007FFFF0
FFFFC000000000007FFFF8
FFFFC000000000007FFFF8
ENDCHAR
STARTCHAR 0053
ENCODING 83
SWIDTH 489 0
DWIDTH 93 0
BBX 72 133 10 0
BITMAP
0000FFFFFFFFFFFFFF
000FFFFFFFFFFFFFFF
003FFFFFFFFFFFFFFF
00FFFFFFFFFFFFFFFF
01FFFFFFFFFFFFFFFF
07FFFFFFFFFFFFFFFF
07FFFFFFFFFFFFFFFF
0FFFFFFFFFFFFFFFFF
1FFFFFFFFFFFFFFFFF
1FFFFFFFFFFFFFFFFF
3FFFFFFFFFFFFFFFFF
3FFFFFFFFFFFFFFFFF
7FFFFFFFFFFFFFFFFF
7FFFFFFFFFFFFFFFFF
7FFFFFFFFFFFFFFFFF
7FFFFFFFFFFFFFFFFF
FFFFFFFFFFFFFFFFFF
FFFFFC000000000003
FFFFF0000000000000
FFFFE0000000000000
FFFFE0000000000000
FFFFC0000000000000
FFFFC0000000000000
FFFFC0000000000000
FFFFC0000000000000
FFFFC0000000000000
FFFFC0000000000000
FFFFC0000000000000
FFFFC0000000000000
FFFFC0000000000000
FFFFC0000000000000
FFFFC0000000000000
FFFFC0000000000000
FFFFC0000000000000
FFFFC0000000000000
FFFFC0000000000000
FFFFC0000000000000
FFFFE0000000000000
FFFFE0000000000000
FFFFF0000000000000
7FFFF0000000000000
7FFFF8000000000000
7FFFFC000000000000
7FFFFF000000000000
3FFFFF800000000000
3FFFFFC00000000000
1FFFFFE00000000000
1FFFFFF80000000000
0FFFFFFC0000000000
0FFFFFFE0000000000
07FFFFFF0000000000
03FFFFFFC000000000
01FFFFFFE000000000
00FFFFFFF000000000
007FFFFFF800000000
003FFFFFFC00000000
001FFFFFFF00000000
000FFFFFFF80000000
0003FFFFFFC0000000
0001FFFFFFE0000000
0000FFFFFFF8000000
00007FFFFFFC000000
00001FFFFFFE000000
00000FFFFFFF000000
000007FFFFFFC00000
000003FFFFFFE00000
000001FFFFFFF00000
0000007FFFFFF80000
0000003FFFFFFC0000
0000001FFFFFFF0000
0000000FFFFFFF8000
00000003FFFFFFC000
00000001FFFFFFE000
00000000FFFFFFF800
000000007FFFFFFC00
000000003FFFFFFE00
000000000FFFFFFF00
0000000007FFFFFF80
0000000003FFFFFFC0
0000000001FFFFFFE0
00000000007FFFFFE0
00000000003FFFFFF0
00000000001FFFFFF8
00000000000FFFFFF8
000000000007FFFFFC
000000000001FFFFFC
000000000000FFFFFE
0000000000007FFFFE
0000000000003FFFFE
0000000000001FFFFE
0000000000000FFFFF
00000000000007FFFF
00000000000007FFFF
00000000000003FFFF
00000000000003FFFF
00000000000003FFFF
00000000000003FFFF
00000000000003FFFF
00000000000003FFFF
00000000000003FFFF
00000000000003FFFF
00000000000003FFFF
00000000000003FFFF
00000000000003FFFF
00000000000003FFFF
00000000000003FFFF
00000000000003FFFF
00000000000003FFFF
00000000000003FFFF
00000000000003FFFF
00000000000003FFFF
00000000000003FFFF
00000000000007FFFF
00000000000007FFFF
0000000000000FFFFF
C000000000001FFFFF
FFFFFFFFFFFFFFFFFF
FFFFFFFFFFFFFFFFFF
FFFFFFFFFFFFFFFFFE
FFFFFFFFFFFFFFFFFE
FFFFFFFFFFFFFFFFFE
FFFFFFFFFFFFFFFFFE
FFFFFFFFFFFFFFFFFC
FFFFFFFFFFFFFFFFFC
FFFFFFFFFFFFFFFFF8
FFFFFFFFFFFFFFFFF8
FFFFFFFFFFFFFFFFF0
FFFFFFFFFFFFFFFFE0
FFFFFFFFFFFFFFFFC0
FFFFFFFFFFFFFFFF80
FFFFFFFFFFFFFFFE00
FFFFFFFFFFFFFFF800
FFFFFFFFFFFFFF8000
ENDCHAR
STARTCHAR 0054
ENCODING 84
SWIDTH 463 0
DWIDTH 88 0
BBX 78 133 5 0
BITMAP
FFFFFFFFFFFFFFFFFFFC
FFFFFFFFFFFFFFFFFFFC
FFFFFFFFFFFFFFFFFFFC
FFFFFFFFFFFFFFFFFFFC
FFFFFFFFFFFFFFFFFFFC
FFFFFFFFFFFFFFFFFFFC
FFFFFFFFFFFFFFFFFFFC
FFFFFFFFFFFFFFFFFFFC
FFFFFFFFFFFFFFFFFFFC
FFFFFFFFFFFFFFFFFFFC
FFFFFFFFFFFFFFFFFFFC
FFFFFFFFFFFFFFFFFFFC
FFFFFFFFFFFFFFFFFFFC
FFFFFFFFFFFFFFFFFFFC
FFFFFFFFFFFFFFFFFFFC
FFFFFFFFFFFFFFFFFFFC
FFFFFFFFFFFFFFFFFFFC
00000003FFFF00000004
00000003FFFF00000000
00000003FFFF00000000
00000003FFFF00000000
00000003FFFF00000000
00000003FFFF00000000
00000003FFFF00000000
00000003FFFF00000000
00000003FFFF00000000
00000003FFFF00000000
00000003FFFF00000000
00000003FFFF00000000
00000003FFFF00000000
00000003FFFF00000000
00000003FFFF00000000
00000003FFFF00000000
00000003FFFF00000000
00000003FFFF00000000
00000003FFFF00000000
00000003FFFF00000000
00000003FFFF00000000
00000003FFFF00000000
00000003FFFF00000000
00000003FFFF00000000
00000003FFFF00000000
00000003FFFF00000000
00000003FFFF00000000
00000003FFFF00000000
00000003FFFF00000000
00000003FFFF00000000
00000003FFFF00000000
00000003FFFF00000000
00000003FFFF00000000
00000003FFFF00000000
00000003FFFF00000000
00000003FFFF00000000
00000003FFFF00000000
00000003FFFF00000000
00000003FFFF00000000
00000003FFFF00000000
00000003FFFF00000000
00000003FFFF00000000
00000003FFFF00000000
00000003FFFF00000000
00000003FFFF00000000
00000003FFFF00000000
00000003FFFF00000000
00000003FFFF00000000
00000003FFFF00000000
00000003FFFF00000000
00000003FFFF00000000
00000003FFFF00000000
00000003FFFF00000000
00000003FFFF00000000
00000003FFFF00000000
00000003FFFF00000000
00000003FFFF00000000
00000003FFFF00000000
00000003FFFF00000000
00000003FFFF00000000
00000003FFFF00000000
00000003FFFF00000000
00000003FFFF00000000
00000003FFFF00000000
00000003FFFF00000000
00000003FFFF00000000
00000003FFFF00000000
00000003FFFF00000000
00000003FFFF00000000
00000003FFFF00000000
00000003FFFF00000000
00000003FFFF00000000
00000003FFFF00000000
00000003FFFF00000000
00000003FFFF00000000
00000003FFFF00000000
00000003FFFF00000000
00000003FFFF00000000
00000003FFFF00000000
00000003FFFF00000000
00000003FFFF00000000
00000003FFFF00000000
00000003FFFF00000000
00000003FFFF00000000
00000003FFFF00000000
00000003FFFF00000000
00000003FFFF00000000
00000003FFFF00000000
00000003FFFF00000000
00000003FFFF00000000
00000003FFFF00000000
00000003FFFF00000000
00000003FFFF00000000
00000003FFFF00000000
00000003FFFF00000000
00000003FFFF00000000
00000003FFFF00000000
00000003FFFF00000000
00000003FFFF00000000
00000003FFFF00000000
00000003FFFF00000000
00000003FFFF00000000
00000003FFFF00000000
00000003FFFF00000000
00000003FFFF00000000
00000003FFFF00000000
00000003FFFF00000000
00000003FFFF00000000
00000003FFFF00000000
00000003FFFF00000000
00000003FFFF00000000
00000003FFFF00000000
00000003FFFF00000000
00000003FFFF00000000
00000003FFFF00000000
00000003FFFF00000000
ENDCHAR
STARTCHAR 0055
ENCODING 85
SWIDTH 552 0
DWIDTH 105 0
BBX 79 133 13 0
BITMAP
FFFFC00000000007FFFE
FFFFC00000000007FFFE
FFFFC00000000007FFFE
FFFFC00000000007FFFE
FFFFC00000000007FFFE
FFFFC00000000007FFFE
FFFFC00000000007FFFE
FFFFC00000000007FFFE
FFFFC00000000007FFFE
FFFFC00000000007FFFE
FFFFC00000000007FFFE
FFFFC00000000007FFFE
FFFFC00000000007FFFE
FFFFC00000000007FFFE
FFFFC00000000007FFFE
FFFFC00000000007FFFE
FFFFC00000000007FFFE
FFFFC00000000007FFFE
FFFFC00000000007FFFE
FFFFC00000000007FFFE
FFFFC00000000007FFFE
FFFFC00000000007FFFE
FFFFC00000000007FFFE
FFFFC00000000007FFFE
FFFFC00000000007FFFE
FFFFC00000000007FFFE
FFFFC00000000007FFFE
FFFFC00000000007FFFE
FFFFC00000000007FFFE
FFFFC00000000007FFFE
FFFFC00000000007FFFE
FFFFC00000000007FFFE
FFFFC00000000007FFFE
FFFFC00000000007FFFE
FFFFC00000000007FFFE
FFFFC00000000007FFFE
FFFFC00000000007FFFE
FFFFC00000000007FFFE
FFFFC00000000007FFFE
FFFFC00000000007FFFE
FFFFC00000000007FFFE
FFFFC00000000007FFFE
FFFFC00000000007FFFE
FFFFC00000000007FFFE
FFFFC00000000007FFFE
FFFFC00000000007FFFE
FFFFC00000000007FFFE
FFFFC00000000007FFFE
FFFFC00000000007FFFE
FFFFC00000000007FFFE
FFFFC00000000007FFFE
FFFFC00000000007FFFE
FFFFC00000000007FFFE
FFFFC00000000007FFFE
FFFFC00000000007FFFE
FFFFC00000000007FFFE
FFFFC00000000007FFFE
FFFFC00000000007FFFE
FFFFC00000000007FFFE
FFFFC00000000007FFFE
FFFFC00000000007FFFE
FFFFC00000000007FFFE
FFFFC00000000007FFFE
FFFFC00000000007FFFE
FFFFC00000000007FFFE
FFFFC00000000007FFFE
FFFFC00000000007FFFE
FFFFC00000000007FFFE
FFFFC00000000007FFFE
FFFFC00000000007FFFE
FFFFC00000000007FFFE
FFFFC00000000007FFFE
FFFFC00000000007FFFE
FFFFC00000000007FFFE
FFFFC00000000007FFFE
FFFFC00000000007FFFE
FFFFC00000000007FFFE
FFFFC00000000007FFFE
FFFFC00000000007FFFE
FFFFC00000000007FFFE
FFFFC00000000007FFFE
FFFFC00000000007FFFE
FFFFC00000000007FFFE
FFFFC00000000007FFFE
FFFFC00000000007FFFE
FFFFC00000000007FFFE
FFFFC00000000007FFFE
FFFFC00000000007FFFE
FFFFC00000000007FFFE
FFFFC00000000007FFFE
FFFFC00000000007FFFE
FFFFC00000000007FFFE
FFFFC00000000007FFFE
FFFFC00000000007FFFE
FFFFC00000000007FFFE
FFFFC00000000007FFFE
FFFFC00000000007FFFE
FFFFC00000000007FFFE
FFFFC00000000007FFFE
FFFFC00000000007FFFE
FFFFC00000000007FFFE
FFFFC00000000007FFFE
FFFFC00000000007FFFE
FFFFC00000000007FFFE
FFFFC00000000007FFFE
FFFFC00000000007FFFE
FFFFC00000000007FFFE
FFFFC00000000007FFFE
FFFFC00000000007FFFE
FFFFC00000000007FFFE
FFFFC00000000007FFFE
FFFFC00000000007FFFE
FFFFE0000000000FFFFE
FFFFE0000000000FFFFE
FFFFF0000000001FFFFE
FFFFFC000000007FFFFE
FFFFFFFFFFFFFFFFFFFE
7FFFFFFFFFFFFFFFFFFE
7FFFFFFFFFFFFFFFFFFC
7FFFFFFFFFFFFFFFFFFC
7FFFFFFFFFFFFFFFFFFC
3FFFFFFFFFFFFFFFFFF8
3FFFFFFFFFFFFFFFFFF8
3FFFFFFFFFFFFFFFFFF8
1FFFFFFFFFFFFFFFFFF0
0FFFFFFFFFFFFFFFFFE0
0FFFFFFFFFFFFFFFFFE0
07FFFFFFFFFFFFFFFFC0
03FFFFFFFFFFFFFFFF80
00FFFFFFFFFFFFFFFE00
007FFFFFFFFFFFFFFC00
001FFFFFFFFFFFFFF000
0001FFFFFFFFFFFF0000
ENDCHAR
STARTCHAR 0056
ENCODING 86
SWIDTH 500 0
DWIDTH 95 0
BBX 94 133 1 0
BITMAP
FFFFF00000000000001FFFFC
FFFFF00000000000001FFFFC
7FFFF00000000000001FFFF8
7FFFF80000000000001FFFF8
7FFFF80000000000003FFFF8
7FFFF80000000000003FFFF8
3FFFF80000000000003FFFF0
3FFFFC0000000000003FFFF0
3FFFFC0000000000007FFFF0
3FFFFC0000000000007FFFE0
1FFFFC0000000000007FFFE0
1FFFFE000000000000FFFFE0
1FFFFE000000000000FFFFE0
0FFFFE000000000000FFFFC0
0FFFFE000000000000FFFFC0
0FFFFF000000000001FFFFC0
0FFFFF000000000001FFFFC0
07FFFF000000000001FFFF80
07FFFF000000000001FFFF80
07FFFF800000000003FFFF80
07FFFF800000000003FFFF80
03FFFF800000000003FFFF00
03FFFF800000000003FFFF00
03FFFFC00000000007FFFF00
03FFFFC00000000007FFFE00
01FFFFC00000000007FFFE00
01FFFFC00000000007FFFE00
01FFFFE0000000000FFFFE00
00FFFFE0000000000FFFFC00
00FFFFE0000000000FFFFC00
00FFFFE0000000000FFFFC00
00FFFFF0000000001FFFFC00
007FFFF0000000001FFFF800
007FFFF0000000001FFFF800
007FFFF0000000001FFFF800
007FFFF8000000003FFFF800
003FFFF8000000003FFFF000
003FFFF8000000003FFFF000
003FFFF8000000003FFFF000
003FFFFC000000007FFFE000
001FFFFC000000007FFFE000
001FFFFC000000007FFFE000
001FFFFC000000007FFFE000
001FFFFE00000000FFFFC000
000FFFFE00000000FFFFC000
000FFFFE00000000FFFFC000
000FFFFE00000000FFFFC000
0007FFFF00000001FFFF8000
0007FFFF00000001FFFF8000
0007FFFF00000001FFFF8000
0007FFFF00000001FFFF8000
0003FFFF80000003FFFF0000
0003FFFF80000003FFFF0000
0003FFFF80000003FFFF0000
0003FFFF80000003FFFE0000
0001FFFFC0000007FFFE0000
0001FFFFC0000007FFFE0000
0001FFFFC0000007FFFE0000
0001FFFFC0000007FFFC0000
0000FFFFE000000FFFFC0000
0000FFFFE000000FFFFC0000
0000FFFFE000000FFFFC0000
0000FFFFE000000FFFF80000
00007FFFF000001FFFF80000
00007FFFF000001FFFF80000
00007FFFF000001FFFF80000
00003FFFF000001FFFF00000
00003FFFF800003FFFF00000
00003FFFF800003FFFF00000
00003FFFF800003FFFE00000
00001FFFF800003FFFE00000
00001FFFFC00007FFFE00000
00001FFFFC00007FFFE00000
00001FFFFC00007FFFC00000
00000FFFFC00007FFFC00000
00000FFFFE0000FFFFC00000
00000FFFFE0000FFFFC00000
00000FFFFE0000FFFF800000
000007FFFE0000FFFF800000
000007FFFF0001FFFF800000
000007FFFF0001FFFF800000
000003FFFF0001FFFF000000
000003FFFF0001FFFF000000
000003FFFF8003FFFF000000
000003FFFF8003FFFE000000
000001FFFF8003FFFE000000
000001FFFF8003FFFE000000
000001FFFFC007FFFE000000
000001FFFFC007FFFC000000
000000FFFFC007FFFC000000
000000FFFFC007FFFC000000
000000FFFFE00FFFFC000000
000000FFFFE00FFFF8000000
0000007FFFE00FFFF8000000
0000007FFFE00FFFF8000000
0000007FFFF01FFFF8000000
0000007FFFF01FFFF0000000
0000003FFFF01FFFF0000000
0000003FFFF01FFFF0000000
0000003FFFF83FFFE0000000
0000001FFFF83FFFE0000000
0000001FFFF83FFFE0000000
0000001FFFF83FFFE0000000
0000001FFFFC7FFFC0000000
0000000FFFFC7FFFC0000000
0000000FFFFC7FFFC0000000
0000000FFFFC7FFFC0000000
0000000FFFFEFFFF80000000
00000007FFFEFFFF80000000
00000007FFFEFFFF80000000
00000007FFFEFFFF00000000
00000007FFFFFFFF00000000
00000003FFFFFFFF00000000
00000003FFFFFFFF00000000
00000003FFFFFFFE00000000
00000003FFFFFFFE00000000
00000001FFFFFFFE00000000
00000001FFFFFFFE00000000
00000001FFFFFFFC00000000
00000000FFFFFFFC00000000
00000000FFFFFFFC00000000
00000000FFFFFFFC00000000
00000000FFFFFFF800000000
000000007FFFFFF800000000
000000007FFFFFF800000000
000000007FFFFFF000000000
000000007FFFFFF000000000
000000003FFFFFF000000000
000000003FFFFFF000000000
000000003FFFFFE000000000
000000003FFFFFE000000000
000000001FFFFFE000000000
000000001FFFFFE000000000
ENDCHAR
STARTCHAR 0057
ENCODING 87
SWIDTH 763 0
DWIDTH 145 0
BBX 140 133 2 0
BITMAP
FFFFE00000000003FFFE00000000003FFFF0
FFFFE00000000003FFFE00000000007FFFF0
7FFFF00000000007FFFF00000000007FFFE0
7FFFF00000000007FFFF00000000007FFFE0
7FFFF00000000007FFFF00000000007FFFE0
7FFFF00000000007FFFF00000000007FFFE0
7FFFF00000000007FFFF0000000000FFFFE0
3FFFF80000000007FFFF8000000000FFFFC0
3FFFF8000000000FFFFF8000000000FFFFC0
3FFFF8000000000FFFFF8000000000FFFFC0
3FFFF8000000000FFFFF8000000000FFFFC0
1FFFFC000000000FFFFF8000000001FFFF80
1FFFFC000000000FFFFFC000000001FFFF80
1FFFFC000000001FFFFFC000000001FFFF80
1FFFFC000000001FFFFFC000000001FFFF80
1FFFFC000000001FFFFFC000000001FFFF80
0FFFFE000000001FFFFFC000000003FFFF00
0FFFFE000000001FFFFFC000000003FFFF00
0FFFFE000000003FFFFFE000000003FFFF00
0FFFFE000000003FFFFFE000000003FFFF00
07FFFE000000003FFFFFE000000003FFFE00
07FFFF000000003FFFFFE000000007FFFE00
07FFFF000000003FFFFFE000000007FFFE00
07FFFF000000007FFFFFF000000007FFFE00
07FFFF000000007FFFFFF000000007FFFC00
03FFFF000000007FFFFFF00000000FFFFC00
03FFFF800000007FFFFFF00000000FFFFC00
03FFFF800000007FFFFFF00000000FFFFC00
03FFFF80000000FFFFFFF80000000FFFFC00
01FFFF80000000FFFFFFF80000000FFFF800
01FFFF80000000FFFFFFF80000001FFFF800
01FFFFC0000000FFFFFFF80000001FFFF800
01FFFFC0000000FFFFFFF80000001FFFF800
01FFFFC0000000FFFFFFF80000001FFFF000
00FFFFC0000001FFFFFFFC0000001FFFF000
00FFFFC0000001FFFFFFFC0000003FFFF000
00FFFFE0000001FFFDFFFC0000003FFFF000
00FFFFE0000001FFF9FFFC0000003FFFF000
007FFFE0000001FFF9FFFC0000003FFFE000
007FFFE0000003FFF9FFFE0000003FFFE000
007FFFE0000003FFF9FFFE0000007FFFE000
007FFFF0000003FFF9FFFE0000007FFFE000
007FFFF0000003FFF0FFFE0000007FFFC000
003FFFF0000003FFF0FFFE0000007FFFC000
003FFFF0000007FFF0FFFF000000FFFFC000
003FFFF8000007FFF0FFFF000000FFFFC000
003FFFF8000007FFF0FFFF000000FFFFC000
001FFFF8000007FFE07FFF000000FFFF8000
001FFFF8000007FFE07FFF000000FFFF8000
001FFFF800000FFFE07FFF000001FFFF8000
001FFFFC00000FFFE07FFF800001FFFF8000
001FFFFC00000FFFE07FFF800001FFFF0000
000FFFFC00000FFFE03FFF800001FFFF0000
000FFFFC00000FFFC03FFF800001FFFF0000
000FFFFC00000FFFC03FFF800003FFFF0000
000FFFFE00001FFFC03FFFC00003FFFF0000
0007FFFE00001FFFC03FFFC00003FFFE0000
0007FFFE00001FFFC03FFFC00003FFFE0000
0007FFFE00001FFF801FFFC00003FFFE0000
0007FFFE00001FFF801FFFC00007FFFE0000
0007FFFF00003FFF801FFFC00007FFFC0000
0003FFFF00003FFF801FFFE00007FFFC0000
0003FFFF00003FFF801FFFE00007FFFC0000
0003FFFF00003FFF000FFFE00007FFFC0000
0003FFFF00003FFF000FFFE0000FFFF80000
0001FFFF80007FFF000FFFE0000FFFF80000
0001FFFF80007FFF000FFFF0000FFFF80000
0001FFFF80007FFF000FFFF0000FFFF80000
0001FFFF80007FFE0007FFF0001FFFF80000
0001FFFF80007FFE0007FFF0001FFFF00000
0000FFFFC000FFFE0007FFF0001FFFF00000
0000FFFFC000FFFE0007FFF8001FFFF00000
0000FFFFC000FFFE0007FFF8001FFFF00000
0000FFFFC000FFFE0007FFF8003FFFE00000
00007FFFC000FFFC0003FFF8003FFFE00000
00007FFFE001FFFC0003FFF8003FFFE00000
00007FFFE001FFFC0003FFF8003FFFE00000
00007FFFE001FFFC0003FFFC003FFFE00000
00007FFFE001FFFC0003FFFC007FFFC00000
00003FFFF001FFF80001FFFC007FFFC00000
00003FFFF001FFF80001FFFC007FFFC00000
00003FFFF003FFF80001FFFC007FFFC00000
00003FFFF003FFF80001FFFE007FFF800000
00001FFFF003FFF80001FFFE00FFFF800000
00001FFFF803FFF00001FFFE00FFFF800000
00001FFFF803FFF00000FFFE00FFFF800000
00001FFFF807FFF00000FFFE00FFFF800000
00001FFFF807FFF00000FFFF01FFFF000000
00000FFFF807FFF00000FFFF01FFFF000000
00000FFFFC07FFE00000FFFF01FFFF000000
00000FFFFC07FFE000007FFF01FFFF000000
00000FFFFC0FFFE000007FFF01FFFE000000
000007FFFC0FFFE000007FFF03FFFE000000
000007FFFC0FFFE000007FFF83FFFE000000
000007FFFE0FFFE000007FFF83FFFE000000
000007FFFE0FFFC000003FFF83FFFE000000
000007FFFE1FFFC000003FFF83FFFC000000
000003FFFE1FFFC000003FFF87FFFC000000
000003FFFE1FFFC000003FFFC7FFFC000000
000003FFFF1FFFC000003FFFC7FFFC000000
000003FFFF1FFF8000003FFFC7FFF8000000
000001FFFF3FFF8000001FFFC7FFF8000000
000001FFFF3FFF8000001FFFCFFFF8000000
000001FFFF3FFF8000001FFFEFFFF8000000
000001FFFFBFFF8000001FFFEFFFF0000000
000001FFFFBFFF0000001FFFEFFFF0000000
000000FFFFBFFF0000000FFFEFFFF0000000
000000FFFFFFFF0000000FFFFFFFF0000000
000000FFFFFFFF0000000FFFFFFFF0000000
000000FFFFFFFF0000000FFFFFFFE0000000
0000007FFFFFFE0000000FFFFFFFE0000000
0000007FFFFFFE0000000FFFFFFFE0000000
0000007FFFFFFE00000007FFFFFFE0000000
0000007FFFFFFE00000007FFFFFFC0000000
0000007FFFFFFE00000007FFFFFFC0000000
0000003FFFFFFC00000007FFFFFFC0000000
0000003FFFFFFC00000007FFFFFFC0000000
0000003FFFFFFC00000003FFFFFFC0000000
0000003FFFFFFC00000003FFFFFF80000000
0000001FFFFFFC00000003FFFFFF80000000
0000001FFFFFFC00000003FFFFFF80000000
0000001FFFFFF800000003FFFFFF80000000
0000001FFFFFF800000001FFFFFF00000000
0000001FFFFFF800000001FFFFFF00000000
0000000FFFFFF800000001FFFFFF00000000
0000000FFFFFF800000001FFFFFF00000000
0000000FFFFFF000000001FFFFFF00000000
0000000FFFFFF000000001FFFFFE00000000
00000007FFFFF000000000FFFFFE00000000
00000007FFFFF000000000FFFFFE00000000
00000007FFFFF000000000FFFFFE00000000
00000007FFFFE000000000FFFFFC00000000
00000007FFFFE000000000FFFFFC00000000
ENDCHAR
STARTCHAR 0058
ENCODING 88
SWIDTH 531 0
DWIDTH 101 0
BBX 99 133 1 0
BITMAP
0FFFFFC000000000007FFFFC00
07FFFFE000000000007FFFFC00
07FFFFE00000000000FFFFF800
03FFFFF00000000000FFFFF800
03FFFFF00000000001FFFFF000
01FFFFF80000000001FFFFF000
01FFFFF80000000003FFFFE000
00FFFFFC0000000003FFFFE000
007FFFFC0000000007FFFFC000
007FFFFE0000000007FFFFC000
003FFFFE000000000FFFFF8000
003FFFFF000000000FFFFF0000
001FFFFF000000001FFFFF0000
001FFFFF800000001FFFFE0000
000FFFFF800000001FFFFE0000
000FFFFF800000003FFFFC0000
0007FFFFC00000003FFFFC0000
0007FFFFC00000007FFFF80000
0003FFFFE00000007FFFF80000
0003FFFFE0000000FFFFF00000
0001FFFFF0000000FFFFF00000
0001FFFFF0000001FFFFE00000
0000FFFFF8000001FFFFE00000
00007FFFF8000003FFFFC00000
00007FFFFC000003FFFFC00000
00003FFFFC000007FFFF800000
00003FFFFE000007FFFF000000
00001FFFFE00000FFFFF000000
00001FFFFF00000FFFFE000000
00000FFFFF00000FFFFE000000
00000FFFFF80001FFFFC000000
000007FFFF80001FFFFC000000
000007FFFF80003FFFF8000000
000003FFFFC0003FFFF8000000
000003FFFFC0007FFFF0000000
000001FFFFE0007FFFF0000000
000001FFFFE000FFFFE0000000
000000FFFFF000FFFFE0000000
0000007FFFF001FFFFC0000000
0000007FFFF801FFFFC0000000
0000003FFFF803FFFF80000000
0000003FFFFC03FFFF00000000
0000001FFFFC07FFFF00000000
0000001FFFFE07FFFE00000000
0000000FFFFE07FFFE00000000
0000000FFFFF0FFFFC00000000
00000007FFFF0FFFFC00000000
00000007FFFF1FFFF800000000
00000003FFFF9FFFF800000000
00000003FFFFBFFFF000000000
00000001FFFFFFFFF000000000
00000000FFFFFFFFE000000000
00000000FFFFFFFFE000000000
000000007FFFFFFFC000000000
000000007FFFFFFFC000000000
000000003FFFFFFF8000000000
000000003FFFFFFF0000000000
000000001FFFFFFF0000000000
000000001FFFFFFE0000000000
000000000FFFFFFE0000000000
000000000FFFFFFC0000000000
0000000007FFFFFC0000000000
0000000007FFFFF80000000000
0000000003FFFFFC0000000000
0000000007FFFFFC0000000000
0000000007FFFFFE0000000000
000000000FFFFFFE0000000000
000000000FFFFFFF0000000000
000000001FFFFFFF0000000000
000000003FFFFFFF8000000000
000000003FFFFFFF8000000000
000000007FFFFFFFC000000000
000000007FFFFFFFC000000000
00000000FFFFFFFFE000000000
00000000FFFFFFFFF000000000
00000001FFFFFFFFF000000000
00000001FFFFFFFFF800000000
00000003FFFFFFFFF800000000
00000003FFFF3FFFFC00000000
00000007FFFF3FFFFC00000000
0000000FFFFE1FFFFE00000000
0000000FFFFE1FFFFE00000000
0000001FFFFC0FFFFF00000000
0000001FFFFC0FFFFF00000000
0000003FFFF807FFFF80000000
0000003FFFF807FFFF80000000
0000007FFFF003FFFFC0000000
0000007FFFF003FFFFE0000000
000000FFFFE001FFFFE0000000
000000FFFFE001FFFFF0000000
000001FFFFC000FFFFF0000000
000001FFFFC000FFFFF8000000
000003FFFF80007FFFF8000000
000007FFFF80007FFFFC000000
000007FFFF00003FFFFC000000
00000FFFFF00003FFFFE000000
00000FFFFE00001FFFFE000000
00001FFFFE00001FFFFF000000
00001FFFFC00000FFFFF000000
00003FFFFC00000FFFFF800000
00003FFFF8000007FFFFC00000
00007FFFF8000007FFFFC00000
00007FFFF0000003FFFFE00000
0000FFFFF0000003FFFFE00000
0001FFFFE0000001FFFFF00000
0001FFFFE0000001FFFFF00000
0003FFFFC0000000FFFFF80000
0003FFFFC0000000FFFFF80000
0007FFFF800000007FFFFC0000
0007FFFF800000007FFFFC0000
000FFFFF000000003FFFFE0000
000FFFFF000000003FFFFE0000
001FFFFE000000001FFFFF0000
001FFFFE000000001FFFFF8000
003FFFFC000000000FFFFF8000
007FFFFC000000000FFFFFC000
007FFFF80000000007FFFFC000
00FFFFF80000000007FFFFE000
00FFFFF00000000003FFFFE000
01FFFFF00000000003FFFFF000
01FFFFE00000000001FFFFF000
03FFFFE00000000001FFFFF800
03FFFFC00000000000FFFFF800
07FFFFC00000000000FFFFFC00
07FFFF8000000000007FFFFC00
0FFFFF8000000000007FFFFE00
0FFFFF0000000000003FFFFF00
1FFFFF0000000000003FFFFF00
3FFFFE0000000000001FFFFF80
3FFFFE0000000000001FFFFF80
7FFFFC0000000000001FFFFFC0
7FFFFC0000000000000FFFFFC0
FFFFF80000000000000FFFFFE0
ENDCHAR
STARTCHAR 0059
ENCODING 89
SWIDTH 521 0
DWIDTH 99 0
BBX 99 133 0 0
BITMAP
FFFFFC00000000000003FFFFE0
FFFFFE00000000000007FFFFC0
7FFFFE00000000000007FFFFC0
7FFFFF0000000000000FFFFF80
3FFFFF0000000000000FFFFF80
1FFFFF8000000000001FFFFF00
1FFFFF8000000000001FFFFF00
0FFFFFC000000000003FFFFE00
0FFFFFC000000000003FFFFE00
07FFFFE000000000007FFFFC00
07FFFFE000000000007FFFFC00
03FFFFF00000000000FFFFF800
03FFFFF00000000000FFFFF800
01FFFFF80000000001FFFFF000
01FFFFF80000000001FFFFF000
00FFFFFC0000000003FFFFE000
00FFFFFC0000000003FFFFE000
007FFFFE0000000007FFFFC000
003FFFFE0000000007FFFFC000
003FFFFF000000000FFFFF8000
001FFFFF000000000FFFFF0000
001FFFFF800000001FFFFF0000
000FFFFF800000001FFFFE0000
000FFFFFC00000003FFFFE0000
0007FFFFC00000003FFFFC0000
0007FFFFC00000003FFFFC0000
0003FFFFE00000007FFFF80000
0003FFFFE00000007FFFF80000
0001FFFFF0000000FFFFF00000
0000FFFFF0000000FFFFF00000
0000FFFFF8000001FFFFE00000
00007FFFF8000001FFFFE00000
00007FFFFC000003FFFFC00000
00003FFFFC000003FFFFC00000
00003FFFFE000007FFFF800000
00001FFFFE000007FFFF800000
00001FFFFF00000FFFFF000000
00000FFFFF00000FFFFF000000
00000FFFFF80001FFFFE000000
000007FFFF80001FFFFC000000
000007FFFFC0003FFFFC000000
000003FFFFC0003FFFF8000000
000001FFFFE0007FFFF8000000
000001FFFFE0007FFFF0000000
000000FFFFF000FFFFF0000000
000000FFFFF000FFFFE0000000
0000007FFFF801FFFFE0000000
0000007FFFF801FFFFC0000000
0000003FFFFC03FFFFC0000000
0000003FFFFC03FFFF80000000
0000001FFFFE07FFFF80000000
0000001FFFFE07FFFF00000000
0000000FFFFF0FFFFF00000000
00000007FFFF0FFFFE00000000
00000007FFFF9FFFFE00000000
00000003FFFF9FFFFC00000000
00000003FFFFFFFFFC00000000
00000001FFFFFFFFF800000000
00000001FFFFFFFFF800000000
00000000FFFFFFFFF000000000
00000000FFFFFFFFE000000000
000000007FFFFFFFE000000000
000000007FFFFFFFC000000000
000000003FFFFFFFC000000000
000000003FFFFFFF8000000000
000000001FFFFFFF8000000000
000000000FFFFFFF0000000000
000000000FFFFFFF0000000000
0000000007FFFFFE0000000000
0000000007FFFFFE0000000000
0000000003FFFFFC0000000000
0000000003FFFFFC0000000000
0000000001FFFFF80000000000
0000000001FFFFF80000000000
0000000000FFFFF00000000000
0000000000FFFFF00000000000
00000000007FFFE00000000000
00000000007FFFE00000000000
00000000007FFFE00000000000
00000000007FFFE00000000000
00000000007FFFE00000000000
00000000007FFFE00000000000
00000000007FFFE00000000000
00000000007FFFE00000000000
00000000007FFFE00000000000
00000000007FFFE00000000000
00000000007FFFE00000000000
00000000007FFFE00000000000
00000000007FFFE00000000000
00000000007FFFE00000000000
00000000007FFFE00000000000
00000000007FFFE00000000000
00000000007FFFE00000000000
00000000007FFFE00000000000
00000000007FFFE00000000000
00000000007FFFE00000000000
00000000007FFFE00000000000
00000000007FFFE00000000000
00000000007FFFE00000000000
00000000007FFFE00000000000
00000000007FFFE00000000000
00000000007FFFE00000000000
00000000007FFFE00000000000
00000000007FFFE00000000000
00000000007FFFE00000000000
00000000007FFFE00000000000
00000000007FFFE00000000000
00000000007FFFE00000000000
00000000007FFFE00000000000
00000000007FFFE00000000000
00000000007FFFE00000000000
00000000007FFFE00000000000
00000000007FFFE00000000000
00000000007FFFE00000000000
00000000007FFFE00000000000
00000000007FFFE00000000000
00000000007FFFE00000000000
00000000007FFFE00000000000
00000000007FFFE00000000000
00000000007FFFE00000000000
00000000007FFFE00000000000
00000000007FFFE00000000000
00000000007FFFE00000000000
00000000007FFFE00000000000
00000000007FFFE00000000000
00000000007FFFE00000000000
00000000007FFFE00000000000
00000000007FFFE00000000000
00000000007FFFE00000000000
00000000007FFFE00000000000
00000000007FFFE00000000000
00000000007FFFE00000000000
00000000007FFFE00000000000
ENDCHAR
STARTCHAR 005A
ENCODING 90
SWIDTH 489 0
DWIDTH 93 0
BBX 79 133 8 0
BITMAP
FFFFFFFFFFFFFFFFFFFE
FFFFFFFFFFFFFFFFFFFE
FFFFFFFFFFFFFFFFFFFE
FFFFFFFFFFFFFFFFFFFE
FFFFFFFFFFFFFFFFFFFE
FFFFFFFFFFFFFFFFFFFE
FFFFFFFFFFFFFFFFFFFE
FFFFFFFFFFFFFFFFFFFC
FFFFFFFFFFFFFFFFFFFC
FFFFFFFFFFFFFFFFFFF8
FFFFFFFFFFFFFFFFFFF8
FFFFFFFFFFFFFFFFFFF0
FFFFFFFFFFFFFFFFFFF0
FFFFFFFFFFFFFFFFFFE0
FFFFFFFFFFFFFFFFFFE0
FFFFFFFFFFFFFFFFFFC0
FFFFFFFFFFFFFFFFFFC0
80000000000001FFFF80
00000000000003FFFF80
00000000000003FFFF00
00000000000007FFFF00
00000000000007FFFE00
0000000000000FFFFE00
0000000000000FFFFC00
0000000000001FFFFC00
0000000000001FFFFC00
0000000000003FFFF800
0000000000003FFFF800
0000000000007FFFF000
0000000000007FFFF000
000000000000FFFFE000
000000000000FFFFE000
000000000001FFFFC000
000000000001FFFFC000
000000000003FFFF8000
000000000003FFFF8000
000000000007FFFF0000
000000000007FFFF0000
00000000000FFFFE0000
00000000000FFFFE0000
00000000001FFFFC0000
00000000001FFFFC0000
00000000003FFFF80000
00000000003FFFF80000
00000000007FFFF00000
00000000007FFFF00000
0000000000FFFFE00000
0000000000FFFFE00000
0000000001FFFFC00000
0000000001FFFFC00000
0000000003FFFF800000
0000000003FFFF800000
0000000007FFFF000000
0000000007FFFF000000
000000000FFFFE000000
000000000FFFFE000000
000000001FFFFC000000
000000001FFFFC000000
000000003FFFF8000000
000000003FFFF8000000
000000007FFFF0000000
000000007FFFF0000000
00000000FFFFE0000000
00000000FFFFE0000000
00000001FFFFC0000000
00000001FFFFC0000000
00000003FFFF80000000
00000003FFFF80000000
00000007FFFF00000000
00000007FFFF00000000
0000000FFFFE00000000
0000000FFFFE00000000
0000001FFFFC00000000
0000003FFFFC00000000
0000003FFFF800000000
0000007FFFF800000000
0000007FFFF000000000
000000FFFFF000000000
000000FFFFE000000000
000001FFFFE000000000
000001FFFFC000000000
000003FFFFC000000000
000003FFFF8000000000
000007FFFF8000000000
000007FFFF0000000000
00000FFFFF0000000000
00000FFFFE0000000000
00001FFFFE0000000000
00001FFFFC0000000000
00003FFFFC0000000000
00003FFFF80000000000
00007FFFF80000000000
00007FFFF00000000000
0000FFFFF00000000000
0000FFFFE00000000000
0001FFFFE00000000000
0001FFFFC00000000000
0003FFFFC00000000000
0003FFFF800000000000
0007FFFF800000000000
0007FFFF000000000000
000FFFFF000000000000
000FFFFE000000000000
001FFFFE000000000000
001FFFFC000000000000
003FFFFC000000000000
003FFFF8000000000000
007FFFF8000000000000
007FFFF0000000000000
00FFFFF0000000000000
00FFFFE0000000000000
01FFFFE0000000000000
01FFFFC0000000000000
03FFFFC0000000000000
03FFFF80000000000000
07FFFF80000000000000
07FFFF00000000000002
0FFFFFFFFFFFFFFFFFFE
0FFFFFFFFFFFFFFFFFFE
1FFFFFFFFFFFFFFFFFFE
1FFFFFFFFFFFFFFFFFFE
3FFFFFFFFFFFFFFFFFFE
3FFFFFFFFFFFFFFFFFFE
7FFFFFFFFFFFFFFFFFFE
7FFFFFFFFFFFFFFFFFFE
FFFFFFFFFFFFFFFFFFFE
FFFFFFFFFFFFFFFFFFFE
FFFFFFFFFFFFFFFFFFFE
FFFFFFFFFFFFFFFFFFFE
FFFFFFFFFFFFFFFFFFFE
FFFFFFFFFFFFFFFFFFFE
FFFFFFFFFFFFFFFFFFFE
FFFFFFFFFFFFFFFFFFFE
ENDCHAR
STARTCHAR 005B
ENCODING 91
SWIDTH 405 0
DWIDTH 77 0
BBX 41 171 15 -38
BITMAP
FFFFFFFFFF80
FFFFFFFFFF80
FFFFFFFFFF80
FFFFFFFFFF80
FFFFFFFFFF80
FFFFFFFFFF80
FFFFFFFFFF80
FFFFFFFFFF80
FFFFFFFFFF80
FFFFFFFFFF80
FFFFFFFFFF80
FFFFFFFFFF80
FFFFFFFFFF80
FFFFFFFFFF80
FFFFFFFFFF80
FFFFFFFFFF80
FFFFC0000000
FFFFC0000000
FFFFC0000000
FFFFC0000000
FFFFC0000000
FFFFC0000000
FFFFC0000000
FFFFC0000000
FFFFC0000000
FFFFC0000000
FFFFC0000000
FFFFC0000000
FFFFC0000000
FFFFC0000000
FFFFC0000000
FFFFC0000000
FFFFC0000000
FFFFC0000000
FFFFC0000000
FFFFC0000000
FFFFC0000000
FFFFC0000000
FFFFC0000000
FFFFC0000000
FFFFC0000000
FFFFC0000000
FFFFC0000000
FFFFC0000000
FFFFC0000000
FFFFC0000000
FFFFC0000000
FFFFC0000000
FFFFC0000000
FFFFC0000000
FFFFC0000000
FFFFC0000000
FFFFC0000000
FFFFC0000000
FFFFC0000000
FFFFC0000000
FFFFC0000000
FFFFC0000000
FFFFC0000000
FFFFC0000000
FFFFC0000000
FFFFC0000000
FFFFC0000000
FFFFC0000000
FFFFC0000000
FFFFC0000000
FFFFC0000000
FFFFC0000000
FFFFC0000000
FFFFC0000000
FFFFC0000000
FFFFC0000000
FFFFC0000000
FFFFC0000000
FFFFC0000000
FFFFC0000000
FFFFC0000000
FFFFC0000000
FFFFC0000000
FFFFC0000000
FFFFC0000000
FFFFC0000000
FFFFC0000000
FFFFC0000000
FFFFC0000000
FFFFC0000000
FFFFC0000000
FFFFC0000000
FFFFC0000000
FFFFC0000000
FFFFC0000000
FFFFC0000000
FFFFC0000000
FFFFC0000000
FFFFC0000000
FFFFC0000000
FFFFC0000000
FFFFC0000000
FFFFC0000000
FFFFC0000000
FFFFC0000000
FFFFC0000000
FFFFC0000000
FFFFC0000000
FFFFC0000000
FFFFC0000000
FFFFC0000000
FFFFC0000000
FFFFC0000000
FFFFC0000000
FFFFC0000000
FFFFC0000000
FFFFC0000000
FFFFC0000000
FFFFC0000000
FFFFC0000000
FFFFC0000000
FFFFC0000000
FFFFC0000000
FFFFC0000000
FFFFC0000000
FFFFC0000000
FFFFC0000000
FFFFC0000000
FFFFC0000000
FFFFC0000000
FFFFC0000000
FFFFC0000000
FFFFC0000000
FFFFC0000000
FFFFC0000000
FFFFC0000000
FFFFC0000000
FFFFC0000000
FFFFC0000000
FFFFC0000000
FFFFC0000000
FFFFC0000000
FFFFC0000000
FFFFC0000000
FFFFC0000000
FFFFC0000000
FFFFC0000000
FFFFC0000000
FFFFC0000000
FFFFC0000000
FFFFC0000000
FFFFC0000000
FFFFC0000000
FFFFC0000000
FFFFC0000000
FFFFC0000000
FFFFC0000000
FFFFC0000000
FFFFC0000000
FFFFFFFFFF80
FFFFFFFFFF80
FFFFFFFFFF80
FFFFFFFFFF80
FFFFFFFFFF80
FFFFFFFFFF80
FFFFFFFFFF80
FFFFFFFFFF80
FFFFFFFFFF80
FFFFFFFFFF80
FFFFFFFFFF80
FFFFFFFFFF80
FFFFFFFFFF80
FFFFFFFFFF80
FFFFFFFFFF80
FFFFFFFFFF80
ENDCHAR
STARTCHAR 005C
ENCODING 92
SWIDTH 436 0
DWIDTH 83 0
BBX 83 133 0 0
BITMAP
FFFFE00000000000000000
7FFFF00000000000000000
7FFFF00000000000000000
3FFFF80000000000000000
3FFFF80000000000000000
1FFFFC0000000000000000
1FFFFC0000000000000000
0FFFFE0000000000000000
0FFFFE0000000000000000
07FFFF0000000000000000
07FFFF0000000000000000
03FFFF8000000000000000
03FFFF8000000000000000
03FFFFC000000000000000
01FFFFC000000000000000
01FFFFE000000000000000
00FFFFE000000000000000
00FFFFE000000000000000
007FFFF000000000000000
007FFFF000000000000000
003FFFF800000000000000
003FFFF800000000000000
001FFFFC00000000000000
001FFFFC00000000000000
000FFFFE00000000000000
000FFFFE00000000000000
0007FFFF00000000000000
0007FFFF00000000000000
0003FFFF80000000000000
0003FFFF80000000000000
0001FFFFC0000000000000
0001FFFFC0000000000000
0000FFFFE0000000000000
0000FFFFE0000000000000
00007FFFF0000000000000
00007FFFF0000000000000
00003FFFF8000000000000
00003FFFF8000000000000
00001FFFFC000000000000
00001FFFFC000000000000
00000FFFFE000000000000
00000FFFFE000000000000
00000FFFFF000000000000
000007FFFF000000000000
000007FFFF800000000000
000003FFFF800000000000
000003FFFF800000000000
000001FFFFC00000000000
000001FFFFC00000000000
000000FFFFE00000000000
000000FFFFE00000000000
0000007FFFF00000000000
0000007FFFF00000000000
0000003FFFF80000000000
0000003FFFF80000000000
0000001FFFFC0000000000
0000001FFFFC0000000000
0000000FFFFE0000000000
0000000FFFFE0000000000
00000007FFFF0000000000
00000007FFFF0000000000
00000003FFFF8000000000
00000003FFFF8000000000
00000001FFFFC000000000
00000001FFFFC000000000
00000000FFFFE000000000
00000000FFFFE000000000
000000007FFFF000000000
000000007FFFF000000000
000000003FFFF800000000
000000003FFFF800000000
000000001FFFFC00000000
000000001FFFFC00000000
000000001FFFFE00000000
000000000FFFFE00000000
000000000FFFFE00000000
0000000007FFFF00000000
0000000007FFFF00000000
0000000003FFFF80000000
0000000003FFFF80000000
0000000001FFFFC0000000
0000000001FFFFC0000000
0000000000FFFFE0000000
0000000000FFFFE0000000
00000000007FFFF0000000
00000000007FFFF0000000
00000000003FFFF8000000
00000000003FFFF8000000
00000000001FFFFC000000
00000000001FFFFC000000
00000000000FFFFE000000
00000000000FFFFE000000
000000000007FFFF000000
000000000007FFFF000000
000000000003FFFF800000
000000000003FFFF800000
000000000001FFFFC00000
000000000001FFFFC00000
000000000000FFFFE00000
000000000000FFFFE00000
0000000000007FFFF00000
0000000000007FFFF00000
0000000000007FFFF80000
0000000000003FFFF80000
0000000000003FFFF80000
0000000000001FFFFC0000
0000000000001FFFFC0000
0000000000000FFFFE0000
0000000000000FFFFE0000
00000000000007FFFF0000
00000000000007FFFF0000
00000000000003FFFF8000
00000000000003FFFF8000
00000000000001FFFFC000
00000000000001FFFFC000
00000000000000FFFFE000
00000000000000FFFFE000
000000000000007FFFF000
000000000000007FFFF000
000000000000003FFFF800
000000000000003FFFF800
000000000000001FFFFC00
000000000000001FFFFC00
000000000000000FFFFE00
000000000000000FFFFE00
0000000000000007FFFF00
0000000000000007FFFF00
0000000000000003FFFF80
0000000000000003FFFF80
0000000000000001FFFFC0
0000000000000001FFFFC0
0000000000000001FFFFE0
0000000000000000FFFFE0
ENDCHAR
STARTCHAR 005D
ENCODING 93
SWIDTH 378 0
DWIDTH 72 0
BBX 41 171 12 -38
BITMAP
FFFFFFFFFF80
FFFFFFFFFF80
FFFFFFFFFF80
FFFFFFFFFF80
FFFFFFFFFF80
FFFFFFFFFF80
FFFFFFFFFF80
FFFFFFFFFF80
FFFFFFFFFF80
FFFFFFFFFF80
FFFFFFFFFF80
FFFFFFFFFF80
FFFFFFFFFF80
FFFFFFFFFF80
FFFFFFFFFF80
FFFFFFFFFF80
000001FFFF80
000001FFFF80
000001FFFF80
000001FFFF80
000001FFFF80
000001FFFF80
000001FFFF80
000001FFFF80
000001FFFF80
000001FFFF80
000001FFFF80
000001FFFF80
000001FFFF80
000001FFFF80
000001FFFF80
000001FFFF80
000001FFFF80
000001FFFF80
000001FFFF80
000001FFFF80
000001FFFF80
000001FFFF80
000001FFFF80
000001FFFF80
000001FFFF80
000001FFFF80
000001FFFF80
000001FFFF80
000001FFFF80
000001FFFF80
000001FFFF80
000001FFFF80
000001FFFF80
000001FFFF80
000001FFFF80
000001FFFF80
000001FFFF80
000001FFFF80
000001FFFF80
000001FFFF80
000001FFFF80
000001FFFF80
000001FFFF80
000001FFFF80
000001FFFF80
000001FFFF80
000001FFFF80
000001FFFF80
000001FFFF80
000001FFFF80
000001FFFF80
000001FFFF80
000001FFFF80
000001FFFF80
000001FFFF80
000001FFFF80
000001FFFF80
000001FFFF80
000001FFFF80
000001FFFF80
000001FFFF80
000001FFFF80
000001FFFF80
000001FFFF80
000001FFFF80
000001FFFF80
000001FFFF80
000001FFFF80
000001FFFF80
000001FFFF80
000001FFFF80
000001FFFF80
000001FFFF80
000001FFFF80
000001FFFF80
000001FFFF80
000001FFFF80
000001FFFF80
000001FFFF80
000001FFFF80
000001FFFF80
000001FFFF80
000001FFFF80
000001FFFF80
000001FFFF80
000001FFFF80
000001FFFF80
000001FFFF80
000001FFFF80
000001FFFF80
000001FFFF80
000001FFFF80
000001FFFF80
000001FFFF80
000001FFFF80
000001FFFF80
000001FFFF80
000001FFFF80
000001FFFF80
000001FFFF80
000001FFFF80
000001FFFF80
000001FFFF80
000001FFFF80
000001FFFF80
000001FFFF80
000001FFFF80
000001FFFF80
000001FFFF80
000001FFFF80
000001FFFF80
000001FFFF80
000001FFFF80
000001FFFF80
000001FFFF80
000001FFFF80
000001FFFF80
000001FFFF80
000001FFFF80
000001FFFF80
000001FFFF80
000001FFFF80
000001FFFF80
000001FFFF80
000001FFFF80
000001FFFF80
000001FFFF80
000001FFFF80
000001FFFF80
000001FFFF80
000001FFFF80
000001FFFF80
000001FFFF80
000001FFFF80
000001FFFF80
000001FFFF80
000001FFFF80
000001FFFF80
000001FFFF80
FFFFFFFFFF80
FFFFFFFFFF80
FFFFFFFFFF80
FFFFFFFFFF80
FFFFFFFFFF80
FFFFFFFFFF80
FFFFFFFFFF80
FFFFFFFFFF80
FFFFFFFFFF80
FFFFFFFFFF80
FFFFFFFFFF80
FFFFFFFFFF80
FFFFFFFFFF80
FFFFFFFFFF80
FFFFFFFFFF80
FFFFFFFFFF80
ENDCHAR
STARTCHAR 005E
ENCODING 94
SWIDTH 373 0
DWIDTH 71 0
BBX 67 52 2 80
BITMAP
0000000FFE00000000
0000000FFE00000000
0000001FFF00000000
0000003FFF00000000
0000003FFF80000000
0000007FFFC0000000
0000007FFFC0000000
000000FFFFE0000000
000000FFFFE0000000
000001FFFFF0000000
000001FFFFF0000000
000003FFFFF8000000
000003FFFFF8000000
000007FFFFFC000000
00000FFFFFFC000000
00000FFFFFFE000000
00001FFFFFFF000000
00001FFFFFFF000000
00003FFF3FFF800000
00003FFF3FFF800000
00007FFE1FFFC00000
00007FFC0FFFC00000
0000FFFC0FFFE00000
0000FFF807FFE00000
0001FFF803FFF00000
0003FFF003FFF00000
0003FFE001FFF80000
0007FFE001FFFC0000
0007FFC000FFFC0000
000FFFC0007FFE0000
000FFF80007FFE0000
001FFF00003FFF0000
001FFF00003FFF0000
003FFE00001FFF8000
003FFC00000FFF8000
007FFC00000FFFC000
00FFF8000007FFE000
00FFF8000007FFE000
01FFF0000003FFF000
01FFE0000001FFF000
03FFE0000001FFF800
03FFC0000000FFF800
07FFC0000000FFFC00
07FF800000007FFC00
0FFF000000003FFE00
0FFF000000003FFE00
1FFE000000001FFF00
3FFE000000000FFF80
3FFC000000000FFF80
7FF80000000007FFC0
7FF80000000007FFC0
FFF00000000003FFE0
ENDCHAR
STARTCHAR 005F
ENCODING 95
SWIDTH 726 0
DWIDTH 138 0
BBX 115 15 11 -28
BITMAP
FFFFFFFFFFFFFFFFFFFFFFFFFFFFE0
FFFFFFFFFFFFFFFFFFFFFFFFFFFFE0
FFFFFFFFFFFFFFFFFFFFFFFFFFFFE0
FFFFFFFFFFFFFFFFFFFFFFFFFFFFE0
FFFFFFFFFFFFFFFFFFFFFFFFFFFFE0
FFFFFFFFFFFFFFFFFFFFFFFFFFFFE0
FFFFFFFFFFFFFFFFFFFFFFFFFFFFE0
FFFFFFFFFFFFFFFFFFFFFFFFFFFFE0
FFFFFFFFFFFFFFFFFFFFFFFFFFFFE0
FFFFFFFFFFFFFFFFFFFFFFFFFFFFE0
FFFFFFFFFFFFFFFFFFFFFFFFFFFFE0
FFFFFFFFFFFFFFFFFFFFFFFFFFFFE0
FFFFFFFFFFFFFFFFFFFFFFFFFFFFE0
FFFFFFFFFFFFFFFFFFFFFFFFFFFFE0
FFFFFFFFFFFFFFFFFFFFFFFFFFFFE0
ENDCHAR
STARTCHAR 0060
ENCODING 96
SWIDTH 357 0
DWIDTH 68 0
BBX 37 28 15 105
BITMAP
FFFF800000
7FFFC00000
3FFFE00000
1FFFF00000
0FFFF00000
07FFF80000
03FFFC0000
03FFFE0000
01FFFE0000
00FFFF0000
007FFF8000
003FFFC000
001FFFC000
000FFFE000
000FFFF000
0007FFF800
0003FFF800
0001FFFC00
0000FFFE00
00007FFF00
00003FFF00
00001FFF80
00001FFFC0
00000FFFC0
000007FFE0
000003FFF0
000001FFF8
000000FFF8
ENDCHAR
STARTCHAR 0061
ENCODING 97
SWIDTH 463 0
DWIDTH 88 0
BBX 65 95 11 0
BITMAP
FFFFFFFFFFFF800000
FFFFFFFFFFFFF80000
FFFFFFFFFFFFFF0000
FFFFFFFFFFFFFF8000
FFFFFFFFFFFFFFE000
FFFFFFFFFFFFFFF000
FFFFFFFFFFFFFFF800
FFFFFFFFFFFFFFF800
FFFFFFFFFFFFFFFC00
FFFFFFFFFFFFFFFE00
FFFFFFFFFFFFFFFE00
FFFFFFFFFFFFFFFE00
FFFFFFFFFFFFFFFF00
FFFFFFFFFFFFFFFF00
FFFFFFFFFFFFFFFF00
E0000000000FFFFF80
000000000003FFFF80
000000000001FFFF80
000000000001FFFF80
000000000000FFFF80
000000000000FFFF80
000000000000FFFF80
000000000000FFFF80
000000000000FFFF80
000000000000FFFF80
000000000000FFFF80
000000000000FFFF80
000000000000FFFF80
000000000000FFFF80
000000000000FFFF80
000000000000FFFF80
000000000000FFFF80
000000000000FFFF80
000000000000FFFF80
000000000000FFFF80
0001FFFFFFFFFFFF80
001FFFFFFFFFFFFF80
007FFFFFFFFFFFFF80
01FFFFFFFFFFFFFF80
03FFFFFFFFFFFFFF80
07FFFFFFFFFFFFFF80
0FFFFFFFFFFFFFFF80
0FFFFFFFFFFFFFFF80
1FFFFFFFFFFFFFFF80
3FFFFFFFFFFFFFFF80
3FFFFFFFFFFFFFFF80
3FFFFFFFFFFFFFFF80
7FFFFFFFFFFFFFFF80
7FFFF8000000FFFF80
7FFFF0000000FFFF80
7FFFE0000000FFFF80
FFFFC0000000FFFF80
FFFFC0000000FFFF80
FFFF80000000FFFF80
FFFF80000000FFFF80
FFFF80000000FFFF80
FFFF80000000FFFF80
FFFF80000000FFFF80
FFFF80000000FFFF80
FFFF80000000FFFF80
FFFF80000000FFFF80
FFFF80000000FFFF80
FFFF80000000FFFF80
FFFF80000000FFFF80
FFFF80000000FFFF80
FFFF80000000FFFF80
FFFF80000000FFFF80
FFFF80000000FFFF80
FFFF80000000FFFF80
FFFF80000000FFFF80
FFFF80000000FFFF80
FFFF80000000FFFF80
FFFF80000000FFFF80
FFFF80000000FFFF80
FFFF80000000FFFF80
FFFFC0000000FFFF80
FFFFC0000000FFFF80
FFFFC0000000FFFF80
FFFFE0000000FFFF80
7FFFF8000000FFFF80
7FFFFFFFFFFFFFFF80
7FFFFFFFFFFFFFFF80
7FFFFFFFFFFFFFFF80
3FFFFFFFFFFFFFFF80
3FFFFFFFFFFFFFFF80
1FFFFFFFFFFFFFFF80
1FFFFFFFFFFFFFFF80
0FFFFFFFFFFFFFFF80
0FFFFFFFFFFFFFFF80
07FFFFFFFFFFFFFF80
03FFFFFFFFFFFFFF80
00FFFFFFFFFFFFFF80
007FFFFFFFFFFFFF80
000FFFFFFFFFFFFF80
0001FFFFFFFFFFFF80
ENDCHAR
STARTCHAR 0062
ENCODING 98
SWIDTH 468 0
DWIDTH 89 0
BBX 64 133 12 0
BITMAP
FFFF800000000000
FFFF800000000000
FFFF800000000000
FFFF800000000000
FFFF800000000000
FFFF800000000000
FFFF800000000000
FFFF800000000000
FFFF800000000000
FFFF800000000000
FFFF800000000000
FFFF800000000000
FFFF800000000000
FFFF800000000000
FFFF800000000000
FFFF800000000000
FFFF800000000000
FFFF800000000000
FFFF800000000000
FFFF800000000000
FFFF800000000000
FFFF800000000000
FFFF800000000000
FFFF800000000000
FFFF800000000000
FFFF800000000000
FFFF800000000000
FFFF800000000000
FFFF800000000000
FFFF800000000000
FFFF800000000000
FFFF800000000000
FFFF800000000000
FFFF800000000000
FFFF800000000000
FFFF800000000000
FFFF800000000000
FFFF800000000000
FFFFFFFFFFFFC000
FFFFFFFFFFFFF800
FFFFFFFFFFFFFE00
FFFFFFFFFFFFFF80
FFFFFFFFFFFFFFC0
FFFFFFFFFFFFFFE0
FFFFFFFFFFFFFFF0
FFFFFFFFFFFFFFF8
FFFFFFFFFFFFFFF8
FFFFFFFFFFFFFFFC
FFFFFFFFFFFFFFFC
FFFFFFFFFFFFFFFE
FFFFFFFFFFFFFFFE
FFFFFFFFFFFFFFFE
FFFFFFFFFFFFFFFE
FFFF8000003FFFFF
FFFF80000007FFFF
FFFF80000003FFFF
FFFF80000003FFFF
FFFF80000001FFFF
FFFF80000001FFFF
FFFF80000001FFFF
FFFF80000001FFFF
FFFF80000001FFFF
FFFF80000001FFFF
FFFF80000001FFFF
FFFF80000001FFFF
FFFF80000001FFFF
FFFF80000001FFFF
FFFF80000001FFFF
FFFF80000001FFFF
FFFF80000001FFFF
FFFF80000001FFFF
FFFF80000001FFFF
FFFF80000001FFFF
FFFF80000001FFFF
FFFF80000001FFFF
FFFF80000001FFFF
FFFF80000001FFFF
FFFF80000001FFFF
FFFF80000001FFFF
FFFF80000001FFFF
FFFF80000001FFFF
FFFF80000001FFFF
FFFF80000001FFFF
FFFF80000001FFFF
FFFF80000001FFFF
FFFF80000001FFFF
FFFF80000001FFFF
FFFF80000001FFFF
FFFF80000001FFFF
FFFF80000001FFFF
FFFF80000001FFFF
FFFF80000001FFFF
FFFF80000001FFFF
FFFF80000001FFFF
FFFF80000001FFFF
FFFF80000001FFFF
FFFF80000001FFFF
FFFF80000001FFFF
FFFF80000001FFFF
FFFF80000001FFFF
FFFF80000001FFFF
FFFF80000001FFFF
FFFF80000001FFFF
FFFF80000001FFFF
FFFF80000001FFFF
FFFF80000001FFFF
FFFF80000001FFFF
FFFF80000001FFFF
FFFF80000001FFFF
FFFF80000001FFFF
FFFF80000001FFFF
FFFF80000001FFFF
FFFF80000001FFFF
FFFF80000001FFFF
FFFF80000003FFFF
FFFF80000003FFFF
FFFF80000007FFFF
FFFF8000001FFFFF
FFFFFFFFFFFFFFFE
FFFFFFFFFFFFFFFE
FFFFFFFFFFFFFFFE
FFFFFFFFFFFFFFFC
FFFFFFFFFFFFFFFC
FFFFFFFFFFFFFFFC
FFFFFFFFFFFFFFF8
FFFFFFFFFFFFFFF0
FFFFFFFFFFFFFFF0
FFFFFFFFFFFFFFE0
FFFFFFFFFFFFFFC0
FFFFFFFFFFFFFF80
FFFFFFFFFFFFFE00
FFFFFFFFFFFFF800
FFFFFFFFFFFF8000
ENDCHAR
STARTCHAR 0063
ENCODING 99
SWIDTH 378 0
DWIDTH 72 0
BBX 55 95 12 0
BITMAP
0001FFFFFFFFFE
001FFFFFFFFFFE
007FFFFFFFFFFE
00FFFFFFFFFFFE
03FFFFFFFFFFFE
07FFFFFFFFFFFE
0FFFFFFFFFFFFE
0FFFFFFFFFFFFE
1FFFFFFFFFFFFE
1FFFFFFFFFFFFE
3FFFFFFFFFFFFE
3FFFFFFFFFFFFE
7FFFFFFFFFFFFE
7FFFFFFFFFFFFE
7FFFFFFFFFFFFE
7FFFFE000000FE
FFFFF000000002
FFFFE000000000
FFFFC000000000
FFFFC000000000
FFFF8000000000
FFFF8000000000
FFFF8000000000
FFFF8000000000
FFFF8000000000
FFFF8000000000
FFFF8000000000
FFFF8000000000
FFFF8000000000
FFFF8000000000
FFFF8000000000
FFFF8000000000
FFFF8000000000
FFFF8000000000
FFFF8000000000
FFFF8000000000
FFFF8000000000
FFFF8000000000
FFFF8000000000
FFFF8000000000
FFFF8000000000
FFFF8000000000
FFFF8000000000
FFFF8000000000
FFFF8000000000
FFFF8000000000
FFFF8000000000
FFFF8000000000
FFFF8000000000
FFFF8000000000
FFFF8000000000
FFFF8000000000
FFFF8000000000
FFFF8000000000
FFFF8000000000
FFFF8000000000
FFFF8000000000
FFFF8000000000
FFFF8000000000
FFFF8000000000
FFFF8000000000
FFFF8000000000
FFFF8000000000
FFFF8000000000
FFFF8000000000
FFFF8000000000
FFFF8000000000
FFFF8000000000
FFFF8000000000
FFFF8000000000
FFFF8000000000
FFFF8000000000
FFFF8000000000
FFFF8000000000
FFFF8000000000
FFFFC000000000
FFFFC000000000
FFFFE000000000
FFFFF000000000
7FFFFC0000000E
7FFFFFFFFFFFFE
7FFFFFFFFFFFFE
7FFFFFFFFFFFFE
3FFFFFFFFFFFFE
3FFFFFFFFFFFFE
3FFFFFFFFFFFFE
1FFFFFFFFFFFFE
0FFFFFFFFFFFFE
0FFFFFFFFFFFFE
07FFFFFFFFFFFE
03FFFFFFFFFFFE
01FFFFFFFFFFFE
007FFFFFFFFFFE
001FFFFFFFFFFE
0001FFFFFFFFFE
ENDCHAR
STARTCHAR 0064
ENCODING 100
SWIDTH 468 0
DWIDTH 89 0
BBX 64 133 12 0
BITMAP
000000000001FFFF
000000000001FFFF
000000000001FFFF
000000000001FFFF
000000000001FFFF
000000000001FFFF
000000000001FFFF
000000000001FFFF
000000000001FFFF
000000000001FFFF
000000000001FFFF
000000000001FFFF
000000000001FFFF
000000000001FFFF
000000000001FFFF
000000000001FFFF
000000000001FFFF
000000000001FFFF
000000000001FFFF
000000000001FFFF
000000000001FFFF
000000000001FFFF
000000000001FFFF
000000000001FFFF
000000000001FFFF
000000000001FFFF
000000000001FFFF
000000000001FFFF
000000000001FFFF
000000000001FFFF
000000000001FFFF
000000000001FFFF
000000000001FFFF
000000000001FFFF
000000000001FFFF
000000000001FFFF
000000000001FFFF
000000000001FFFF
0001FFFFFFFFFFFF
001FFFFFFFFFFFFF
007FFFFFFFFFFFFF
00FFFFFFFFFFFFFF
03FFFFFFFFFFFFFF
07FFFFFFFFFFFFFF
0FFFFFFFFFFFFFFF
0FFFFFFFFFFFFFFF
1FFFFFFFFFFFFFFF
3FFFFFFFFFFFFFFF
3FFFFFFFFFFFFFFF
3FFFFFFFFFFFFFFF
7FFFFFFFFFFFFFFF
7FFFFFFFFFFFFFFF
7FFFFFFFFFFFFFFF
7FFFFC000001FFFF
FFFFF0000001FFFF
FFFFE0000001FFFF
FFFFC0000001FFFF
FFFFC0000001FFFF
FFFF80000001FFFF
FFFF80000001FFFF
FFFF80000001FFFF
FFFF80000001FFFF
FFFF80000001FFFF
FFFF80000001FFFF
FFFF80000001FFFF
FFFF80000001FFFF
FFFF80000001FFFF
FFFF80000001FFFF
FFFF80000001FFFF
FFFF80000001FFFF
FFFF80000001FFFF
FFFF80000001FFFF
FFFF80000001FFFF
FFFF80000001FFFF
FFFF80000001FFFF
FFFF80000001FFFF
FFFF80000001FFFF
FFFF80000001FFFF
FFFF80000001FFFF
FFFF80000001FFFF
FFFF80000001FFFF
FFFF80000001FFFF
FFFF80000001FFFF
FFFF80000001FFFF
FFFF80000001FFFF
FFFF80000001FFFF
FFFF80000001FFFF
FFFF80000001FFFF
FFFF80000001FFFF
FFFF80000001FFFF
FFFF80000001FFFF
FFFF80000001FFFF
FFFF80000001FFFF
FFFF80000001FFFF
FFFF80000001FFFF
FFFF80000001FFFF
FFFF80000001FFFF
FFFF80000001FFFF
FFFF80000001FFFF
FFFF80000001FFFF
FFFF80000001FFFF
FFFF80000001FFFF
FFFF80000001FFFF
FFFF80000001FFFF
FFFF80000001FFFF
FFFF80000001FFFF
FFFF80000001FFFF
FFFF80000001FFFF
FFFF80000001FFFF
FFFF80000001FFFF
FFFF80000001FFFF
FFFF80000001FFFF
FFFF80000001FFFF
FFFF80000001FFFF
FFFFC0000001FFFF
FFFFC0000001FFFF
FFFFE0000001FFFF
7FFFF8000001FFFF
7FFFFFFFFFFFFFFF
7FFFFFFFFFFFFFFF
7FFFFFFFFFFFFFFF
3FFFFFFFFFFFFFFF
3FFFFFFFFFFFFFFF
3FFFFFFFFFFFFFFF
1FFFFFFFFFFFFFFF
0FFFFFFFFFFFFFFF
0FFFFFFFFFFFFFFF
07FFFFFFFFFFFFFF
03FFFFFFFFFFFFFF
01FFFFFFFFFFFFFF
007FFFFFFFFFFFFF
001FFFFFFFFFFFFF
0001FFFFFFFFFFFF
ENDCHAR
STARTCHAR 0065
ENCODING 101
SWIDTH 457 0
DWIDTH 87 0
BBX 64 95 12 0
BITMAP
0001FFFFFFFF8000
000FFFFFFFFFF800
007FFFFFFFFFFE00
00FFFFFFFFFFFF80
03FFFFFFFFFFFFC0
07FFFFFFFFFFFFE0
0FFFFFFFFFFFFFF0
0FFFFFFFFFFFFFF0
1FFFFFFFFFFFFFF8
1FFFFFFFFFFFFFFC
3FFFFFFFFFFFFFFC
3FFFFFFFFFFFFFFE
7FFFFFFFFFFFFFFE
7FFFFFFFFFFFFFFE
7FFFFFFFFFFFFFFE
7FFFF0000007FFFF
FFFFE0000003FFFF
FFFFC0000001FFFF
FFFFC0000001FFFF
FFFF80000000FFFF
FFFF80000000FFFF
FFFF80000000FFFF
FFFF80000000FFFF
FFFF80000000FFFF
FFFF80000000FFFF
FFFF80000000FFFF
FFFF80000000FFFF
FFFF80000000FFFF
FFFF80000000FFFF
FFFF80000000FFFF
FFFF80000000FFFF
FFFF80000000FFFF
FFFF80000000FFFF
FFFF80000000FFFF
FFFF80000000FFFF
FFFFFFFFFFFFFFFF
FFFFFFFFFFFFFFFF
FFFFFFFFFFFFFFFF
FFFFFFFFFFFFFFFF
FFFFFFFFFFFFFFFF
FFFFFFFFFFFFFFFF
FFFFFFFFFFFFFFFF
FFFFFFFFFFFFFFFF
FFFFFFFFFFFFFFFF
FFFFFFFFFFFFFFFF
FFFFFFFFFFFFFFFF
FFFFFFFFFFFFFFFF
FFFFFFFFFFFFFFFF
FFFF800000000000
FFFF800000000000
FFFF800000000000
FFFF800000000000
FFFF800000000000
FFFF800000000000
FFFF800000000000
FFFF800000000000
FFFF800000000000
FFFF800000000000
FFFF800000000000
FFFF800000000000
FFFF800000000000
FFFF800000000000
FFFF800000000000
FFFF800000000000
FFFF800000000000
FFFF800000000000
FFFF800000000000
FFFF800000000000
FFFF800000000000
FFFF800000000000
FFFF800000000000
FFFF800000000000
FFFF800000000000
FFFF800000000000
FFFF800000000000
FFFFC00000000000
FFFFC00000000000
FFFFE00000000000
FFFFF00000000000
FFFFF80000000007
7FFFFFFFFFFFFFFF
7FFFFFFFFFFFFFFF
7FFFFFFFFFFFFFFF
3FFFFFFFFFFFFFFF
3FFFFFFFFFFFFFFF
3FFFFFFFFFFFFFFF
1FFFFFFFFFFFFFFF
0FFFFFFFFFFFFFFF
0FFFFFFFFFFFFFFF
07FFFFFFFFFFFFFF
03FFFFFFFFFFFFFF
00FFFFFFFFFFFFFF
007FFFFFFFFFFFFF
000FFFFFFFFFFFFF
0001FFFFFFFFFFFF
ENDCHAR
STARTCHAR 0066
ENCODING 102
SWIDTH 284 0
DWIDTH 54 0
BBX 42 133 12 0
BITMAP
0001FFFFFFC0
001FFFFFFFC0
007FFFFFFFC0
00FFFFFFFFC0
03FFFFFFFFC0
07FFFFFFFFC0
0FFFFFFFFFC0
0FFFFFFFFFC0
1FFFFFFFFFC0
1FFFFFFFFFC0
3FFFFFFFFFC0
3FFFFFFFFFC0
7FFFFFFFFFC0
7FFFFFFFFFC0
7FFFFFFFFFC0
7FFFFC0007C0
FFFFF0000040
FFFFE0000000
FFFFC0000000
FFFFC0000000
FFFF80000000
FFFF80000000
FFFF80000000
FFFF80000000
FFFF80000000
FFFF80000000
FFFF80000000
FFFF80000000
FFFF80000000
FFFF80000000
FFFF80000000
FFFF80000000
FFFF80000000
FFFF80000000
FFFF80000000
FFFF80000000
FFFF80000000
FFFF80000000
FFFFFFFFFFC0
FFFFFFFFFFC0
FFFFFFFFFFC0
FFFFFFFFFFC0
FFFFFFFFFFC0
FFFFFFFFFFC0
FFFFFFFFFFC0
FFFFFFFFFFC0
FFFFFFFFFFC0
FFFFFFFFFFC0
FFFFFFFFFFC0
FFFFFFFFFFC0
FFFFFFFFFFC0
FFFFFFFFFFC0
FFFFFFFFFFC0
FFFF80000000
FFFF80000000
FFFF80000000
FFFF80000000
FFFF80000000
FFFF80000000
FFFF80000000
FFFF80000000
FFFF80000000
FFFF80000000
FFFF80000000
FFFF80000000
FFFF80000000
FFFF80000000
FFFF80000000
FFFF80000000
FFFF80000000
FFFF80000000
FFFF80000000
FFFF80000000
FFFF80000000
FFFF80000000
FFFF80000000
FFFF80000000
FFFF80000000
FFFF80000000
FFFF80000000
FFFF80000000
FFFF80000000
FFFF80000000
FFFF80000000
FFFF80000000
FFFF80000000
FFFF80000000
FFFF80000000
FFFF80000000
FFFF80000000
FFFF80000000
FFFF80000000
FFFF80000000
FFFF80000000
FFFF80000000
FFFF80000000
FFFF80000000
FFFF80000000
FFFF80000000
FFFF80000000
FFFF80000000
FFFF80000000
FFFF80000000
FFFF80000000
FFFF80000000
FFFF80000000
FFFF80000000
FFFF80000000
FFFF80000000
FFFF80000000
FFFF80000000
FFFF80000000
FFFF80000000
FFFF80000000
FFFF80000000
FFFF80000000
FFFF80000000
FFFF80000000
FFFF80000000
FFFF80000000
FFFF80000000
FFFF80000000
FFFF80000000
FFFF80000000
FFFF80000000
FFFF80000000
FFFF80000000
FFFF80000000
FFFF80000000
FFFF80000000
FFFF80000000
FFFF80000000
FFFF80000000
ENDCHAR
STARTCHAR 0067
ENCODING 103
SWIDTH 468 0
DWIDTH 89 0
BBX 64 133 12 -38
BITMAP
0001FFFFFFFFFFFF
001FFFFFFFFFFFFF
007FFFFFFFFFFFFF
01FFFFFFFFFFFFFF
03FFFFFFFFFFFFFF
07FFFFFFFFFFFFFF
0FFFFFFFFFFFFFFF
0FFFFFFFFFFFFFFF
1FFFFFFFFFFFFFFF
3FFFFFFFFFFFFFFF
3FFFFFFFFFFFFFFF
3FFFFFFFFFFFFFFF
7FFFFFFFFFFFFFFF
7FFFFFFFFFFFFFFF
7FFFFFFFFFFFFFFF
7FFFFC000001FFFF
FFFFF0000001FFFF
FFFFE0000001FFFF
FFFFC0000001FFFF
FFFFC0000001FFFF
FFFF80000001FFFF
FFFF80000001FFFF
FFFF80000001FFFF
FFFF80000001FFFF
FFFF80000001FFFF
FFFF80000001FFFF
FFFF80000001FFFF
FFFF80000001FFFF
FFFF80000001FFFF
FFFF80000001FFFF
FFFF80000001FFFF
FFFF80000001FFFF
FFFF80000001FFFF
FFFF80000001FFFF
FFFF80000001FFFF
FFFF80000001FFFF
FFFF80000001FFFF
FFFF80000001FFFF
FFFF80000001FFFF
FFFF80000001FFFF
FFFF80000001FFFF
FFFF80000001FFFF
FFFF80000001FFFF
FFFF80000001FFFF
FFFF80000001FFFF
FFFF80000001FFFF
FFFF80000001FFFF
FFFF80000001FFFF
FFFF80000001FFFF
FFFF80000001FFFF
FFFF80000001FFFF
FFFF80000001FFFF
FFFF80000001FFFF
FFFF80000001FFFF
FFFF80000001FFFF
FFFF80000001FFFF
FFFF80000001FFFF
FFFF80000001FFFF
FFFF80000001FFFF
FFFF80000001FFFF
FFFF80000001FFFF
FFFF80000001FFFF
FFFF80000001FFFF
FFFF80000001FFFF
FFFF80000001FFFF
FFFF80000001FFFF
FFFF80000001FFFF
FFFF80000001FFFF
FFFF80000001FFFF
FFFF80000001FFFF
FFFF80000001FFFF
FFFF80000001FFFF
FFFF80000001FFFF
FFFF80000001FFFF
FFFF80000001FFFF
FFFF80000001FFFF
FFFFC0000001FFFF
FFFFC0000001FFFF
FFFFE0000001FFFF
FFFFF8000001FFFF
7FFFFFFFFFFFFFFF
7FFFFFFFFFFFFFFF
7FFFFFFFFFFFFFFF
3FFFFFFFFFFFFFFF
3FFFFFFFFFFFFFFF
3FFFFFFFFFFFFFFF
1FFFFFFFFFFFFFFF
1FFFFFFFFFFFFFFF
0FFFFFFFFFFFFFFF
07FFFFFFFFFFFFFF
03FFFFFFFFFFFFFF
01FFFFFFFFFFFFFF
007FFFFFFFFFFFFF
001FFFFFFFFFFFFF
0001FFFFFFFFFFFF
000000000001FFFF
000000000001FFFF
000000000001FFFF
000000000001FFFF
000000000001FFFF
000000000001FFFF
000000000001FFFF
000000000001FFFF
000000000001FFFF
000000000001FFFF
000000000001FFFF
000000000001FFFF
000000000001FFFF
000000000001FFFF
000000000001FFFF
000000000001FFFF
000000000001FFFF
000000000001FFFF
000000000001FFFF
000000000003FFFF
000000000003FFFF
000000000007FFFF
E0000000001FFFFF
FFFFFFFFFFFFFFFE
FFFFFFFFFFFFFFFE
FFFFFFFFFFFFFFFE
FFFFFFFFFFFFFFFC
FFFFFFFFFFFFFFFC
FFFFFFFFFFFFFFFC
FFFFFFFFFFFFFFF8
FFFFFFFFFFFFFFF0
FFFFFFFFFFFFFFF0
FFFFFFFFFFFFFFE0
FFFFFFFFFFFFFFC0
FFFFFFFFFFFFFF00
FFFFFFFFFFFFFE00
FFFFFFFFFFFFF000
FFFFFFFFFFFF8000
ENDCHAR
STARTCHAR 0068
ENCODING 104
SWIDTH 468 0
DWIDTH 89 0
BBX 64 133 12 0
BITMAP
FFFF800000000000
FFFF800000000000
FFFF800000000000
FFFF800000000000
FFFF800000000000
FFFF800000000000
FFFF800000000000
FFFF800000000000
FFFF800000000000
FFFF800000000000
FFFF800000000000
FFFF800000000000
FFFF800000000000
FFFF800000000000
FFFF800000000000
FFFF800000000000
FFFF800000000000
FFFF800000000000
FFFF800000000000
FFFF800000000000
FFFF800000000000
FFFF800000000000
FFFF800000000000
FFFF800000000000
FFFF800000000000
FFFF800000000000
FFFF800000000000
FFFF800000000000
FFFF800000000000
FFFF800000000000
FFFF800000000000
FFFF800000000000
FFFF800000000000
FFFF800000000000
FFFF800000000000
FFFF800000000000
FFFF800000000000
FFFF800000000000
FFFFFFFFFFFF8000
FFFFFFFFFFFFF800
FFFFFFFFFFFFFE00
FFFFFFFFFFFFFF80
FFFFFFFFFFFFFFC0
FFFFFFFFFFFFFFE0
FFFFFFFFFFFFFFF0
FFFFFFFFFFFFFFF8
FFFFFFFFFFFFFFF8
FFFFFFFFFFFFFFFC
FFFFFFFFFFFFFFFC
FFFFFFFFFFFFFFFE
FFFFFFFFFFFFFFFE
FFFFFFFFFFFFFFFE
FFFFFFFFFFFFFFFE
FFFF8000003FFFFF
FFFF80000007FFFF
FFFF80000003FFFF
FFFF80000003FFFF
FFFF80000001FFFF
FFFF80000001FFFF
FFFF80000001FFFF
FFFF80000001FFFF
FFFF80000001FFFF
FFFF80000001FFFF
FFFF80000001FFFF
FFFF80000001FFFF
FFFF80000001FFFF
FFFF80000001FFFF
FFFF80000001FFFF
FFFF80000001FFFF
FFFF80000001FFFF
FFFF80000001FFFF
FFFF80000001FFFF
FFFF80000001FFFF
FFFF80000001FFFF
FFFF80000001FFFF
FFFF80000001FFFF
FFFF80000001FFFF
FFFF80000001FFFF
FFFF80000001FFFF
FFFF80000001FFFF
FFFF80000001FFFF
FFFF80000001FFFF
FFFF80000001FFFF
FFFF80000001FFFF
FFFF80000001FFFF
FFFF80000001FFFF
FFFF80000001FFFF
FFFF80000001FFFF
FFFF80000001FFFF
FFFF80000001FFFF
FFFF80000001FFFF
FFFF80000001FFFF
FFFF80000001FFFF
FFFF80000001FFFF
FFFF80000001FFFF
FFFF80000001FFFF
FFFF80000001FFFF
FFFF80000001FFFF
FFFF80000001FFFF
FFFF80000001FFFF
FFFF80000001FFFF
FFFF80000001FFFF
FFFF80000001FFFF
FFFF80000001FFFF
FFFF80000001FFFF
FFFF80000001FFFF
FFFF80000001FFFF
FFFF80000001FFFF
FFFF80000001FFFF
FFFF80000001FFFF
FFFF80000001FFFF
FFFF80000001FFFF
FFFF80000001FFFF
FFFF80000001FFFF
FFFF80000001FFFF
FFFF80000001FFFF
FFFF80000001FFFF
FFFF80000001FFFF
FFFF80000001FFFF
FFFF80000001FFFF
FFFF80000001FFFF
FFFF80000001FFFF
FFFF80000001FFFF
FFFF80000001FFFF
FFFF80000001FFFF
FFFF80000001FFFF
FFFF80000001FFFF
FFFF80000001FFFF
FFFF80000001FFFF
FFFF80000001FFFF
FFFF80000001FFFF
FFFF80000001FFFF
FFFF80000001FFFF
ENDCHAR
STARTCHAR 0069
ENCODING 105
SWIDTH 215 0
DWIDTH 41 0
BBX 17 126 12 0
BITMAP
FFFF80
FFFF80
FFFF80
FFFF80
FFFF80
FFFF80
FFFF80
FFFF80
FFFF80
FFFF80
FFFF80
FFFF80
FFFF80
FFFF80
FFFF80
FFFF80
FFFF80
FFFF80
FFFF80
000000
000000
000000
000000
000000
000000
000000
000000
000000
000000
000000
000000
FFFF80
FFFF80
FFFF80
FFFF80
FFFF80
FFFF80
FFFF80
FFFF80
FFFF80
FFFF80
FFFF80
FFFF80
FFFF80
FFFF80
FFFF80
FFFF80
FFFF80
FFFF80
FFFF80
FFFF80
FFFF80
FFFF80
FFFF80
FFFF80
FFFF80
FFFF80
FFFF80
FFFF80
FFFF80
FFFF80
FFFF80
FFFF80
FFFF80
FFFF80
FFFF80
FFFF80
FFFF80
FFFF80
FFFF80
FFFF80
FFFF80
FFFF80
FFFF80
FFFF80
FFFF80
FFFF80
FFFF80
FFFF80
FFFF80
FFFF80
FFFF80
FFFF80
FFFF80
FFFF80
FFFF80
FFFF80
FFFF80
FFFF80
FFFF80
FFFF80
FFFF80
FFFF80
FFFF80
FFFF80
FFFF80
FFFF80
FFFF80
FFFF80
FFFF80
FFFF80
FFFF80
FFFF80
FFFF80
FFFF80
FFFF80
FFFF80
FFFF80
FFFF80
FFFF80
FFFF80
FFFF80
FFFF80
FFFF80
FFFF80
FFFF80
FFFF80
FFFF80
FFFF80
FFFF80
FFFF80
FFFF80
FFFF80
FFFF80
FFFF80
FFFF80
ENDCHAR
STARTCHAR 006A
ENCODING 106
SWIDTH 215 0
DWIDTH 41 0
BBX 24 164 5 -38
BITMAP
01FFFF
01FFFF
01FFFF
01FFFF
01FFFF
01FFFF
01FFFF
01FFFF
01FFFF
01FFFF
01FFFF
01FFFF
01FFFF
01FFFF
01FFFF
01FFFF
01FFFF
01FFFF
01FFFF
000000
000000
000000
000000
000000
000000
000000
000000
000000
000000
000000
000000
01FFFF
01FFFF
01FFFF
01FFFF
01FFFF
01FFFF
01FFFF
01FFFF
01FFFF
01FFFF
01FFFF
01FFFF
01FFFF
01FFFF
01FFFF
01FFFF
01FFFF
01FFFF
01FFFF
01FFFF
01FFFF
01FFFF
01FFFF
01FFFF
01FFFF
01FFFF
01FFFF
01FFFF
01FFFF
01FFFF
01FFFF
01FFFF
01FFFF
01FFFF
01FFFF
01FFFF
01FFFF
01FFFF
01FFFF
01FFFF
01FFFF
01FFFF
01FFFF
01FFFF
01FFFF
01FFFF
01FFFF
01FFFF
01FFFF
01FFFF
01FFFF
01FFFF
01FFFF
01FFFF
01FFFF
01FFFF
01FFFF
01FFFF
01FFFF
01FFFF
01FFFF
01FFFF
01FFFF
01FFFF
01FFFF
01FFFF
01FFFF
01FFFF
01FFFF
01FFFF
01FFFF
01FFFF
01FFFF
01FFFF
01FFFF
01FFFF
01FFFF
01FFFF
01FFFF
01FFFF
01FFFF
01FFFF
01FFFF
01FFFF
01FFFF
01FFFF
01FFFF
01FFFF
01FFFF
01FFFF
01FFFF
01FFFF
01FFFF
01FFFF
01FFFF
01FFFF
01FFFF
01FFFF
01FFFF
01FFFF
01FFFF
01FFFF
01FFFF
01FFFF
01FFFF
03FFFF
03FFFE
03FFFE
03FFFE
03FFFE
03FFFE
03FFFE
03FFFE
07FFFE
07FFFC
07FFFC
07FFFC
07FFFC
0FFFFC
0FFFFC
0FFFF8
0FFFF8
1FFFF8
1FFFF8
1FFFF0
1FFFF0
3FFFF0
3FFFF0
3FFFE0
7FFFE0
7FFFE0
7FFFE0
FFFFC0
ENDCHAR
STARTCHAR 006B
ENCODING 107
SWIDTH 452 0
DWIDTH 86 0
BBX 69 134 12 0
BITMAP
FFFF80000000000000
FFFF80000000000000
FFFF80000000000000
FFFF80000000000000
FFFF80000000000000
FFFF80000000000000
FFFF80000000000000
FFFF80000000000000
FFFF80000000000000
FFFF80000000000000
FFFF80000000000000
FFFF80000000000000
FFFF80000000000000
FFFF80000000000000
FFFF80000000000000
FFFF80000000000000
FFFF80000000000000
FFFF80000000000000
FFFF80000000000000
FFFF80000000000000
FFFF80000000000000
FFFF80000000000000
FFFF80000000000000
FFFF80000000000000
FFFF80000000000000
FFFF80000000000000
FFFF80000000000000
FFFF80000000000000
FFFF80000000000000
FFFF80000000000000
FFFF80000000000000
FFFF80000000000000
FFFF80000000000000
FFFF80000000000000
FFFF80000000000000
FFFF80000000000000
FFFF80000000000000
FFFF80000000000000
FFFF80000000FFFFE0
FFFF80000000FFFFC0
FFFF80000001FFFFC0
FFFF80000001FFFF80
FFFF80000001FFFF80
FFFF80000003FFFF80
FFFF80000003FFFF00
FFFF80000007FFFF00
FFFF80000007FFFE00
FFFF8000000FFFFE00
FFFF8000000FFFFE00
FFFF8000000FFFFC00
FFFF8000001FFFFC00
FFFF8000001FFFF800
FFFF8000003FFFF800
FFFF8000003FFFF000
FFFF8000003FFFF000
FFFF8000007FFFF000
FFFF8000007FFFE000
FFFF800000FFFFE000
FFFF800000FFFFC000
FFFF800000FFFFC000
FFFF800001FFFF8000
FFFF800001FFFF8000
FFFF800003FFFF8000
FFFF800003FFFF0000
FFFF800003FFFF0000
FFFF800007FFFE0000
FFFF800007FFFE0000
FFFF80000FFFFC0000
FFFF80000FFFFC0000
FFFF80001FFFFC0000
FFFF80001FFFF80000
FFFF80003FFFF80000
FFFF80007FFFF00000
FFFF8001FFFFF00000
FFFFFFFFFFFFE00000
FFFFFFFFFFFFE00000
FFFFFFFFFFFFC00000
FFFFFFFFFFFF800000
FFFFFFFFFFFF000000
FFFFFFFFFFFE000000
FFFFFFFFFFF8000000
FFFFFFFFFFFC000000
FFFFFFFFFFFE000000
FFFFFFFFFFFF000000
FFFFFFFFFFFF800000
FFFFFFFFFFFFC00000
FFFFFFFFFFFFE00000
FFFFFFFFFFFFE00000
FFFFFFFFFFFFF00000
FFFF8001FFFFF00000
FFFF80007FFFF00000
FFFF80003FFFF80000
FFFF80001FFFF80000
FFFF80001FFFFC0000
FFFF80000FFFFC0000
FFFF80000FFFFC0000
FFFF80000FFFFE0000
FFFF800007FFFE0000
FFFF800007FFFE0000
FFFF800007FFFF0000
FFFF800003FFFF0000
FFFF800003FFFF8000
FFFF800001FFFF8000
FFFF800001FFFF8000
FFFF800001FFFFC000
FFFF800000FFFFC000
FFFF800000FFFFE000
FFFF800000FFFFE000
FFFF8000007FFFE000
FFFF8000007FFFF000
FFFF8000007FFFF000
FFFF8000003FFFF800
FFFF8000003FFFF800
FFFF8000003FFFF800
FFFF8000001FFFFC00
FFFF8000001FFFFC00
FFFF8000001FFFFC00
FFFF8000000FFFFE00
FFFF8000000FFFFE00
FFFF8000000FFFFF00
FFFF80000007FFFF00
FFFF80000007FFFF00
FFFF80000007FFFF80
FFFF80000003FFFF80
FFFF80000003FFFFC0
FFFF80000003FFFFC0
FFFF80000001FFFFC0
FFFF80000001FFFFE0
FFFF80000001FFFFE0
FFFF80000000FFFFF0
FFFF80000000FFFFF0
FFFF80000000FFFFF0
FFFF800000007FFFF8
FFFF800000007FFFF8
ENDCHAR
STARTCHAR 006C
ENCODING 108
SWIDTH 215 0
DWIDTH 41 0
BBX 17 133 12 0
BITMAP
FFFF80
FFFF80
FFFF80
FFFF80
FFFF80
FFFF80
FFFF80
FFFF80
FFFF80
FFFF80
FFFF80
FFFF80
FFFF80
FFFF80
FFFF80
FFFF80
FFFF80
FFFF80
FFFF80
FFFF80
FFFF80
FFFF80
FFFF80
FFFF80
FFFF80
FFFF80
FFFF80
FFFF80
FFFF80
FFFF80
FFFF80
FFFF80
FFFF80
FFFF80
FFFF80
FFFF80
FFFF80
FFFF80
FFFF80
FFFF80
FFFF80
FFFF80
FFFF80
FFFF80
FFFF80
FFFF80
FFFF80
FFFF80
FFFF80
FFFF80
FFFF80
FFFF80
FFFF80
FFFF80
FFFF80
FFFF80
FFFF80
FFFF80
FFFF80
FFFF80
FFFF80
FFFF80
FFFF80
FFFF80
FFFF80
FFFF80
FFFF80
FFFF80
FFFF80
FFFF80
FFFF80
FFFF80
FFFF80
FFFF80
FFFF80
FFFF80
FFFF80
FFFF80
FFFF80
FFFF80
FFFF80
FFFF80
FFFF80
FFFF80
FFFF80
FFFF80
FFFF80
FFFF80
FFFF80
FFFF80
FFFF80
FFFF80
FFFF80
FFFF80
FFFF80
FFFF80
FFFF80
FFFF80
FFFF80
FFFF80
FFFF80
FFFF80
FFFF80
FFFF80
FFFF80
FFFF80
FFFF80
FFFF80
FFFF80
FFFF80
FFFF80
FFFF80
FFFF80
FFFF80
FFFF80
FFFF80
FFFF80
FFFF80
FFFF80
FFFF80
FFFF80
FFFF80
FFFF80
FFFF80
FFFF80
FFFF80
FFFF80
FFFF80
FFFF80
FFFF80
FFFF80
FFFF80
FFFF80
ENDCHAR
STARTCHAR 006D
ENCODING 109
SWIDTH 678 0
DWIDTH 129 0
BBX 104 95 12 0
BITMAP
FFFFFFFFFF0000007FFFFF8000
FFFFFFFFFFF00003FFFFFFF800
FFFFFFFFFFFC000FFFFFFFFE00
FFFFFFFFFFFF001FFFFFFFFF00
FFFFFFFFFFFF803FFFFFFFFFC0
FFFFFFFFFFFFC07FFFFFFFFFE0
FFFFFFFFFFFFE0FFFFFFFFFFF0
FFFFFFFFFFFFE1FFFFFFFFFFF0
FFFFFFFFFFFFF1FFFFFFFFFFF8
FFFFFFFFFFFFF3FFFFFFFFFFFC
FFFFFFFFFFFFF3FFFFFFFFFFFC
FFFFFFFFFFFFFBFFFFFFFFFFFC
FFFFFFFFFFFFFFFFFFFFFFFFFE
FFFFFFFFFFFFFFFFFFFFFFFFFE
FFFFFFFFFFFFFFFFFFFFFFFFFE
FFFF800001FFFFFFC0003FFFFF
FFFF8000007FFFFF00000FFFFF
FFFF8000003FFFFE000007FFFF
FFFF8000001FFFFC000003FFFF
FFFF8000001FFFFC000003FFFF
FFFF8000000FFFF8000001FFFF
FFFF8000000FFFF8000001FFFF
FFFF8000000FFFF8000001FFFF
FFFF8000000FFFF8000001FFFF
FFFF8000000FFFF8000001FFFF
FFFF8000000FFFF8000001FFFF
FFFF8000000FFFF8000001FFFF
FFFF8000000FFFF8000001FFFF
FFFF8000000FFFF8000001FFFF
FFFF8000000FFFF8000001FFFF
FFFF8000000FFFF8000001FFFF
FFFF8000000FFFF8000001FFFF
FFFF8000000FFFF8000001FFFF
FFFF8000000FFFF8000001FFFF
FFFF8000000FFFF8000001FFFF
FFFF8000000FFFF8000001FFFF
FFFF8000000FFFF8000001FFFF
FFFF8000000FFFF8000001FFFF
FFFF8000000FFFF8000001FFFF
FFFF8000000FFFF8000001FFFF
FFFF8000000FFFF8000001FFFF
FFFF8000000FFFF8000001FFFF
FFFF8000000FFFF8000001FFFF
FFFF8000000FFFF8000001FFFF
FFFF8000000FFFF8000001FFFF
FFFF8000000FFFF8000001FFFF
FFFF8000000FFFF8000001FFFF
FFFF8000000FFFF8000001FFFF
FFFF8000000FFFF8000001FFFF
FFFF8000000FFFF8000001FFFF
FFFF8000000FFFF8000001FFFF
FFFF8000000FFFF8000001FFFF
FFFF8000000FFFF8000001FFFF
FFFF8000000FFFF8000001FFFF
FFFF8000000FFFF8000001FFFF
FFFF8000000FFFF8000001FFFF
FFFF8000000FFFF8000001FFFF
FFFF8000000FFFF8000001FFFF
FFFF8000000FFFF8000001FFFF
FFFF8000000FFFF8000001FFFF
FFFF8000000FFFF8000001FFFF
FFFF8000000FFFF8000001FFFF
FFFF8000000FFFF8000001FFFF
FFFF8000000FFFF8000001FFFF
FFFF8000000FFFF8000001FFFF
FFFF8000000FFFF8000001FFFF
FFFF8000000FFFF8000001FFFF
FFFF8000000FFFF8000001FFFF
FFFF8000000FFFF8000001FFFF
FFFF8000000FFFF8000001FFFF
FFFF8000000FFFF8000001FFFF
FFFF8000000FFFF8000001FFFF
FFFF8000000FFFF8000001FFFF
FFFF8000000FFFF8000001FFFF
FFFF8000000FFFF8000001FFFF
FFFF8000000FFFF8000001FFFF
FFFF8000000FFFF8000001FFFF
FFFF8000000FFFF8000001FFFF
FFFF8000000FFFF8000001FFFF
FFFF8000000FFFF8000001FFFF
FFFF8000000FFFF8000001FFFF
FFFF8000000FFFF8000001FFFF
FFFF8000000FFFF8000001FFFF
FFFF8000000FFFF8000001FFFF
FFFF8000000FFFF8000001FFFF
FFFF8000000FFFF8000001FFFF
FFFF8000000FFFF8000001FFFF
FFFF8000000FFFF8000001FFFF
FFFF8000000FFFF8000001FFFF
FFFF8000000FFFF8000001FFFF
FFFF8000000FFFF8000001FFFF
FFFF8000000FFFF8000001FFFF
FFFF8000000FFFF8000001FFFF
FFFF8000000FFFF8000001FFFF
FFFF8000000FFFF8000001FFFF
ENDCHAR
STARTCHAR 006E
ENCODING 110
SWIDTH 468 0
DWIDTH 89 0
BBX 64 95 12 0
BITMAP
FFFFFFFFFFFF8000
FFFFFFFFFFFFF800
FFFFFFFFFFFFFE00
FFFFFFFFFFFFFF80
FFFFFFFFFFFFFFC0
FFFFFFFFFFFFFFE0
FFFFFFFFFFFFFFF0
FFFFFFFFFFFFFFF8
FFFFFFFFFFFFFFF8
FFFFFFFFFFFFFFFC
FFFFFFFFFFFFFFFC
FFFFFFFFFFFFFFFE
FFFFFFFFFFFFFFFE
FFFFFFFFFFFFFFFE
FFFFFFFFFFFFFFFE
FFFF8000003FFFFF
FFFF80000007FFFF
FFFF80000003FFFF
FFFF80000003FFFF
FFFF80000001FFFF
FFFF80000001FFFF
FFFF80000001FFFF
FFFF80000001FFFF
FFFF80000001FFFF
FFFF80000001FFFF
FFFF80000001FFFF
FFFF80000001FFFF
FFFF80000001FFFF
FFFF80000001FFFF
FFFF80000001FFFF
FFFF80000001FFFF
FFFF80000001FFFF
FFFF80000001FFFF
FFFF80000001FFFF
FFFF80000001FFFF
FFFF80000001FFFF
FFFF80000001FFFF
FFFF80000001FFFF
FFFF80000001FFFF
FFFF80000001FFFF
FFFF80000001FFFF
FFFF80000001FFFF
FFFF80000001FFFF
FFFF80000001FFFF
FFFF80000001FFFF
FFFF80000001FFFF
FFFF80000001FFFF
FFFF80000001FFFF
FFFF80000001FFFF
FFFF80000001FFFF
FFFF80000001FFFF
FFFF80000001FFFF
FFFF80000001FFFF
FFFF80000001FFFF
FFFF80000001FFFF
FFFF80000001FFFF
FFFF80000001FFFF
FFFF80000001FFFF
FFFF80000001FFFF
FFFF80000001FFFF
FFFF80000001FFFF
FFFF80000001FFFF
FFFF80000001FFFF
FFFF80000001FFFF
FFFF80000001FFFF
FFFF80000001FFFF
FFFF80000001FFFF
FFFF80000001FFFF
FFFF80000001FFFF
FFFF80000001FFFF
FFFF80000001FFFF
FFFF80000001FFFF
FFFF80000001FFFF
FFFF80000001FFFF
FFFF80000001FFFF
FFFF80000001FFFF
FFFF80000001FFFF
FFFF80000001FFFF
FFFF80000001FFFF
FFFF80000001FFFF
FFFF80000001FFFF
FFFF80000001FFFF
FFFF80000001FFFF
FFFF80000001FFFF
FFFF80000001FFFF
FFFF80000001FFFF
FFFF80000001FFFF
FFFF80000001FFFF
FFFF80000001FFFF
FFFF80000001FFFF
FFFF80000001FFFF
FFFF80000001FFFF
FFFF80000001FFFF
FFFF80000001FFFF
FFFF80000001FFFF
ENDCHAR
STARTCHAR 006F
ENCODING 111
SWIDTH 468 0
DWIDTH 89 0
BBX 64 95 12 0
BITMAP
0001FFFFFFFF8000
001FFFFFFFFFF800
007FFFFFFFFFFE00
00FFFFFFFFFFFF80
03FFFFFFFFFFFFC0
07FFFFFFFFFFFFE0
0FFFFFFFFFFFFFF0
0FFFFFFFFFFFFFF8
1FFFFFFFFFFFFFF8
3FFFFFFFFFFFFFFC
3FFFFFFFFFFFFFFC
3FFFFFFFFFFFFFFE
7FFFFFFFFFFFFFFE
7FFFFFFFFFFFFFFE
7FFFFFFFFFFFFFFE
7FFFFC00003FFFFF
FFFFF000000FFFFF
FFFFE0000007FFFF
FFFFC0000003FFFF
FFFFC0000003FFFF
FFFF80000001FFFF
FFFF80000001FFFF
FFFF80000001FFFF
FFFF80000001FFFF
FFFF80000001FFFF
FFFF80000001FFFF
FFFF80000001FFFF
FFFF80000001FFFF
FFFF80000001FFFF
FFFF80000001FFFF
FFFF80000001FFFF
FFFF80000001FFFF
FFFF80000001FFFF
FFFF80000001FFFF
FFFF80000001FFFF
FFFF80000001FFFF
FFFF80000001FFFF
FFFF80000001FFFF
FFFF80000001FFFF
FFFF80000001FFFF
FFFF80000001FFFF
FFFF80000001FFFF
FFFF80000001FFFF
FFFF80000001FFFF
FFFF80000001FFFF
FFFF80000001FFFF
FFFF80000001FFFF
FFFF80000001FFFF
FFFF80000001FFFF
FFFF80000001FFFF
FFFF80000001FFFF
FFFF80000001FFFF
FFFF80000001FFFF
FFFF80000001FFFF
FFFF80000001FFFF
FFFF80000001FFFF
FFFF80000001FFFF
FFFF80000001FFFF
FFFF80000001FFFF
FFFF80000001FFFF
FFFF80000001FFFF
FFFF80000001FFFF
FFFF80000001FFFF
FFFF80000001FFFF
FFFF80000001FFFF
FFFF80000001FFFF
FFFF80000001FFFF
FFFF80000001FFFF
FFFF80000001FFFF
FFFF80000001FFFF
FFFF80000001FFFF
FFFF80000001FFFF
FFFF80000001FFFF
FFFF80000001FFFF
FFFF80000001FFFF
FFFFC0000001FFFF
FFFFC0000003FFFF
FFFFE0000003FFFF
FFFFE0000007FFFF
FFFFF800001FFFFF
7FFFFFFFFFFFFFFE
7FFFFFFFFFFFFFFE
7FFFFFFFFFFFFFFE
3FFFFFFFFFFFFFFC
3FFFFFFFFFFFFFFC
3FFFFFFFFFFFFFFC
1FFFFFFFFFFFFFF8
0FFFFFFFFFFFFFF0
0FFFFFFFFFFFFFF0
07FFFFFFFFFFFFE0
03FFFFFFFFFFFFC0
01FFFFFFFFFFFF80
007FFFFFFFFFFE00
001FFFFFFFFFF800
0001FFFFFFFF8000
ENDCHAR
STARTCHAR 0070
ENCODING 112
SWIDTH 468 0
DWIDTH 89 0
BBX 64 133 12 -38
BITMAP
FFFFFFFFFFFF8000
FFFFFFFFFFFFF800
FFFFFFFFFFFFFE00
FFFFFFFFFFFFFF80
FFFFFFFFFFFFFFC0
FFFFFFFFFFFFFFE0
FFFFFFFFFFFFFFF0
FFFFFFFFFFFFFFF0
FFFFFFFFFFFFFFF8
FFFFFFFFFFFFFFFC
FFFFFFFFFFFFFFFC
FFFFFFFFFFFFFFFC
FFFFFFFFFFFFFFFE
FFFFFFFFFFFFFFFE
FFFFFFFFFFFFFFFE
FFFF8000003FFFFF
FFFF80000007FFFF
FFFF80000003FFFF
FFFF80000003FFFF
FFFF80000001FFFF
FFFF80000001FFFF
FFFF80000001FFFF
FFFF80000001FFFF
FFFF80000001FFFF
FFFF80000001FFFF
FFFF80000001FFFF
FFFF80000001FFFF
FFFF80000001FFFF
FFFF80000001FFFF
FFFF80000001FFFF
FFFF80000001FFFF
FFFF80000001FFFF
FFFF80000001FFFF
FFFF80000001FFFF
FFFF80000001FFFF
FFFF80000001FFFF
FFFF80000001FFFF
FFFF80000001FFFF
FFFF80000001FFFF
FFFF80000001FFFF
FFFF80000001FFFF
FFFF80000001FFFF
FFFF80000001FFFF
FFFF80000001FFFF
FFFF80000001FFFF
FFFF80000001FFFF
FFFF80000001FFFF
FFFF80000001FFFF
FFFF80000001FFFF
FFFF80000001FFFF
FFFF80000001FFFF
FFFF80000001FFFF
FFFF80000001FFFF
FFFF80000001FFFF
FFFF80000001FFFF
FFFF80000001FFFF
FFFF80000001FFFF
FFFF80000001FFFF
FFFF80000001FFFF
FFFF80000001FFFF
FFFF80000001FFFF
FFFF80000001FFFF
FFFF80000001FFFF
FFFF80000001FFFF
FFFF80000001FFFF
FFFF80000001FFFF
FFFF80000001FFFF
FFFF80000001FFFF
FFFF80000001FFFF
FFFF80000001FFFF
FFFF80000001FFFF
FFFF80000001FFFF
FFFF80000001FFFF
FFFF80000001FFFF
FFFF80000001FFFF
FFFF80000001FFFF
FFFF80000003FFFF
FFFF80000003FFFF
FFFF80000007FFFF
FFFF8000001FFFFF
FFFFFFFFFFFFFFFE
FFFFFFFFFFFFFFFE
FFFFFFFFFFFFFFFE
FFFFFFFFFFFFFFFC
FFFFFFFFFFFFFFFC
FFFFFFFFFFFFFFFC
FFFFFFFFFFFFFFF8
FFFFFFFFFFFFFFF0
FFFFFFFFFFFFFFF0
FFFFFFFFFFFFFFE0
FFFFFFFFFFFFFFC0
FFFFFFFFFFFFFF80
FFFFFFFFFFFFFE00
FFFFFFFFFFFFF800
FFFFFFFFFFFF8000
FFFF800000000000
FFFF800000000000
FFFF800000000000
FFFF800000000000
FFFF800000000000
FFFF800000000000
FFFF800000000000
FFFF800000000000
FFFF800000000000
FFFF800000000000
FFFF800000000000
FFFF800000000000
FFFF800000000000
FFFF800000000000
FFFF800000000000
FFFF800000000000
FFFF800000000000
FFFF800000000000
FFFF800000000000
FFFF800000000000
FFFF800000000000
FFFF800000000000
FFFF800000000000
FFFF800000000000
FFFF800000000000
FFFF800000000000
FFFF800000000000
FFFF800000000000
FFFF800000000000
FFFF800000000000
FFFF800000000000
FFFF800000000000
FFFF800000000000
FFFF800000000000
FFFF800000000000
FFFF800000000000
FFFF800000000000
FFFF800000000000
ENDCHAR
STARTCHAR 0071
ENCODING 113
SWIDTH 468 0
DWIDTH 89 0
BBX 64 133 12 -38
BITMAP
0001FFFFFFFFFFFF
001FFFFFFFFFFFFF
007FFFFFFFFFFFFF
01FFFFFFFFFFFFFF
03FFFFFFFFFFFFFF
07FFFFFFFFFFFFFF
0FFFFFFFFFFFFFFF
0FFFFFFFFFFFFFFF
1FFFFFFFFFFFFFFF
3FFFFFFFFFFFFFFF
3FFFFFFFFFFFFFFF
3FFFFFFFFFFFFFFF
7FFFFFFFFFFFFFFF
7FFFFFFFFFFFFFFF
7FFFFFFFFFFFFFFF
7FFFFC000001FFFF
FFFFF0000001FFFF
FFFFE0000001FFFF
FFFFC0000001FFFF
FFFFC0000001FFFF
FFFF80000001FFFF
FFFF80000001FFFF
FFFF80000001FFFF
FFFF80000001FFFF
FFFF80000001FFFF
FFFF80000001FFFF
FFFF80000001FFFF
FFFF80000001FFFF
FFFF80000001FFFF
FFFF80000001FFFF
FFFF80000001FFFF
FFFF80000001FFFF
FFFF80000001FFFF
FFFF80000001FFFF
FFFF80000001FFFF
FFFF80000001FFFF
FFFF80000001FFFF
FFFF80000001FFFF
FFFF80000001FFFF
FFFF80000001FFFF
FFFF80000001FFFF
FFFF80000001FFFF
FFFF80000001FFFF
FFFF80000001FFFF
FFFF80000001FFFF
FFFF80000001FFFF
FFFF80000001FFFF
FFFF80000001FFFF
FFFF80000001FFFF
FFFF80000001FFFF
FFFF80000001FFFF
FFFF80000001FFFF
FFFF80000001FFFF
FFFF80000001FFFF
FFFF80000001FFFF
FFFF80000001FFFF
FFFF80000001FFFF
FFFF80000001FFFF
FFFF80000001FFFF
FFFF80000001FFFF
FFFF80000001FFFF
FFFF80000001FFFF
FFFF80000001FFFF
FFFF80000001FFFF
FFFF80000001FFFF
FFFF80000001FFFF
FFFF80000001FFFF
FFFF80000001FFFF
FFFF80000001FFFF
FFFF80000001FFFF
FFFF80000001FFFF
FFFF80000001FFFF
FFFF80000001FFFF
FFFF80000001FFFF
FFFF80000001FFFF
FFFF80000001FFFF
FFFFC0000001FFFF
FFFFC0000001FFFF
FFFFE0000001FFFF
FFFFF8000001FFFF
7FFFFFFFFFFFFFFF
7FFFFFFFFFFFFFFF
7FFFFFFFFFFFFFFF
3FFFFFFFFFFFFFFF
3FFFFFFFFFFFFFFF
3FFFFFFFFFFFFFFF
1FFFFFFFFFFFFFFF
1FFFFFFFFFFFFFFF
0FFFFFFFFFFFFFFF
07FFFFFFFFFFFFFF
03FFFFFFFFFFFFFF
01FFFFFFFFFFFFFF
007FFFFFFFFFFFFF
001FFFFFFFFFFFFF
0001FFFFFFFFFFFF
000000000001FFFF
000000000001FFFF
000000000001FFFF
000000000001FFFF
000000000001FFFF
000000000001FFFF
000000000001FFFF
000000000001FFFF
000000000001FFFF
000000000001FFFF
000000000001FFFF
000000000001FFFF
000000000001FFFF
000000000001FFFF
000000000001FFFF
000000000001FFFF
000000000001FFFF
000000000001FFFF
000000000001FFFF
000000000001FFFF
000000000001FFFF
000000000001FFFF
000000000001FFFF
000000000001FFFF
000000000001FFFF
000000000001FFFF
000000000001FFFF
000000000001FFFF
000000000001FFFF
000000000001FFFF
000000000001FFFF
000000000001FFFF
000000000001FFFF
000000000001FFFF
000000000001FFFF
000000000001FFFF
000000000001FFFF
000000000001FFFF
ENDCHAR
STARTCHAR 0072
ENCODING 114
SWIDTH 310 0
DWIDTH 59 0
BBX 44 95 12 0
BITMAP
FFFF803FFFF0
FFFF81FFFFF0
FFFF83FFFFF0
FFFF87FFFFF0
FFFF8FFFFFF0
FFFF9FFFFFF0
FFFFBFFFFFF0
FFFFBFFFFFF0
FFFFBFFFFFF0
FFFFFFFFFFF0
FFFFFFFFFFF0
FFFFFFFFFFF0
FFFFFFFFFFF0
FFFFFFFFFFF0
FFFFFFFFFFF0
FFFFFFFFFFF0
FFFFFFC001F0
FFFFFC000010
FFFFF8000000
FFFFF0000000
FFFFE0000000
FFFFC0000000
FFFFC0000000
FFFFC0000000
FFFF80000000
FFFF80000000
FFFF80000000
FFFF80000000
FFFF80000000
FFFF80000000
FFFF80000000
FFFF80000000
FFFF80000000
FFFF80000000
FFFF80000000
FFFF80000000
FFFF80000000
FFFF80000000
FFFF80000000
FFFF80000000
FFFF80000000
FFFF80000000
FFFF80000000
FFFF80000000
FFFF80000000
FFFF80000000
FFFF80000000
FFFF80000000
FFFF80000000
FFFF80000000
FFFF80000000
FFFF80000000
FFFF80000000
FFFF80000000
FFFF80000000
FFFF80000000
FFFF80000000
FFFF80000000
FFFF80000000
FFFF80000000
FFFF80000000
FFFF80000000
FFFF80000000
FFFF80000000
FFFF80000000
FFFF80000000
FFFF80000000
FFFF80000000
FFFF80000000
FFFF80000000
FFFF80000000
FFFF80000000
FFFF80000000
FFFF80000000
FFFF80000000
FFFF80000000
FFFF80000000
FFFF80000000
FFFF80000000
FFFF80000000
FFFF80000000
FFFF80000000
FFFF80000000
FFFF80000000
FFFF80000000
FFFF80000000
FFFF80000000
FFFF80000000
FFFF80000000
FFFF80000000
FFFF80000000
FFFF80000000
FFFF80000000
FFFF80000000
FFFF80000000
ENDCHAR
STARTCHAR 0073
ENCODING 115
SWIDTH 410 0
DWIDTH 78 0
BBX 60 95 9 0
BITMAP
0000FFFFFFFFFFF0
000FFFFFFFFFFFF0
003FFFFFFFFFFFF0
00FFFFFFFFFFFFF0
01FFFFFFFFFFFFF0
03FFFFFFFFFFFFF0
07FFFFFFFFFFFFF0
0FFFFFFFFFFFFFF0
1FFFFFFFFFFFFFF0
1FFFFFFFFFFFFFF0
3FFFFFFFFFFFFFF0
3FFFFFFFFFFFFFF0
7FFFFFFFFFFFFFF0
7FFFFFFFFFFFFFF0
7FFFFFFFFFFFFFF0
7FFFFC00000001F0
FFFFF00000000010
FFFFE00000000000
FFFFC00000000000
FFFF800000000000
FFFF800000000000
FFFF800000000000
FFFF800000000000
FFFF800000000000
FFFF800000000000
FFFF800000000000
FFFF800000000000
FFFFC00000000000
FFFFC00000000000
FFFFE00000000000
FFFFF00000000000
7FFFF80000000000
7FFFFC0000000000
7FFFFF0000000000
3FFFFF8000000000
3FFFFFE000000000
1FFFFFF800000000
1FFFFFFE00000000
0FFFFFFF80000000
07FFFFFFC0000000
07FFFFFFF0000000
01FFFFFFFC000000
00FFFFFFFF000000
007FFFFFFFC00000
003FFFFFFFE00000
000FFFFFFFF80000
0003FFFFFFFE0000
0001FFFFFFFF8000
00007FFFFFFFC000
00001FFFFFFFF000
000007FFFFFFF800
000003FFFFFFFC00
000000FFFFFFFE00
0000003FFFFFFF00
0000000FFFFFFF80
00000007FFFFFF80
00000001FFFFFFC0
000000007FFFFFC0
000000001FFFFFE0
0000000007FFFFE0
0000000003FFFFE0
0000000000FFFFF0
00000000007FFFF0
00000000003FFFF0
00000000003FFFF0
00000000001FFFF0
00000000001FFFF0
00000000001FFFF0
00000000001FFFF0
00000000001FFFF0
00000000001FFFF0
00000000001FFFF0
00000000001FFFF0
00000000001FFFF0
00000000001FFFF0
00000000001FFFF0
00000000003FFFF0
00000000003FFFF0
00000000007FFFF0
E000000001FFFFF0
FFFFFFFFFFFFFFE0
FFFFFFFFFFFFFFE0
FFFFFFFFFFFFFFE0
FFFFFFFFFFFFFFC0
FFFFFFFFFFFFFFC0
FFFFFFFFFFFFFFC0
FFFFFFFFFFFFFF80
FFFFFFFFFFFFFF00
FFFFFFFFFFFFFF00
FFFFFFFFFFFFFE00
FFFFFFFFFFFFFC00
FFFFFFFFFFFFF000
FFFFFFFFFFFFE000
FFFFFFFFFFFF0000
FFFFFFFFFFF80000
ENDCHAR
STARTCHAR 0074
ENCODING 116
SWIDTH 310 0
DWIDTH 59 0
BBX 41 122 12 0
BITMAP
000080000000
000180000000
000780000000
001F80000000
007F80000000
01FF80000000
03FF80000000
0FFF80000000
3FFF80000000
FFFF80000000
FFFF80000000
FFFF80000000
FFFF80000000
FFFF80000000
FFFF80000000
FFFF80000000
FFFF80000000
FFFF80000000
FFFF80000000
FFFF80000000
FFFF80000000
FFFF80000000
FFFF80000000
FFFF80000000
FFFF80000000
FFFF80000000
FFFF80000000
FFFFFFFFFF80
FFFFFFFFFF80
FFFFFFFFFF80
FFFFFFFFFF80
FFFFFFFFFF80
FFFFFFFFFF80
FFFFFFFFFF80
FFFFFFFFFF80
FFFFFFFFFF80
FFFFFFFFFF80
FFFFFFFFFF80
FFFFFFFFFF80
FFFFFFFFFF80
FFFFFFFFFF80
FFFFFFFFFF80
FFFF80000000
FFFF80000000
FFFF80000000
FFFF80000000
FFFF80000000
FFFF80000000
FFFF80000000
FFFF80000000
FFFF80000000
FFFF80000000
FFFF80000000
FFFF80000000
FFFF80000000
FFFF80000000
FFFF80000000
FFFF80000000
FFFF80000000
FFFF80000000
FFFF80000000
FFFF80000000
FFFF80000000
FFFF80000000
FFFF80000000
FFFF80000000
FFFF80000000
FFFF80000000
FFFF80000000
FFFF80000000
FFFF80000000
FFFF80000000
FFFF80000000
FFFF80000000
FFFF80000000
FFFF80000000
FFFF80000000
FFFF80000000
FFFF80000000
FFFF80000000
FFFF80000000
FFFF80000000
FFFF80000000
FFFF80000000
FFFF80000000
FFFF80000000
FFFF80000000
FFFF80000000
FFFF80000000
FFFF80000000
FFFF80000000
FFFF80000000
FFFF80000000
FFFF80000000
FFFF80000000
FFFF80000000
FFFF80000000
FFFF80000000
FFFF80000000
FFFF80000000
FFFF80000000
FFFF80000000
FFFFC0000000
FFFFC0000000
FFFFE0000000
FFFFF0000000
7FFFFE001F80
7FFFFFFFFF80
7FFFFFFFFF80
7FFFFFFFFF80
3FFFFFFFFF80
3FFFFFFFFF80
3FFFFFFFFF80
1FFFFFFFFF80
0FFFFFFFFF80
0FFFFFFFFF80
07FFFFFFFF80
03FFFFFFFF80
01FFFFFFFF80
007FFFFFFF80
001FFFFFFF80
0001FFFFFF80
ENDCHAR
STARTCHAR 0075
ENCODING 117
SWIDTH 468 0
DWIDTH 89 0
BBX 64 95 12 0
BITMAP
FFFF80000001FFFF
FFFF80000001FFFF
FFFF80000001FFFF
FFFF80000001FFFF
FFFF80000001FFFF
FFFF80000001FFFF
FFFF80000001FFFF
FFFF80000001FFFF
FFFF80000001FFFF
FFFF80000001FFFF
FFFF80000001FFFF
FFFF80000001FFFF
FFFF80000001FFFF
FFFF80000001FFFF
FFFF80000001FFFF
FFFF80000001FFFF
FFFF80000001FFFF
FFFF80000001FFFF
FFFF80000001FFFF
FFFF80000001FFFF
FFFF80000001FFFF
FFFF80000001FFFF
FFFF80000001FFFF
FFFF80000001FFFF
FFFF80000001FFFF
FFFF80000001FFFF
FFFF80000001FFFF
FFFF80000001FFFF
FFFF80000001FFFF
FFFF80000001FFFF
FFFF80000001FFFF
FFFF80000001FFFF
FFFF80000001FFFF
FFFF80000001FFFF
FFFF80000001FFFF
FFFF80000001FFFF
FFFF80000001FFFF
FFFF80000001FFFF
FFFF80000001FFFF
FFFF80000001FFFF
FFFF80000001FFFF
FFFF80000001FFFF
FFFF80000001FFFF
FFFF80000001FFFF
FFFF80000001FFFF
FFFF80000001FFFF
FFFF80000001FFFF
FFFF80000001FFFF
FFFF80000001FFFF
FFFF80000001FFFF
FFFF80000001FFFF
FFFF80000001FFFF
FFFF80000001FFFF
FFFF80000001FFFF
FFFF80000001FFFF
FFFF80000001FFFF
FFFF80000001FFFF
FFFF80000001FFFF
FFFF80000001FFFF
FFFF80000001FFFF
FFFF80000001FFFF
FFFF80000001FFFF
FFFF80000001FFFF
FFFF80000001FFFF
FFFF80000001FFFF
FFFF80000001FFFF
FFFF80000001FFFF
FFFF80000001FFFF
FFFF80000001FFFF
FFFF80000001FFFF
FFFF80000001FFFF
FFFF80000001FFFF
FFFF80000001FFFF
FFFF80000001FFFF
FFFF80000001FFFF
FFFF80000001FFFF
FFFFC0000001FFFF
FFFFC0000001FFFF
FFFFE0000001FFFF
FFFFF8000001FFFF
7FFFFFFFFFFFFFFF
7FFFFFFFFFFFFFFF
7FFFFFFFFFFFFFFF
3FFFFFFFFFFFFFFF
3FFFFFFFFFFFFFFF
3FFFFFFFFFFFFFFF
1FFFFFFFFFFFFFFF
0FFFFFFFFFFFFFFF
0FFFFFFFFFFFFFFF
07FFFFFFFFFFFFFF
03FFFFFFFFFFFFFF
01FFFFFFFFFFFFFF
007FFFFFFFFFFFFF
001FFFFFFFFFFFFF
0001FFFFFFFFFFFF
ENDCHAR
STARTCHAR 0076
ENCODING 118
SWIDTH 415 0
DWIDTH 79 0
BBX 76 95 2 0
BITMAP
FFFFF0000000007FFFF0
FFFFF0000000007FFFF0
7FFFF000000000FFFFE0
7FFFF800000000FFFFE0
7FFFF800000000FFFFE0
3FFFF800000000FFFFC0
3FFFF800000001FFFFC0
3FFFFC00000001FFFFC0
3FFFFC00000001FFFFC0
1FFFFC00000001FFFF80
1FFFFC00000003FFFF80
1FFFFE00000003FFFF80
0FFFFE00000003FFFF00
0FFFFE00000003FFFF00
0FFFFE00000007FFFF00
0FFFFE00000007FFFE00
07FFFF00000007FFFE00
07FFFF00000007FFFE00
07FFFF0000000FFFFE00
03FFFF0000000FFFFC00
03FFFF8000000FFFFC00
03FFFF8000000FFFFC00
03FFFF8000001FFFF800
01FFFF8000001FFFF800
01FFFFC000001FFFF800
01FFFFC000001FFFF800
00FFFFC000003FFFF000
00FFFFC000003FFFF000
00FFFFE000003FFFF000
00FFFFE000003FFFE000
007FFFE000003FFFE000
007FFFE000007FFFE000
007FFFF000007FFFC000
003FFFF000007FFFC000
003FFFF000007FFFC000
003FFFF00000FFFFC000
003FFFF80000FFFF8000
001FFFF80000FFFF8000
001FFFF80000FFFF8000
001FFFF80001FFFF0000
000FFFFC0001FFFF0000
000FFFFC0001FFFF0000
000FFFFC0001FFFF0000
000FFFFC0003FFFE0000
0007FFFE0003FFFE0000
0007FFFE0003FFFE0000
0007FFFE0003FFFC0000
0003FFFE0007FFFC0000
0003FFFF0007FFFC0000
0003FFFF0007FFFC0000
0003FFFF0007FFF80000
0001FFFF000FFFF80000
0001FFFF800FFFF80000
0001FFFF800FFFF00000
0000FFFF800FFFF00000
0000FFFF801FFFF00000
0000FFFFC01FFFE00000
0000FFFFC01FFFE00000
00007FFFC01FFFE00000
00007FFFC03FFFE00000
00007FFFE03FFFC00000
00003FFFE03FFFC00000
00003FFFE03FFFC00000
00003FFFE07FFF800000
00003FFFE07FFF800000
00001FFFF07FFF800000
00001FFFF07FFF800000
00001FFFF07FFF000000
00000FFFF0FFFF000000
00000FFFF8FFFF000000
00000FFFF8FFFE000000
00000FFFF8FFFE000000
000007FFF9FFFE000000
000007FFFDFFFC000000
000007FFFDFFFC000000
000003FFFDFFFC000000
000003FFFFFFFC000000
000003FFFFFFF8000000
000003FFFFFFF8000000
000001FFFFFFF8000000
000001FFFFFFF0000000
000001FFFFFFF0000000
000000FFFFFFF0000000
000000FFFFFFF0000000
000000FFFFFFE0000000
000000FFFFFFE0000000
0000007FFFFFE0000000
0000007FFFFFC0000000
0000007FFFFFC0000000
0000003FFFFFC0000000
0000003FFFFFC0000000
0000003FFFFF80000000
0000003FFFFF80000000
0000001FFFFF80000000
0000001FFFFF00000000
ENDCHAR
STARTCHAR 0077
ENCODING 119
SWIDTH 652 0
DWIDTH 124 0
BBX 119 95 3 0
BITMAP
FFFFF00000003FFFF80000000FFFFE
FFFFF00000003FFFFC0000000FFFFE
7FFFF00000003FFFFC0000001FFFFC
7FFFF80000003FFFFC0000001FFFFC
7FFFF80000003FFFFC0000001FFFFC
7FFFF80000007FFFFC0000001FFFFC
3FFFF80000007FFFFE0000001FFFF8
3FFFF80000007FFFFE0000003FFFF8
3FFFFC0000007FFFFE0000003FFFF8
3FFFFC0000007FFFFE0000003FFFF0
1FFFFC0000007FFFFE0000003FFFF0
1FFFFC000000FFFFFE0000007FFFF0
1FFFFC000000FFFFFF0000007FFFF0
0FFFFE000000FFFFFF0000007FFFE0
0FFFFE000000FFFFFF0000007FFFE0
0FFFFE000000FFFFFF0000007FFFE0
0FFFFE000001FFFFFF000000FFFFE0
07FFFF000001FFFFFF800000FFFFC0
07FFFF000001FFFFFF800000FFFFC0
07FFFF000001FFFFFF800000FFFFC0
07FFFF000001FFFFFF800000FFFF80
03FFFF000003FFFFFF800001FFFF80
03FFFF800003FFFFFF800001FFFF80
03FFFF800003FFFFFFC00001FFFF80
03FFFF800003FFFFFFC00001FFFF00
01FFFF800003FFEFFFC00003FFFF00
01FFFFC00003FFEFFFC00003FFFF00
01FFFFC00007FFEFFFC00003FFFF00
01FFFFC00007FFEFFFE00003FFFE00
00FFFFC00007FFCFFFE00003FFFE00
00FFFFC00007FFC7FFE00007FFFE00
00FFFFE00007FFC7FFE00007FFFE00
007FFFE0000FFFC7FFE00007FFFC00
007FFFE0000FFFC7FFE00007FFFC00
007FFFE0000FFF87FFF0000FFFFC00
007FFFE0000FFF87FFF0000FFFF800
003FFFF0000FFF83FFF0000FFFF800
003FFFF0001FFF83FFF0000FFFF800
003FFFF0001FFF83FFF0000FFFF800
003FFFF0001FFF83FFF8001FFFF000
001FFFF8001FFF03FFF8001FFFF000
001FFFF8001FFF01FFF8001FFFF000
001FFFF8001FFF01FFF8001FFFF000
001FFFF8003FFF01FFF8003FFFE000
000FFFF8003FFF01FFFC003FFFE000
000FFFFC003FFE01FFFC003FFFE000
000FFFFC003FFE00FFFC003FFFC000
0007FFFC003FFE00FFFC003FFFC000
0007FFFC007FFE00FFFC007FFFC000
0007FFFE007FFE00FFFC007FFFC000
0007FFFE007FFC00FFFE007FFF8000
0003FFFE007FFC00FFFE007FFF8000
0003FFFE007FFC007FFE00FFFF8000
0003FFFE00FFFC007FFE00FFFF8000
0003FFFF00FFFC007FFE00FFFF0000
0001FFFF00FFF8007FFF00FFFF0000
0001FFFF00FFF8007FFF00FFFF0000
0001FFFF00FFF8003FFF01FFFE0000
0001FFFF00FFF8003FFF01FFFE0000
0000FFFF81FFF8003FFF01FFFE0000
0000FFFF81FFF8003FFF01FFFE0000
0000FFFF81FFF0003FFF83FFFC0000
0000FFFF81FFF0001FFF83FFFC0000
00007FFFC1FFF0001FFF83FFFC0000
00007FFFC3FFF0001FFF83FFFC0000
00007FFFC3FFF0001FFF83FFF80000
00003FFFC3FFE0001FFFC7FFF80000
00003FFFC3FFE0001FFFC7FFF80000
00003FFFE3FFE0000FFFC7FFF80000
00003FFFE7FFE0000FFFC7FFF00000
00001FFFE7FFE0000FFFC7FFF00000
00001FFFE7FFC0000FFFEFFFF00000
00001FFFF7FFC0000FFFEFFFE00000
00001FFFF7FFC00007FFEFFFE00000
00000FFFF7FFC00007FFEFFFE00000
00000FFFFFFFC00007FFFFFFE00000
00000FFFFFFF800007FFFFFFC00000
00000FFFFFFF800007FFFFFFC00000
000007FFFFFF800003FFFFFFC00000
000007FFFFFF800003FFFFFFC00000
000007FFFFFF800003FFFFFF800000
000007FFFFFF800003FFFFFF800000
000003FFFFFF000003FFFFFF800000
000003FFFFFF000003FFFFFF000000
000003FFFFFF000001FFFFFF000000
000001FFFFFF000001FFFFFF000000
000001FFFFFF000001FFFFFF000000
000001FFFFFE000001FFFFFE000000
000001FFFFFE000001FFFFFE000000
000000FFFFFE000000FFFFFE000000
000000FFFFFE000000FFFFFE000000
000000FFFFFE000000FFFFFC000000
000000FFFFFC000000FFFFFC000000
0000007FFFFC000000FFFFFC000000
0000007FFFFC0000007FFFFC000000
ENDCHAR
ENDFONT
